%TF.GenerationSoftware,KiCad,Pcbnew,8.0.6*%
%TF.CreationDate,2024-10-18T13:29:46-03:00*%
%TF.ProjectId,analog-keypad-16-keys,616e616c-6f67-42d6-9b65-797061642d31,rev?*%
%TF.SameCoordinates,Original*%
%TF.FileFunction,Copper,L1,Top*%
%TF.FilePolarity,Positive*%
%FSLAX46Y46*%
G04 Gerber Fmt 4.6, Leading zero omitted, Abs format (unit mm)*
G04 Created by KiCad (PCBNEW 8.0.6) date 2024-10-18 13:29:46*
%MOMM*%
%LPD*%
G01*
G04 APERTURE LIST*
G04 Aperture macros list*
%AMRoundRect*
0 Rectangle with rounded corners*
0 $1 Rounding radius*
0 $2 $3 $4 $5 $6 $7 $8 $9 X,Y pos of 4 corners*
0 Add a 4 corners polygon primitive as box body*
4,1,4,$2,$3,$4,$5,$6,$7,$8,$9,$2,$3,0*
0 Add four circle primitives for the rounded corners*
1,1,$1+$1,$2,$3*
1,1,$1+$1,$4,$5*
1,1,$1+$1,$6,$7*
1,1,$1+$1,$8,$9*
0 Add four rect primitives between the rounded corners*
20,1,$1+$1,$2,$3,$4,$5,0*
20,1,$1+$1,$4,$5,$6,$7,0*
20,1,$1+$1,$6,$7,$8,$9,0*
20,1,$1+$1,$8,$9,$2,$3,0*%
G04 Aperture macros list end*
%TA.AperFunction,ComponentPad*%
%ADD10C,2.000000*%
%TD*%
%TA.AperFunction,SMDPad,CuDef*%
%ADD11RoundRect,0.250000X-0.262500X-0.450000X0.262500X-0.450000X0.262500X0.450000X-0.262500X0.450000X0*%
%TD*%
%TA.AperFunction,ComponentPad*%
%ADD12R,1.700000X1.700000*%
%TD*%
%TA.AperFunction,ComponentPad*%
%ADD13O,1.700000X1.700000*%
%TD*%
%TA.AperFunction,ComponentPad*%
%ADD14R,1.800000X1.800000*%
%TD*%
%TA.AperFunction,ComponentPad*%
%ADD15C,1.800000*%
%TD*%
%TA.AperFunction,SMDPad,CuDef*%
%ADD16RoundRect,0.250000X0.262500X0.450000X-0.262500X0.450000X-0.262500X-0.450000X0.262500X-0.450000X0*%
%TD*%
%TA.AperFunction,SMDPad,CuDef*%
%ADD17RoundRect,0.250000X-0.450000X0.262500X-0.450000X-0.262500X0.450000X-0.262500X0.450000X0.262500X0*%
%TD*%
%TA.AperFunction,SMDPad,CuDef*%
%ADD18RoundRect,0.250000X0.450000X-0.262500X0.450000X0.262500X-0.450000X0.262500X-0.450000X-0.262500X0*%
%TD*%
%TA.AperFunction,ViaPad*%
%ADD19C,0.600000*%
%TD*%
%TA.AperFunction,Conductor*%
%ADD20C,0.500000*%
%TD*%
G04 APERTURE END LIST*
D10*
%TO.P,SW1,1,1*%
%TO.N,Net-(R1-Pad2)*%
X98800000Y-49600000D03*
X105300000Y-49600000D03*
%TO.P,SW1,2,2*%
%TO.N,Signal*%
X98800000Y-54100000D03*
X105300000Y-54100000D03*
%TD*%
%TO.P,SW11,1,1*%
%TO.N,Net-(R10-Pad2)*%
X128200000Y-79400000D03*
X134700000Y-79400000D03*
%TO.P,SW11,2,2*%
%TO.N,Signal*%
X128200000Y-83900000D03*
X134700000Y-83900000D03*
%TD*%
D11*
%TO.P,R2,1*%
%TO.N,VCC*%
X101275000Y-60100000D03*
%TO.P,R2,2*%
%TO.N,Net-(R2-Pad2)*%
X103100000Y-60100000D03*
%TD*%
%TO.P,R3,1*%
%TO.N,VCC*%
X101475000Y-75000000D03*
%TO.P,R3,2*%
%TO.N,Net-(R3-Pad2)*%
X103300000Y-75000000D03*
%TD*%
D12*
%TO.P,J1,1,Pin_1*%
%TO.N,VCC*%
X109060000Y-39200000D03*
D13*
%TO.P,J1,2,Pin_2*%
%TO.N,Signal*%
X111600000Y-39200000D03*
%TO.P,J1,3,Pin_3*%
%TO.N,LEDs*%
X114140000Y-39200000D03*
%TO.P,J1,4,Pin_4*%
%TO.N,GND*%
X116680000Y-39200000D03*
%TD*%
D11*
%TO.P,R8,1*%
%TO.N,VCC*%
X115987500Y-46300000D03*
%TO.P,R8,2*%
%TO.N,Net-(R8-Pad2)*%
X117812500Y-46300000D03*
%TD*%
D10*
%TO.P,SW4,1,1*%
%TO.N,Net-(R4-Pad2)*%
X98850000Y-93950000D03*
X105350000Y-93950000D03*
%TO.P,SW4,2,2*%
%TO.N,Signal*%
X98850000Y-98450000D03*
X105350000Y-98450000D03*
%TD*%
%TO.P,SW15,1,1*%
%TO.N,Net-(R14-Pad2)*%
X142950000Y-79350000D03*
X149450000Y-79350000D03*
%TO.P,SW15,2,2*%
%TO.N,Signal*%
X142950000Y-83850000D03*
X149450000Y-83850000D03*
%TD*%
D11*
%TO.P,R15,1*%
%TO.N,VCC*%
X145787500Y-90000000D03*
%TO.P,R15,2*%
%TO.N,Net-(R15-Pad2)*%
X147612500Y-90000000D03*
%TD*%
D14*
%TO.P,D2,1,K*%
%TO.N,GND*%
X140400000Y-40100000D03*
D15*
%TO.P,D2,2,A*%
%TO.N,Net-(D2-A)*%
X142940000Y-40100000D03*
%TD*%
D10*
%TO.P,SW7,1,1*%
%TO.N,Net-(R6-Pad2)*%
X113350000Y-79350000D03*
X119850000Y-79350000D03*
%TO.P,SW7,2,2*%
%TO.N,Signal*%
X113350000Y-83850000D03*
X119850000Y-83850000D03*
%TD*%
D11*
%TO.P,R14,1*%
%TO.N,VCC*%
X145687500Y-74900000D03*
%TO.P,R14,2*%
%TO.N,Net-(R14-Pad2)*%
X147512500Y-74900000D03*
%TD*%
D16*
%TO.P,R5,1*%
%TO.N,VCC*%
X117900000Y-60100000D03*
%TO.P,R5,2*%
%TO.N,Net-(R5-Pad2)*%
X116075000Y-60100000D03*
%TD*%
D10*
%TO.P,SW13,1,1*%
%TO.N,Net-(R16-Pad2)*%
X143000000Y-49600000D03*
X149500000Y-49600000D03*
%TO.P,SW13,2,2*%
%TO.N,Signal*%
X143000000Y-54100000D03*
X149500000Y-54100000D03*
%TD*%
D11*
%TO.P,R7,1*%
%TO.N,VCC*%
X115587500Y-89900000D03*
%TO.P,R7,2*%
%TO.N,Net-(R7-Pad2)*%
X117412500Y-89900000D03*
%TD*%
D10*
%TO.P,SW12,1,1*%
%TO.N,Net-(R11-Pad2)*%
X128150000Y-94150000D03*
X134650000Y-94150000D03*
%TO.P,SW12,2,2*%
%TO.N,Signal*%
X128150000Y-98650000D03*
X134650000Y-98650000D03*
%TD*%
D17*
%TO.P,R19,1*%
%TO.N,Net-(D2-A)*%
X146400000Y-40775000D03*
%TO.P,R19,2*%
%TO.N,LEDs*%
X146400000Y-42600000D03*
%TD*%
D11*
%TO.P,R12,1*%
%TO.N,VCC*%
X130987500Y-46100000D03*
%TO.P,R12,2*%
%TO.N,Net-(R12-Pad2)*%
X132812500Y-46100000D03*
%TD*%
D10*
%TO.P,SW3,1,1*%
%TO.N,Net-(R3-Pad2)*%
X98850000Y-79350000D03*
X105350000Y-79350000D03*
%TO.P,SW3,2,2*%
%TO.N,Signal*%
X98850000Y-83850000D03*
X105350000Y-83850000D03*
%TD*%
%TO.P,SW10,1,1*%
%TO.N,Net-(R9-Pad2)*%
X128100000Y-64600000D03*
X134600000Y-64600000D03*
%TO.P,SW10,2,2*%
%TO.N,Signal*%
X128100000Y-69100000D03*
X134600000Y-69100000D03*
%TD*%
D11*
%TO.P,R17,1*%
%TO.N,Signal*%
X112187500Y-42700000D03*
%TO.P,R17,2*%
%TO.N,GND*%
X114012500Y-42700000D03*
%TD*%
D10*
%TO.P,SW6,1,1*%
%TO.N,Net-(R5-Pad2)*%
X113200000Y-64600000D03*
X119700000Y-64600000D03*
%TO.P,SW6,2,2*%
%TO.N,Signal*%
X113200000Y-69100000D03*
X119700000Y-69100000D03*
%TD*%
%TO.P,SW2,1,1*%
%TO.N,Net-(R2-Pad2)*%
X98750000Y-64650000D03*
X105250000Y-64650000D03*
%TO.P,SW2,2,2*%
%TO.N,Signal*%
X98750000Y-69150000D03*
X105250000Y-69150000D03*
%TD*%
%TO.P,SW9,1,1*%
%TO.N,Net-(R12-Pad2)*%
X128050000Y-49550000D03*
X134550000Y-49550000D03*
%TO.P,SW9,2,2*%
%TO.N,Signal*%
X128050000Y-54050000D03*
X134550000Y-54050000D03*
%TD*%
%TO.P,SW16,1,1*%
%TO.N,Net-(R15-Pad2)*%
X143000000Y-94100000D03*
X149500000Y-94100000D03*
%TO.P,SW16,2,2*%
%TO.N,Signal*%
X143000000Y-98600000D03*
X149500000Y-98600000D03*
%TD*%
D11*
%TO.P,R10,1*%
%TO.N,VCC*%
X131175000Y-74900000D03*
%TO.P,R10,2*%
%TO.N,Net-(R10-Pad2)*%
X133000000Y-74900000D03*
%TD*%
%TO.P,R6,1*%
%TO.N,VCC*%
X116287500Y-75000000D03*
%TO.P,R6,2*%
%TO.N,Net-(R6-Pad2)*%
X118112500Y-75000000D03*
%TD*%
%TO.P,R4,1*%
%TO.N,VCC*%
X101475000Y-89900000D03*
%TO.P,R4,2*%
%TO.N,Net-(R4-Pad2)*%
X103300000Y-89900000D03*
%TD*%
D10*
%TO.P,SW14,1,1*%
%TO.N,Net-(R13-Pad2)*%
X143000000Y-64600000D03*
X149500000Y-64600000D03*
%TO.P,SW14,2,2*%
%TO.N,Signal*%
X143000000Y-69100000D03*
X149500000Y-69100000D03*
%TD*%
D11*
%TO.P,R9,1*%
%TO.N,VCC*%
X130875000Y-60100000D03*
%TO.P,R9,2*%
%TO.N,Net-(R9-Pad2)*%
X132700000Y-60100000D03*
%TD*%
D10*
%TO.P,SW5,1,1*%
%TO.N,Net-(R8-Pad2)*%
X113300000Y-49600000D03*
X119800000Y-49600000D03*
%TO.P,SW5,2,2*%
%TO.N,Signal*%
X113300000Y-54100000D03*
X119800000Y-54100000D03*
%TD*%
D14*
%TO.P,D1,1,K*%
%TO.N,Net-(D1-K)*%
X131060000Y-40100000D03*
D15*
%TO.P,D1,2,A*%
%TO.N,VCC*%
X133600000Y-40100000D03*
%TD*%
D11*
%TO.P,R16,1*%
%TO.N,VCC*%
X145987500Y-46000000D03*
%TO.P,R16,2*%
%TO.N,Net-(R16-Pad2)*%
X147812500Y-46000000D03*
%TD*%
%TO.P,R11,1*%
%TO.N,VCC*%
X130687500Y-89900000D03*
%TO.P,R11,2*%
%TO.N,Net-(R11-Pad2)*%
X132512500Y-89900000D03*
%TD*%
%TO.P,R1,1*%
%TO.N,VCC*%
X101387500Y-46200000D03*
%TO.P,R1,2*%
%TO.N,Net-(R1-Pad2)*%
X103212500Y-46200000D03*
%TD*%
D18*
%TO.P,R18,1*%
%TO.N,LEDs*%
X127600000Y-42512500D03*
%TO.P,R18,2*%
%TO.N,Net-(D1-K)*%
X127600000Y-40687500D03*
%TD*%
D11*
%TO.P,R13,1*%
%TO.N,VCC*%
X145387500Y-60200000D03*
%TO.P,R13,2*%
%TO.N,Net-(R13-Pad2)*%
X147212500Y-60200000D03*
%TD*%
D10*
%TO.P,SW8,1,1*%
%TO.N,Net-(R7-Pad2)*%
X113300000Y-94050000D03*
X119800000Y-94050000D03*
%TO.P,SW8,2,2*%
%TO.N,Signal*%
X113300000Y-98550000D03*
X119800000Y-98550000D03*
%TD*%
D19*
%TO.N,VCC*%
X117900000Y-44450000D03*
%TO.N,GND*%
X115300000Y-42700000D03*
%TD*%
D20*
%TO.N,VCC*%
X117900000Y-44503122D02*
X117900000Y-44450000D01*
X101275000Y-60100000D02*
X96800000Y-60100000D01*
X152050000Y-71650000D02*
X152050000Y-70600000D01*
X152050000Y-55450000D02*
X152050000Y-45900000D01*
X115587500Y-89512500D02*
X117800000Y-87300000D01*
X96800000Y-48000000D02*
X98600000Y-46200000D01*
X152000000Y-55950000D02*
X152050000Y-55900000D01*
X142800000Y-46000000D02*
X142500000Y-46000000D01*
X130687500Y-89900000D02*
X130687500Y-87337500D01*
X117800000Y-87300000D02*
X130650000Y-87300000D01*
X105050000Y-39200000D02*
X101387500Y-42862500D01*
X96800000Y-86800000D02*
X96800000Y-74950000D01*
X130875000Y-58925000D02*
X132100000Y-57700000D01*
X133000000Y-57700000D02*
X144100000Y-57700000D01*
X131175000Y-72675000D02*
X131200000Y-72650000D01*
X116287500Y-75000000D02*
X116287500Y-74212500D01*
X98600000Y-46200000D02*
X101387500Y-46200000D01*
X117953122Y-44450000D02*
X117953122Y-44450000D01*
X143087500Y-87300000D02*
X145787500Y-90000000D01*
X139500000Y-46000000D02*
X142500000Y-46000000D01*
X145387500Y-58987500D02*
X145387500Y-60200000D01*
X152050000Y-70600000D02*
X152050000Y-55450000D01*
X151050000Y-72650000D02*
X152050000Y-71650000D01*
X131200000Y-72650000D02*
X143437500Y-72650000D01*
X96800000Y-60100000D02*
X96800000Y-48000000D01*
X132637500Y-44450000D02*
X133700000Y-44450000D01*
X150650000Y-44500000D02*
X144300000Y-44500000D01*
X96800000Y-74950000D02*
X96800000Y-60100000D01*
X144100000Y-57700000D02*
X150250000Y-57700000D01*
X152050000Y-55900000D02*
X152050000Y-55450000D01*
X130875000Y-60100000D02*
X130875000Y-58925000D01*
X99900000Y-89900000D02*
X96800000Y-86800000D01*
X115587500Y-89900000D02*
X115587500Y-89512500D01*
X132100000Y-57700000D02*
X133000000Y-57700000D01*
X133700000Y-44450000D02*
X137950000Y-44450000D01*
X116287500Y-74212500D02*
X117850000Y-72650000D01*
X116103122Y-46300000D02*
X117900000Y-44503122D01*
X144300000Y-44500000D02*
X142800000Y-46000000D01*
X115987500Y-46300000D02*
X116103122Y-46300000D01*
X119400000Y-57700000D02*
X133000000Y-57700000D01*
X151150000Y-87300000D02*
X152050000Y-86400000D01*
X130987500Y-46100000D02*
X132637500Y-44450000D01*
X109060000Y-39200000D02*
X105050000Y-39200000D01*
X143437500Y-72650000D02*
X151050000Y-72650000D01*
X133600000Y-40100000D02*
X137950000Y-44450000D01*
X131175000Y-74900000D02*
X131175000Y-72675000D01*
X143087500Y-87300000D02*
X151150000Y-87300000D01*
X152050000Y-45900000D02*
X150650000Y-44500000D01*
X143437500Y-72650000D02*
X145687500Y-74900000D01*
X101387500Y-42862500D02*
X101387500Y-46200000D01*
X130687500Y-87337500D02*
X130650000Y-87300000D01*
X101475000Y-75000000D02*
X96850000Y-75000000D01*
X142500000Y-46000000D02*
X145987500Y-46000000D01*
X152050000Y-86400000D02*
X152050000Y-70600000D01*
X150250000Y-57700000D02*
X152050000Y-55900000D01*
X101475000Y-89900000D02*
X99900000Y-89900000D01*
X117953122Y-44450000D02*
X133700000Y-44450000D01*
X117900000Y-60100000D02*
X117900000Y-59200000D01*
X117900000Y-44450000D02*
X117953122Y-44450000D01*
X137950000Y-44450000D02*
X139500000Y-46000000D01*
X117900000Y-59200000D02*
X119400000Y-57700000D01*
X96850000Y-75000000D02*
X96800000Y-74950000D01*
X144100000Y-57700000D02*
X145387500Y-58987500D01*
X130650000Y-87300000D02*
X143087500Y-87300000D01*
X117850000Y-72650000D02*
X131200000Y-72650000D01*
%TO.N,Net-(D1-K)*%
X128187500Y-40100000D02*
X127600000Y-40687500D01*
X131060000Y-40100000D02*
X128187500Y-40100000D01*
%TO.N,GND*%
X114012500Y-42700000D02*
X115300000Y-42700000D01*
X115300000Y-42700000D02*
X115350000Y-42700000D01*
%TO.N,Net-(D2-A)*%
X146400000Y-40775000D02*
X143615000Y-40775000D01*
X143615000Y-40775000D02*
X142940000Y-40100000D01*
%TO.N,Signal*%
X113300000Y-54100000D02*
X104200000Y-54100000D01*
X134600000Y-69100000D02*
X128100000Y-69100000D01*
X113300000Y-98550000D02*
X109800000Y-98550000D01*
X111600000Y-42112500D02*
X112187500Y-42700000D01*
X111600000Y-39200000D02*
X111600000Y-42112500D01*
X109800000Y-45087500D02*
X109800000Y-98550000D01*
X134600000Y-54100000D02*
X134550000Y-54050000D01*
X149500000Y-69100000D02*
X143000000Y-69100000D01*
X134700000Y-98600000D02*
X134650000Y-98650000D01*
X119850000Y-54050000D02*
X119800000Y-54100000D01*
X128150000Y-98650000D02*
X119900000Y-98650000D01*
X149500000Y-54100000D02*
X143000000Y-54100000D01*
X149450000Y-83850000D02*
X142950000Y-83850000D01*
X149500000Y-98600000D02*
X143000000Y-98600000D01*
X104200000Y-54100000D02*
X98800000Y-54100000D01*
X134600000Y-69100000D02*
X143000000Y-69100000D01*
X105300000Y-54100000D02*
X104200000Y-54100000D01*
X105350000Y-83850000D02*
X98850000Y-83850000D01*
X119800000Y-98550000D02*
X113300000Y-98550000D01*
X119900000Y-98650000D02*
X119800000Y-98550000D01*
X105250000Y-69150000D02*
X98750000Y-69150000D01*
X134650000Y-98650000D02*
X128150000Y-98650000D01*
X134700000Y-83900000D02*
X128200000Y-83900000D01*
X143000000Y-98600000D02*
X134700000Y-98600000D01*
X143000000Y-54100000D02*
X134600000Y-54100000D01*
X105250000Y-69150000D02*
X105650000Y-69150000D01*
X119900000Y-83900000D02*
X119850000Y-83850000D01*
X105650000Y-69150000D02*
X105700000Y-69100000D01*
X128200000Y-83900000D02*
X119900000Y-83900000D01*
X109800000Y-98550000D02*
X105450000Y-98550000D01*
X134550000Y-54050000D02*
X128050000Y-54050000D01*
X128050000Y-54050000D02*
X119850000Y-54050000D01*
X105350000Y-98450000D02*
X98850000Y-98450000D01*
X119800000Y-54100000D02*
X113300000Y-54100000D01*
X105700000Y-69100000D02*
X113200000Y-69100000D01*
X142950000Y-83850000D02*
X142450000Y-83850000D01*
X119700000Y-69100000D02*
X113200000Y-69100000D01*
X142400000Y-83900000D02*
X134700000Y-83900000D01*
X112187500Y-42700000D02*
X109800000Y-45087500D01*
X119850000Y-83850000D02*
X113350000Y-83850000D01*
X113350000Y-83850000D02*
X105350000Y-83850000D01*
X105450000Y-98550000D02*
X105350000Y-98450000D01*
X119700000Y-69100000D02*
X128100000Y-69100000D01*
X142450000Y-83850000D02*
X142400000Y-83900000D01*
%TO.N,LEDs*%
X136800000Y-40550000D02*
X136800000Y-38350000D01*
X125550000Y-42050000D02*
X126012500Y-42512500D01*
X126012500Y-42512500D02*
X127600000Y-42512500D01*
X114140000Y-39200000D02*
X116240000Y-37100000D01*
X127250000Y-37100000D02*
X125550000Y-38800000D01*
X116240000Y-37100000D02*
X127700000Y-37100000D01*
X146400000Y-42600000D02*
X138850000Y-42600000D01*
X125550000Y-38800000D02*
X125550000Y-42050000D01*
X127700000Y-37100000D02*
X127250000Y-37100000D01*
X136800000Y-38350000D02*
X135550000Y-37100000D01*
X138850000Y-42600000D02*
X136800000Y-40550000D01*
X135550000Y-37100000D02*
X127700000Y-37100000D01*
%TO.N,Net-(R1-Pad2)*%
X103200000Y-49600000D02*
X105300000Y-49600000D01*
X103212500Y-49587500D02*
X103200000Y-49600000D01*
X103212500Y-46200000D02*
X103212500Y-49587500D01*
X98800000Y-49600000D02*
X103200000Y-49600000D01*
%TO.N,Net-(R2-Pad2)*%
X103100000Y-64550000D02*
X103000000Y-64650000D01*
X98750000Y-64650000D02*
X103000000Y-64650000D01*
X103100000Y-60100000D02*
X103100000Y-64550000D01*
X103000000Y-64650000D02*
X105250000Y-64650000D01*
%TO.N,Net-(R3-Pad2)*%
X103100000Y-79350000D02*
X105350000Y-79350000D01*
X103300000Y-79150000D02*
X103100000Y-79350000D01*
X98850000Y-79350000D02*
X103100000Y-79350000D01*
X103300000Y-75000000D02*
X103300000Y-79150000D01*
%TO.N,Net-(R4-Pad2)*%
X98850000Y-93950000D02*
X103350000Y-93950000D01*
X103350000Y-93950000D02*
X105350000Y-93950000D01*
X103300000Y-93900000D02*
X103350000Y-93950000D01*
X103300000Y-89900000D02*
X103300000Y-93900000D01*
%TO.N,Net-(R5-Pad2)*%
X116075000Y-60100000D02*
X116075000Y-64525000D01*
X113200000Y-64600000D02*
X116000000Y-64600000D01*
X116075000Y-64525000D02*
X116000000Y-64600000D01*
X116000000Y-64600000D02*
X119700000Y-64600000D01*
%TO.N,Net-(R6-Pad2)*%
X113350000Y-79350000D02*
X118050000Y-79350000D01*
X118112500Y-75000000D02*
X118112500Y-79287500D01*
X118050000Y-79350000D02*
X119850000Y-79350000D01*
X118112500Y-79287500D02*
X118050000Y-79350000D01*
%TO.N,Net-(R7-Pad2)*%
X117412500Y-89900000D02*
X117412500Y-93837500D01*
X117200000Y-94050000D02*
X119800000Y-94050000D01*
X117412500Y-93837500D02*
X117200000Y-94050000D01*
X113300000Y-94050000D02*
X117200000Y-94050000D01*
%TO.N,Net-(R8-Pad2)*%
X117812500Y-49537500D02*
X117750000Y-49600000D01*
X117750000Y-49600000D02*
X119800000Y-49600000D01*
X117812500Y-46300000D02*
X117812500Y-49537500D01*
X113300000Y-49600000D02*
X117750000Y-49600000D01*
%TO.N,Net-(R9-Pad2)*%
X128100000Y-64600000D02*
X132700000Y-64600000D01*
X132700000Y-60100000D02*
X132700000Y-64600000D01*
X132700000Y-64600000D02*
X134600000Y-64600000D01*
%TO.N,Net-(R10-Pad2)*%
X133000000Y-74900000D02*
X133000000Y-79400000D01*
X128200000Y-79400000D02*
X133000000Y-79400000D01*
X133000000Y-79400000D02*
X134700000Y-79400000D01*
%TO.N,Net-(R11-Pad2)*%
X132450000Y-94150000D02*
X134650000Y-94150000D01*
X132512500Y-94087500D02*
X132450000Y-94150000D01*
X132512500Y-89900000D02*
X132512500Y-94087500D01*
X128150000Y-94150000D02*
X132450000Y-94150000D01*
%TO.N,Net-(R12-Pad2)*%
X132812500Y-49487500D02*
X132750000Y-49550000D01*
X128050000Y-49550000D02*
X132750000Y-49550000D01*
X132812500Y-46100000D02*
X132812500Y-49487500D01*
X132750000Y-49550000D02*
X134550000Y-49550000D01*
%TO.N,Net-(R13-Pad2)*%
X147212500Y-64462500D02*
X147350000Y-64600000D01*
X143000000Y-64600000D02*
X147350000Y-64600000D01*
X147350000Y-64600000D02*
X149500000Y-64600000D01*
X147212500Y-60200000D02*
X147212500Y-64462500D01*
%TO.N,Net-(R14-Pad2)*%
X142950000Y-79350000D02*
X147700000Y-79350000D01*
X147512500Y-74900000D02*
X147512500Y-79162500D01*
X147512500Y-79162500D02*
X147700000Y-79350000D01*
X147700000Y-79350000D02*
X149450000Y-79350000D01*
%TO.N,Net-(R15-Pad2)*%
X143000000Y-94100000D02*
X147600000Y-94100000D01*
X147600000Y-94100000D02*
X149500000Y-94100000D01*
X147612500Y-94087500D02*
X147600000Y-94100000D01*
X147612500Y-90000000D02*
X147612500Y-94087500D01*
%TO.N,Net-(R16-Pad2)*%
X147900000Y-49600000D02*
X149500000Y-49600000D01*
X143000000Y-49600000D02*
X147900000Y-49600000D01*
X147812500Y-46000000D02*
X147812500Y-49512500D01*
X147812500Y-49512500D02*
X147900000Y-49600000D01*
%TD*%
M02*
