%TF.GenerationSoftware,KiCad,Pcbnew,8.0.6*%
%TF.CreationDate,2024-10-18T13:29:46-03:00*%
%TF.ProjectId,analog-keypad-16-keys,616e616c-6f67-42d6-9b65-797061642d31,rev?*%
%TF.SameCoordinates,Original*%
%TF.FileFunction,Soldermask,Bot*%
%TF.FilePolarity,Negative*%
%FSLAX46Y46*%
G04 Gerber Fmt 4.6, Leading zero omitted, Abs format (unit mm)*
G04 Created by KiCad (PCBNEW 8.0.6) date 2024-10-18 13:29:46*
%MOMM*%
%LPD*%
G01*
G04 APERTURE LIST*
%ADD10C,2.000000*%
%ADD11R,1.700000X1.700000*%
%ADD12O,1.700000X1.700000*%
%ADD13R,1.800000X1.800000*%
%ADD14C,1.800000*%
G04 APERTURE END LIST*
D10*
%TO.C,SW1*%
X98800000Y-49600000D03*
X105300000Y-49600000D03*
X98800000Y-54100000D03*
X105300000Y-54100000D03*
%TD*%
%TO.C,SW11*%
X128200000Y-79400000D03*
X134700000Y-79400000D03*
X128200000Y-83900000D03*
X134700000Y-83900000D03*
%TD*%
D11*
%TO.C,J1*%
X109060000Y-39200000D03*
D12*
X111600000Y-39200000D03*
X114140000Y-39200000D03*
X116680000Y-39200000D03*
%TD*%
D10*
%TO.C,SW4*%
X98850000Y-93950000D03*
X105350000Y-93950000D03*
X98850000Y-98450000D03*
X105350000Y-98450000D03*
%TD*%
%TO.C,SW15*%
X142950000Y-79350000D03*
X149450000Y-79350000D03*
X142950000Y-83850000D03*
X149450000Y-83850000D03*
%TD*%
D13*
%TO.C,D2*%
X140400000Y-40100000D03*
D14*
X142940000Y-40100000D03*
%TD*%
D10*
%TO.C,SW7*%
X113350000Y-79350000D03*
X119850000Y-79350000D03*
X113350000Y-83850000D03*
X119850000Y-83850000D03*
%TD*%
%TO.C,SW13*%
X143000000Y-49600000D03*
X149500000Y-49600000D03*
X143000000Y-54100000D03*
X149500000Y-54100000D03*
%TD*%
%TO.C,SW12*%
X128150000Y-94150000D03*
X134650000Y-94150000D03*
X128150000Y-98650000D03*
X134650000Y-98650000D03*
%TD*%
%TO.C,SW3*%
X98850000Y-79350000D03*
X105350000Y-79350000D03*
X98850000Y-83850000D03*
X105350000Y-83850000D03*
%TD*%
%TO.C,SW10*%
X128100000Y-64600000D03*
X134600000Y-64600000D03*
X128100000Y-69100000D03*
X134600000Y-69100000D03*
%TD*%
%TO.C,SW6*%
X113200000Y-64600000D03*
X119700000Y-64600000D03*
X113200000Y-69100000D03*
X119700000Y-69100000D03*
%TD*%
%TO.C,SW2*%
X98750000Y-64650000D03*
X105250000Y-64650000D03*
X98750000Y-69150000D03*
X105250000Y-69150000D03*
%TD*%
%TO.C,SW9*%
X128050000Y-49550000D03*
X134550000Y-49550000D03*
X128050000Y-54050000D03*
X134550000Y-54050000D03*
%TD*%
%TO.C,SW16*%
X143000000Y-94100000D03*
X149500000Y-94100000D03*
X143000000Y-98600000D03*
X149500000Y-98600000D03*
%TD*%
%TO.C,SW14*%
X143000000Y-64600000D03*
X149500000Y-64600000D03*
X143000000Y-69100000D03*
X149500000Y-69100000D03*
%TD*%
%TO.C,SW5*%
X113300000Y-49600000D03*
X119800000Y-49600000D03*
X113300000Y-54100000D03*
X119800000Y-54100000D03*
%TD*%
D13*
%TO.C,D1*%
X131060000Y-40100000D03*
D14*
X133600000Y-40100000D03*
%TD*%
D10*
%TO.C,SW8*%
X113300000Y-94050000D03*
X119800000Y-94050000D03*
X113300000Y-98550000D03*
X119800000Y-98550000D03*
%TD*%
M02*
