%TF.GenerationSoftware,KiCad,Pcbnew,8.0.6*%
%TF.CreationDate,2024-10-18T13:29:46-03:00*%
%TF.ProjectId,analog-keypad-16-keys,616e616c-6f67-42d6-9b65-797061642d31,rev?*%
%TF.SameCoordinates,Original*%
%TF.FileFunction,Soldermask,Top*%
%TF.FilePolarity,Negative*%
%FSLAX46Y46*%
G04 Gerber Fmt 4.6, Leading zero omitted, Abs format (unit mm)*
G04 Created by KiCad (PCBNEW 8.0.6) date 2024-10-18 13:29:46*
%MOMM*%
%LPD*%
G01*
G04 APERTURE LIST*
G04 Aperture macros list*
%AMRoundRect*
0 Rectangle with rounded corners*
0 $1 Rounding radius*
0 $2 $3 $4 $5 $6 $7 $8 $9 X,Y pos of 4 corners*
0 Add a 4 corners polygon primitive as box body*
4,1,4,$2,$3,$4,$5,$6,$7,$8,$9,$2,$3,0*
0 Add four circle primitives for the rounded corners*
1,1,$1+$1,$2,$3*
1,1,$1+$1,$4,$5*
1,1,$1+$1,$6,$7*
1,1,$1+$1,$8,$9*
0 Add four rect primitives between the rounded corners*
20,1,$1+$1,$2,$3,$4,$5,0*
20,1,$1+$1,$4,$5,$6,$7,0*
20,1,$1+$1,$6,$7,$8,$9,0*
20,1,$1+$1,$8,$9,$2,$3,0*%
G04 Aperture macros list end*
%ADD10C,2.000000*%
%ADD11RoundRect,0.250000X-0.262500X-0.450000X0.262500X-0.450000X0.262500X0.450000X-0.262500X0.450000X0*%
%ADD12R,1.700000X1.700000*%
%ADD13O,1.700000X1.700000*%
%ADD14R,1.800000X1.800000*%
%ADD15C,1.800000*%
%ADD16RoundRect,0.250000X0.262500X0.450000X-0.262500X0.450000X-0.262500X-0.450000X0.262500X-0.450000X0*%
%ADD17RoundRect,0.250000X-0.450000X0.262500X-0.450000X-0.262500X0.450000X-0.262500X0.450000X0.262500X0*%
%ADD18RoundRect,0.250000X0.450000X-0.262500X0.450000X0.262500X-0.450000X0.262500X-0.450000X-0.262500X0*%
G04 APERTURE END LIST*
D10*
%TO.C,SW1*%
X98800000Y-49600000D03*
X105300000Y-49600000D03*
X98800000Y-54100000D03*
X105300000Y-54100000D03*
%TD*%
%TO.C,SW11*%
X128200000Y-79400000D03*
X134700000Y-79400000D03*
X128200000Y-83900000D03*
X134700000Y-83900000D03*
%TD*%
D11*
%TO.C,R2*%
X101275000Y-60100000D03*
X103100000Y-60100000D03*
%TD*%
%TO.C,R3*%
X101475000Y-75000000D03*
X103300000Y-75000000D03*
%TD*%
D12*
%TO.C,J1*%
X109060000Y-39200000D03*
D13*
X111600000Y-39200000D03*
X114140000Y-39200000D03*
X116680000Y-39200000D03*
%TD*%
D11*
%TO.C,R8*%
X115987500Y-46300000D03*
X117812500Y-46300000D03*
%TD*%
D10*
%TO.C,SW4*%
X98850000Y-93950000D03*
X105350000Y-93950000D03*
X98850000Y-98450000D03*
X105350000Y-98450000D03*
%TD*%
%TO.C,SW15*%
X142950000Y-79350000D03*
X149450000Y-79350000D03*
X142950000Y-83850000D03*
X149450000Y-83850000D03*
%TD*%
D11*
%TO.C,R15*%
X145787500Y-90000000D03*
X147612500Y-90000000D03*
%TD*%
D14*
%TO.C,D2*%
X140400000Y-40100000D03*
D15*
X142940000Y-40100000D03*
%TD*%
D10*
%TO.C,SW7*%
X113350000Y-79350000D03*
X119850000Y-79350000D03*
X113350000Y-83850000D03*
X119850000Y-83850000D03*
%TD*%
D11*
%TO.C,R14*%
X145687500Y-74900000D03*
X147512500Y-74900000D03*
%TD*%
D16*
%TO.C,R5*%
X117900000Y-60100000D03*
X116075000Y-60100000D03*
%TD*%
D10*
%TO.C,SW13*%
X143000000Y-49600000D03*
X149500000Y-49600000D03*
X143000000Y-54100000D03*
X149500000Y-54100000D03*
%TD*%
D11*
%TO.C,R7*%
X115587500Y-89900000D03*
X117412500Y-89900000D03*
%TD*%
D10*
%TO.C,SW12*%
X128150000Y-94150000D03*
X134650000Y-94150000D03*
X128150000Y-98650000D03*
X134650000Y-98650000D03*
%TD*%
D17*
%TO.C,R19*%
X146400000Y-40775000D03*
X146400000Y-42600000D03*
%TD*%
D11*
%TO.C,R12*%
X130987500Y-46100000D03*
X132812500Y-46100000D03*
%TD*%
D10*
%TO.C,SW3*%
X98850000Y-79350000D03*
X105350000Y-79350000D03*
X98850000Y-83850000D03*
X105350000Y-83850000D03*
%TD*%
%TO.C,SW10*%
X128100000Y-64600000D03*
X134600000Y-64600000D03*
X128100000Y-69100000D03*
X134600000Y-69100000D03*
%TD*%
D11*
%TO.C,R17*%
X112187500Y-42700000D03*
X114012500Y-42700000D03*
%TD*%
D10*
%TO.C,SW6*%
X113200000Y-64600000D03*
X119700000Y-64600000D03*
X113200000Y-69100000D03*
X119700000Y-69100000D03*
%TD*%
%TO.C,SW2*%
X98750000Y-64650000D03*
X105250000Y-64650000D03*
X98750000Y-69150000D03*
X105250000Y-69150000D03*
%TD*%
%TO.C,SW9*%
X128050000Y-49550000D03*
X134550000Y-49550000D03*
X128050000Y-54050000D03*
X134550000Y-54050000D03*
%TD*%
%TO.C,SW16*%
X143000000Y-94100000D03*
X149500000Y-94100000D03*
X143000000Y-98600000D03*
X149500000Y-98600000D03*
%TD*%
D11*
%TO.C,R10*%
X131175000Y-74900000D03*
X133000000Y-74900000D03*
%TD*%
%TO.C,R6*%
X116287500Y-75000000D03*
X118112500Y-75000000D03*
%TD*%
%TO.C,R4*%
X101475000Y-89900000D03*
X103300000Y-89900000D03*
%TD*%
D10*
%TO.C,SW14*%
X143000000Y-64600000D03*
X149500000Y-64600000D03*
X143000000Y-69100000D03*
X149500000Y-69100000D03*
%TD*%
D11*
%TO.C,R9*%
X130875000Y-60100000D03*
X132700000Y-60100000D03*
%TD*%
D10*
%TO.C,SW5*%
X113300000Y-49600000D03*
X119800000Y-49600000D03*
X113300000Y-54100000D03*
X119800000Y-54100000D03*
%TD*%
D14*
%TO.C,D1*%
X131060000Y-40100000D03*
D15*
X133600000Y-40100000D03*
%TD*%
D11*
%TO.C,R16*%
X145987500Y-46000000D03*
X147812500Y-46000000D03*
%TD*%
%TO.C,R11*%
X130687500Y-89900000D03*
X132512500Y-89900000D03*
%TD*%
%TO.C,R1*%
X101387500Y-46200000D03*
X103212500Y-46200000D03*
%TD*%
D18*
%TO.C,R18*%
X127600000Y-42512500D03*
X127600000Y-40687500D03*
%TD*%
D11*
%TO.C,R13*%
X145387500Y-60200000D03*
X147212500Y-60200000D03*
%TD*%
D10*
%TO.C,SW8*%
X113300000Y-94050000D03*
X119800000Y-94050000D03*
X113300000Y-98550000D03*
X119800000Y-98550000D03*
%TD*%
M02*
