%TF.GenerationSoftware,KiCad,Pcbnew,8.0.6*%
%TF.CreationDate,2024-10-18T13:29:46-03:00*%
%TF.ProjectId,analog-keypad-16-keys,616e616c-6f67-42d6-9b65-797061642d31,rev?*%
%TF.SameCoordinates,Original*%
%TF.FileFunction,Legend,Top*%
%TF.FilePolarity,Positive*%
%FSLAX46Y46*%
G04 Gerber Fmt 4.6, Leading zero omitted, Abs format (unit mm)*
G04 Created by KiCad (PCBNEW 8.0.6) date 2024-10-18 13:29:46*
%MOMM*%
%LPD*%
G01*
G04 APERTURE LIST*
%ADD10C,0.125000*%
%ADD11C,0.187500*%
%ADD12C,0.150000*%
%ADD13C,0.120000*%
G04 APERTURE END LIST*
D10*
G36*
X108047304Y-37072500D02*
G01*
X107754579Y-36310462D01*
X107862840Y-36310462D01*
X108059211Y-36864588D01*
X108071895Y-36901428D01*
X108083361Y-36936935D01*
X108094674Y-36974823D01*
X108098778Y-36989518D01*
X108110306Y-36950477D01*
X108121598Y-36915341D01*
X108133760Y-36880204D01*
X108139445Y-36864588D01*
X108343510Y-36310462D01*
X108445542Y-36310462D01*
X108149886Y-37072500D01*
X108047304Y-37072500D01*
G37*
G36*
X109070010Y-36802855D02*
G01*
X109170027Y-36828135D01*
X109158956Y-36865726D01*
X109145434Y-36900420D01*
X109125972Y-36938227D01*
X109102981Y-36971861D01*
X109076461Y-37001322D01*
X109056821Y-37018644D01*
X109024971Y-37040931D01*
X108990558Y-37058606D01*
X108953581Y-37071671D01*
X108914042Y-37080124D01*
X108871939Y-37083967D01*
X108857336Y-37084223D01*
X108820267Y-37083002D01*
X108778725Y-37078314D01*
X108740390Y-37070109D01*
X108705262Y-37058389D01*
X108668332Y-37040270D01*
X108658583Y-37034214D01*
X108626908Y-37010197D01*
X108598722Y-36981902D01*
X108574024Y-36949329D01*
X108552815Y-36912478D01*
X108542262Y-36889501D01*
X108528691Y-36853428D01*
X108517928Y-36816377D01*
X108509972Y-36778346D01*
X108504824Y-36739337D01*
X108502485Y-36699349D01*
X108502329Y-36685802D01*
X108503913Y-36642358D01*
X108508665Y-36601052D01*
X108516587Y-36561884D01*
X108527676Y-36524854D01*
X108541935Y-36489962D01*
X108547391Y-36478806D01*
X108568930Y-36442211D01*
X108594114Y-36409684D01*
X108622945Y-36381223D01*
X108655423Y-36356830D01*
X108675619Y-36344717D01*
X108712872Y-36326801D01*
X108751704Y-36313286D01*
X108792113Y-36304171D01*
X108834100Y-36299457D01*
X108858801Y-36298738D01*
X108900053Y-36300793D01*
X108938769Y-36306956D01*
X108974946Y-36317227D01*
X109013947Y-36334404D01*
X109049494Y-36357173D01*
X109081070Y-36385018D01*
X109108158Y-36417420D01*
X109127804Y-36448822D01*
X109144153Y-36483572D01*
X109157205Y-36521671D01*
X109058653Y-36544935D01*
X109046053Y-36510261D01*
X109028862Y-36476000D01*
X109005965Y-36444299D01*
X108982449Y-36422203D01*
X108948689Y-36401917D01*
X108909920Y-36389144D01*
X108870746Y-36384073D01*
X108856786Y-36383735D01*
X108820077Y-36385751D01*
X108781451Y-36392992D01*
X108746375Y-36405500D01*
X108711156Y-36425867D01*
X108681025Y-36451841D01*
X108656371Y-36482365D01*
X108637194Y-36517438D01*
X108628907Y-36538890D01*
X108618569Y-36574622D01*
X108611185Y-36610926D01*
X108606754Y-36647803D01*
X108605277Y-36685252D01*
X108606618Y-36726625D01*
X108610641Y-36765630D01*
X108617347Y-36802269D01*
X108628295Y-36841244D01*
X108633304Y-36855062D01*
X108649344Y-36888962D01*
X108672014Y-36921653D01*
X108699582Y-36948578D01*
X108720682Y-36963323D01*
X108754835Y-36980679D01*
X108790523Y-36992354D01*
X108827748Y-36998350D01*
X108849092Y-36999227D01*
X108889438Y-36996135D01*
X108926578Y-36986862D01*
X108960513Y-36971406D01*
X108991242Y-36949767D01*
X109018009Y-36922038D01*
X109040060Y-36888310D01*
X109055485Y-36853876D01*
X109067298Y-36814850D01*
X109070010Y-36802855D01*
G37*
G36*
X109827651Y-36802855D02*
G01*
X109927669Y-36828135D01*
X109916597Y-36865726D01*
X109903075Y-36900420D01*
X109883613Y-36938227D01*
X109860623Y-36971861D01*
X109834103Y-37001322D01*
X109814462Y-37018644D01*
X109782612Y-37040931D01*
X109748199Y-37058606D01*
X109711223Y-37071671D01*
X109671683Y-37080124D01*
X109629581Y-37083967D01*
X109614977Y-37084223D01*
X109577908Y-37083002D01*
X109536366Y-37078314D01*
X109498031Y-37070109D01*
X109462903Y-37058389D01*
X109425974Y-37040270D01*
X109416224Y-37034214D01*
X109384549Y-37010197D01*
X109356363Y-36981902D01*
X109331665Y-36949329D01*
X109310457Y-36912478D01*
X109299904Y-36889501D01*
X109286332Y-36853428D01*
X109275569Y-36816377D01*
X109267613Y-36778346D01*
X109262466Y-36739337D01*
X109260126Y-36699349D01*
X109259970Y-36685802D01*
X109261554Y-36642358D01*
X109266307Y-36601052D01*
X109274228Y-36561884D01*
X109285318Y-36524854D01*
X109299576Y-36489962D01*
X109305033Y-36478806D01*
X109326571Y-36442211D01*
X109351756Y-36409684D01*
X109380587Y-36381223D01*
X109413064Y-36356830D01*
X109433260Y-36344717D01*
X109470514Y-36326801D01*
X109509345Y-36313286D01*
X109549754Y-36304171D01*
X109591741Y-36299457D01*
X109616442Y-36298738D01*
X109657695Y-36300793D01*
X109696410Y-36306956D01*
X109732588Y-36317227D01*
X109771588Y-36334404D01*
X109807135Y-36357173D01*
X109838711Y-36385018D01*
X109865799Y-36417420D01*
X109885445Y-36448822D01*
X109901794Y-36483572D01*
X109914846Y-36521671D01*
X109816294Y-36544935D01*
X109803694Y-36510261D01*
X109786504Y-36476000D01*
X109763606Y-36444299D01*
X109740090Y-36422203D01*
X109706330Y-36401917D01*
X109667562Y-36389144D01*
X109628387Y-36384073D01*
X109614427Y-36383735D01*
X109577718Y-36385751D01*
X109539093Y-36392992D01*
X109504016Y-36405500D01*
X109468797Y-36425867D01*
X109438666Y-36451841D01*
X109414012Y-36482365D01*
X109394836Y-36517438D01*
X109386549Y-36538890D01*
X109376210Y-36574622D01*
X109368826Y-36610926D01*
X109364395Y-36647803D01*
X109362918Y-36685252D01*
X109364259Y-36726625D01*
X109368283Y-36765630D01*
X109374988Y-36802269D01*
X109385936Y-36841244D01*
X109390945Y-36855062D01*
X109406985Y-36888962D01*
X109429655Y-36921653D01*
X109457223Y-36948578D01*
X109478323Y-36963323D01*
X109512476Y-36980679D01*
X109548165Y-36992354D01*
X109585390Y-36998350D01*
X109606734Y-36999227D01*
X109647079Y-36996135D01*
X109684220Y-36986862D01*
X109718154Y-36971406D01*
X109748883Y-36949767D01*
X109775650Y-36922038D01*
X109797701Y-36888310D01*
X109813126Y-36853876D01*
X109824939Y-36814850D01*
X109827651Y-36802855D01*
G37*
G36*
X110061941Y-37295249D02*
G01*
X110061941Y-36298738D01*
X110142725Y-36298738D01*
X110142725Y-37295249D01*
X110061941Y-37295249D01*
G37*
G36*
X110285057Y-36823005D02*
G01*
X110379213Y-36814579D01*
X110385950Y-36852746D01*
X110398040Y-36888655D01*
X110410354Y-36911666D01*
X110434742Y-36940086D01*
X110465143Y-36962081D01*
X110486374Y-36973032D01*
X110523382Y-36986277D01*
X110559618Y-36993547D01*
X110598322Y-36996273D01*
X110602329Y-36996296D01*
X110640041Y-36994283D01*
X110677578Y-36987495D01*
X110703262Y-36979260D01*
X110737382Y-36961774D01*
X110765730Y-36935865D01*
X110768475Y-36932182D01*
X110785198Y-36898763D01*
X110789907Y-36866786D01*
X110783358Y-36829440D01*
X110769207Y-36804321D01*
X110741959Y-36779591D01*
X110707072Y-36761559D01*
X110701247Y-36759258D01*
X110664387Y-36747407D01*
X110624630Y-36736652D01*
X110585653Y-36726845D01*
X110566791Y-36722255D01*
X110529963Y-36712879D01*
X110492532Y-36702200D01*
X110457052Y-36690339D01*
X110420978Y-36674628D01*
X110387073Y-36653254D01*
X110359662Y-36628676D01*
X110340378Y-36603553D01*
X110324192Y-36570374D01*
X110315477Y-36534310D01*
X110313817Y-36508665D01*
X110317648Y-36469904D01*
X110329142Y-36432961D01*
X110346240Y-36400954D01*
X110369517Y-36371945D01*
X110398590Y-36347659D01*
X110433459Y-36328096D01*
X110441128Y-36324750D01*
X110477278Y-36312176D01*
X110515658Y-36303717D01*
X110556271Y-36299373D01*
X110579797Y-36298738D01*
X110620509Y-36300444D01*
X110658749Y-36305562D01*
X110694515Y-36314091D01*
X110727808Y-36326032D01*
X110761525Y-36343325D01*
X110793482Y-36367332D01*
X110819642Y-36396384D01*
X110826360Y-36406083D01*
X110844868Y-36440530D01*
X110857115Y-36477696D01*
X110863100Y-36517581D01*
X110863546Y-36525884D01*
X110767742Y-36533211D01*
X110760487Y-36495219D01*
X110745561Y-36459598D01*
X110720794Y-36428433D01*
X110715352Y-36423668D01*
X110683381Y-36404155D01*
X110647510Y-36392772D01*
X110609981Y-36387569D01*
X110583827Y-36386666D01*
X110546506Y-36388270D01*
X110509606Y-36394031D01*
X110472111Y-36407126D01*
X110451570Y-36420188D01*
X110426342Y-36447150D01*
X110411626Y-36483555D01*
X110410170Y-36500788D01*
X110417544Y-36538157D01*
X110439663Y-36568199D01*
X110474319Y-36588189D01*
X110511962Y-36601744D01*
X110547829Y-36612031D01*
X110590239Y-36622421D01*
X110626441Y-36630899D01*
X110664961Y-36640637D01*
X110703112Y-36651395D01*
X110741422Y-36664273D01*
X110757484Y-36670964D01*
X110791840Y-36689462D01*
X110823589Y-36713039D01*
X110850703Y-36742652D01*
X110854754Y-36748450D01*
X110872692Y-36782379D01*
X110883184Y-36819684D01*
X110886261Y-36856528D01*
X110882880Y-36893744D01*
X110872737Y-36929600D01*
X110855832Y-36964097D01*
X110851639Y-36970833D01*
X110827164Y-37002053D01*
X110796785Y-37028622D01*
X110764397Y-37048557D01*
X110752538Y-37054364D01*
X110714890Y-37068798D01*
X110679284Y-37077662D01*
X110641663Y-37082794D01*
X110607091Y-37084223D01*
X110569789Y-37083148D01*
X110529215Y-37079174D01*
X110491815Y-37072273D01*
X110452958Y-37060802D01*
X110435083Y-37053632D01*
X110402328Y-37036424D01*
X110369940Y-37012495D01*
X110342275Y-36983726D01*
X110326456Y-36961857D01*
X110307259Y-36926064D01*
X110293973Y-36887720D01*
X110287126Y-36851496D01*
X110285057Y-36823005D01*
G37*
G36*
X111007527Y-36415975D02*
G01*
X111007527Y-36310462D01*
X111100218Y-36310462D01*
X111100218Y-36415975D01*
X111007527Y-36415975D01*
G37*
G36*
X111007527Y-37072500D02*
G01*
X111007527Y-36521488D01*
X111100218Y-36521488D01*
X111100218Y-37072500D01*
X111007527Y-37072500D01*
G37*
G36*
X111482068Y-36513481D02*
G01*
X111519572Y-36524630D01*
X111553815Y-36543213D01*
X111584797Y-36569229D01*
X111601038Y-36587433D01*
X111601038Y-36521488D01*
X111686584Y-36521488D01*
X111686584Y-36997212D01*
X111685949Y-37035564D01*
X111683510Y-37076745D01*
X111678353Y-37118116D01*
X111669412Y-37156596D01*
X111660572Y-37179295D01*
X111641345Y-37210640D01*
X111616179Y-37237584D01*
X111585073Y-37260127D01*
X111578140Y-37264108D01*
X111544346Y-37279162D01*
X111506437Y-37289288D01*
X111469285Y-37294154D01*
X111439288Y-37295249D01*
X111398289Y-37293145D01*
X111360884Y-37286834D01*
X111322536Y-37274469D01*
X111288882Y-37256609D01*
X111281202Y-37251285D01*
X111252228Y-37223152D01*
X111233108Y-37188006D01*
X111224384Y-37150877D01*
X111222950Y-37119394D01*
X111313075Y-37132766D01*
X111323791Y-37168716D01*
X111344583Y-37193400D01*
X111379555Y-37210931D01*
X111417233Y-37218144D01*
X111438738Y-37219045D01*
X111476158Y-37216523D01*
X111513459Y-37206837D01*
X111538206Y-37193217D01*
X111564508Y-37166654D01*
X111582184Y-37132168D01*
X111585650Y-37120860D01*
X111590429Y-37084024D01*
X111592039Y-37043030D01*
X111592245Y-37001425D01*
X111564280Y-37029119D01*
X111533440Y-37050011D01*
X111494675Y-37065559D01*
X111457674Y-37071875D01*
X111440936Y-37072500D01*
X111400412Y-37069621D01*
X111363467Y-37060985D01*
X111324892Y-37043633D01*
X111291189Y-37018444D01*
X111266181Y-36990617D01*
X111245201Y-36958765D01*
X111228562Y-36924620D01*
X111216264Y-36888182D01*
X111208306Y-36849452D01*
X111204689Y-36808430D01*
X111204448Y-36794246D01*
X111204757Y-36787468D01*
X111299703Y-36787468D01*
X111301203Y-36826205D01*
X111306747Y-36866172D01*
X111318084Y-36904958D01*
X111337216Y-36939806D01*
X111342384Y-36946287D01*
X111371268Y-36972659D01*
X111404337Y-36989263D01*
X111441593Y-36996100D01*
X111449546Y-36996296D01*
X111487481Y-36991448D01*
X111521373Y-36976904D01*
X111551223Y-36952665D01*
X111556707Y-36946653D01*
X111577694Y-36914164D01*
X111590582Y-36877790D01*
X111597408Y-36840179D01*
X111600079Y-36797167D01*
X111600122Y-36790582D01*
X111597983Y-36748576D01*
X111591566Y-36711357D01*
X111578996Y-36674680D01*
X111558175Y-36640891D01*
X111555425Y-36637625D01*
X111525816Y-36610384D01*
X111492628Y-36593232D01*
X111455863Y-36586170D01*
X111448080Y-36585968D01*
X111411208Y-36590923D01*
X111374863Y-36607820D01*
X111345654Y-36633587D01*
X111342934Y-36636709D01*
X111322036Y-36669149D01*
X111309202Y-36704529D01*
X111302405Y-36740539D01*
X111299745Y-36781265D01*
X111299703Y-36787468D01*
X111204757Y-36787468D01*
X111206211Y-36755629D01*
X111211501Y-36718546D01*
X111221666Y-36678661D01*
X111232658Y-36648982D01*
X111250644Y-36613881D01*
X111272657Y-36583591D01*
X111301841Y-36555577D01*
X111314907Y-36546034D01*
X111350391Y-36526907D01*
X111385448Y-36515750D01*
X111423460Y-36510331D01*
X111441303Y-36509764D01*
X111482068Y-36513481D01*
G37*
G36*
X111823970Y-37072500D02*
G01*
X111823970Y-36521488D01*
X111907318Y-36521488D01*
X111907318Y-36598790D01*
X111931805Y-36568535D01*
X111960066Y-36544540D01*
X111997807Y-36524457D01*
X112034244Y-36514024D01*
X112074455Y-36509851D01*
X112081524Y-36509764D01*
X112120380Y-36512727D01*
X112156575Y-36521615D01*
X112172383Y-36527716D01*
X112204735Y-36545437D01*
X112231835Y-36571014D01*
X112234481Y-36574610D01*
X112252959Y-36608464D01*
X112263424Y-36643487D01*
X112267426Y-36681942D01*
X112268508Y-36722346D01*
X112268553Y-36734162D01*
X112268553Y-37072500D01*
X112175863Y-37072500D01*
X112175863Y-36736543D01*
X112174343Y-36697749D01*
X112168169Y-36660703D01*
X112165055Y-36651181D01*
X112144963Y-36620197D01*
X112126587Y-36605935D01*
X112092603Y-36592159D01*
X112061924Y-36588899D01*
X112023151Y-36593379D01*
X111988187Y-36606821D01*
X111959708Y-36626817D01*
X111937007Y-36657189D01*
X111923765Y-36695934D01*
X111918174Y-36733542D01*
X111916660Y-36770982D01*
X111916660Y-37072500D01*
X111823970Y-37072500D01*
G37*
G36*
X112676603Y-36511083D02*
G01*
X112713175Y-36515641D01*
X112750308Y-36525408D01*
X112753070Y-36526434D01*
X112786925Y-36542507D01*
X112816062Y-36566456D01*
X112817367Y-36568016D01*
X112836713Y-36600480D01*
X112846310Y-36631580D01*
X112850013Y-36670484D01*
X112850871Y-36709880D01*
X112850889Y-36717493D01*
X112850889Y-36841873D01*
X112851032Y-36880182D01*
X112851582Y-36919990D01*
X112852744Y-36957935D01*
X112855377Y-36996267D01*
X112856751Y-37006371D01*
X112866431Y-37042186D01*
X112880382Y-37072500D01*
X112783478Y-37072500D01*
X112770502Y-37035985D01*
X112764977Y-37003257D01*
X112736312Y-37026135D01*
X112705143Y-37046728D01*
X112671683Y-37063514D01*
X112665692Y-37065905D01*
X112628993Y-37077068D01*
X112590336Y-37083078D01*
X112563476Y-37084223D01*
X112526036Y-37082093D01*
X112488120Y-37074442D01*
X112451678Y-37059184D01*
X112424808Y-37039710D01*
X112399305Y-37009474D01*
X112383248Y-36974408D01*
X112376636Y-36934513D01*
X112376448Y-36925954D01*
X112376771Y-36923023D01*
X112475366Y-36923023D01*
X112483276Y-36959550D01*
X112503393Y-36985854D01*
X112535515Y-37003868D01*
X112572535Y-37010558D01*
X112585642Y-37010950D01*
X112624196Y-37007627D01*
X112662125Y-36996527D01*
X112680896Y-36987320D01*
X112711173Y-36965099D01*
X112735596Y-36934745D01*
X112742262Y-36922290D01*
X112753044Y-36885899D01*
X112756916Y-36847164D01*
X112757283Y-36828501D01*
X112757283Y-36794063D01*
X112720765Y-36806181D01*
X112684466Y-36815025D01*
X112647539Y-36822144D01*
X112605792Y-36828684D01*
X112567615Y-36835287D01*
X112531299Y-36844973D01*
X112524825Y-36847552D01*
X112494387Y-36869792D01*
X112488189Y-36878143D01*
X112475817Y-36913910D01*
X112475366Y-36923023D01*
X112376771Y-36923023D01*
X112380473Y-36889399D01*
X112393639Y-36853867D01*
X112394766Y-36851765D01*
X112415877Y-36821448D01*
X112442576Y-36797909D01*
X112476226Y-36779097D01*
X112509438Y-36767135D01*
X112546296Y-36759505D01*
X112585086Y-36753879D01*
X112591870Y-36753030D01*
X112631899Y-36747766D01*
X112673341Y-36741170D01*
X112713770Y-36733029D01*
X112750412Y-36723105D01*
X112757283Y-36720790D01*
X112757650Y-36696610D01*
X112753966Y-36659095D01*
X112739001Y-36625314D01*
X112731454Y-36617292D01*
X112699933Y-36598204D01*
X112662484Y-36588446D01*
X112625758Y-36585968D01*
X112588231Y-36588114D01*
X112552030Y-36596358D01*
X112529221Y-36607950D01*
X112503569Y-36635964D01*
X112487067Y-36672224D01*
X112483060Y-36685619D01*
X112392384Y-36673162D01*
X112402810Y-36636949D01*
X112418429Y-36603320D01*
X112433051Y-36582121D01*
X112460262Y-36556503D01*
X112492733Y-36537578D01*
X112514933Y-36528632D01*
X112553846Y-36517890D01*
X112592715Y-36511993D01*
X112630542Y-36509838D01*
X112639314Y-36509764D01*
X112676603Y-36511083D01*
G37*
G36*
X112989741Y-37072500D02*
G01*
X112989741Y-36310462D01*
X113082615Y-36310462D01*
X113082615Y-37072500D01*
X112989741Y-37072500D01*
G37*
G36*
X113252241Y-37295249D02*
G01*
X113252241Y-36298738D01*
X113333025Y-36298738D01*
X113333025Y-37295249D01*
X113252241Y-37295249D01*
G37*
G36*
X113505216Y-37072500D02*
G01*
X113505216Y-36310462D01*
X113605233Y-36310462D01*
X113605233Y-36984572D01*
X113977093Y-36984572D01*
X113977093Y-37072500D01*
X113505216Y-37072500D01*
G37*
G36*
X114095429Y-37072500D02*
G01*
X114095429Y-36310462D01*
X114641495Y-36310462D01*
X114641495Y-36398389D01*
X114195263Y-36398389D01*
X114195263Y-36638724D01*
X114613101Y-36638724D01*
X114613101Y-36726652D01*
X114195263Y-36726652D01*
X114195263Y-36984572D01*
X114659080Y-36984572D01*
X114659080Y-37072500D01*
X114095429Y-37072500D01*
G37*
G36*
X115094733Y-36311149D02*
G01*
X115135118Y-36313564D01*
X115172241Y-36318286D01*
X115187744Y-36321453D01*
X115226412Y-36333238D01*
X115261360Y-36349817D01*
X115292587Y-36371191D01*
X115298386Y-36376041D01*
X115326436Y-36403278D01*
X115350684Y-36434064D01*
X115371132Y-36468399D01*
X115387779Y-36506284D01*
X115399342Y-36541992D01*
X115408065Y-36579874D01*
X115413948Y-36619930D01*
X115416990Y-36662160D01*
X115417454Y-36687267D01*
X115416490Y-36724308D01*
X115413027Y-36764322D01*
X115407045Y-36801863D01*
X115397304Y-36841140D01*
X115385160Y-36877027D01*
X115369525Y-36912619D01*
X115349723Y-36946563D01*
X115345830Y-36952149D01*
X115321487Y-36982494D01*
X115293196Y-37009438D01*
X115277137Y-37021392D01*
X115244204Y-37039787D01*
X115209244Y-37053225D01*
X115186828Y-37059494D01*
X115148696Y-37066898D01*
X115110800Y-37070963D01*
X115074063Y-37072449D01*
X115065561Y-37072500D01*
X114792986Y-37072500D01*
X114792986Y-36984572D01*
X114893004Y-36984572D01*
X115054204Y-36984572D01*
X115093694Y-36983456D01*
X115131590Y-36979600D01*
X115168753Y-36971335D01*
X115171441Y-36970467D01*
X115205331Y-36955916D01*
X115235991Y-36933877D01*
X115239218Y-36930717D01*
X115263656Y-36900148D01*
X115282164Y-36865972D01*
X115294539Y-36833630D01*
X115304191Y-36797275D01*
X115310684Y-36756833D01*
X115313804Y-36717455D01*
X115314506Y-36685802D01*
X115313134Y-36642572D01*
X115309019Y-36603284D01*
X115300750Y-36562429D01*
X115288748Y-36526939D01*
X115275488Y-36500788D01*
X115252310Y-36467791D01*
X115226467Y-36441547D01*
X115194625Y-36420305D01*
X115180966Y-36414143D01*
X115143975Y-36404543D01*
X115107170Y-36400251D01*
X115067935Y-36398528D01*
X115051639Y-36398389D01*
X114893004Y-36398389D01*
X114893004Y-36984572D01*
X114792986Y-36984572D01*
X114792986Y-36310462D01*
X115053288Y-36310462D01*
X115094733Y-36311149D01*
G37*
G36*
X115501718Y-36910933D02*
G01*
X115593492Y-36896645D01*
X115603126Y-36933507D01*
X115622284Y-36965477D01*
X115636357Y-36979260D01*
X115669708Y-36997881D01*
X115708704Y-37006643D01*
X115735092Y-37008019D01*
X115771829Y-37005461D01*
X115807412Y-36995638D01*
X115829980Y-36981824D01*
X115853199Y-36953156D01*
X115860938Y-36919909D01*
X115849105Y-36884074D01*
X115833461Y-36869900D01*
X115797244Y-36854752D01*
X115761016Y-36844055D01*
X115738756Y-36838210D01*
X115702696Y-36828769D01*
X115666194Y-36818373D01*
X115628072Y-36805985D01*
X115597339Y-36793513D01*
X115564602Y-36772685D01*
X115538911Y-36743548D01*
X115537622Y-36741489D01*
X115522372Y-36706410D01*
X115517288Y-36667850D01*
X115521993Y-36630423D01*
X115533958Y-36599890D01*
X115555133Y-36569658D01*
X115579570Y-36548049D01*
X115612743Y-36529903D01*
X115638555Y-36520938D01*
X115674756Y-36512918D01*
X115713291Y-36509808D01*
X115718606Y-36509764D01*
X115757349Y-36511553D01*
X115796372Y-36517653D01*
X115831629Y-36528082D01*
X115867017Y-36545112D01*
X115895728Y-36568253D01*
X115903620Y-36577725D01*
X115922210Y-36611760D01*
X115933112Y-36648811D01*
X115935493Y-36661622D01*
X115844818Y-36673895D01*
X115832865Y-36637030D01*
X115809098Y-36609232D01*
X115775924Y-36592534D01*
X115738512Y-36586331D01*
X115725383Y-36585968D01*
X115685760Y-36588479D01*
X115650095Y-36597920D01*
X115634159Y-36607217D01*
X115610703Y-36636641D01*
X115606864Y-36657042D01*
X115618222Y-36689649D01*
X115647914Y-36712009D01*
X115653759Y-36714562D01*
X115689342Y-36725431D01*
X115727358Y-36736093D01*
X115735642Y-36738375D01*
X115775829Y-36749460D01*
X115814781Y-36761012D01*
X115849707Y-36772585D01*
X115872845Y-36781606D01*
X115905721Y-36800746D01*
X115932626Y-36828527D01*
X115934028Y-36830516D01*
X115949937Y-36863990D01*
X115955998Y-36901407D01*
X115956193Y-36910200D01*
X115951718Y-36947246D01*
X115938295Y-36982478D01*
X115929082Y-36998128D01*
X115905486Y-37026300D01*
X115875089Y-37049270D01*
X115851046Y-37061692D01*
X115814434Y-37074520D01*
X115778370Y-37081561D01*
X115739658Y-37084201D01*
X115735642Y-37084223D01*
X115697446Y-37082690D01*
X115657394Y-37077028D01*
X115617566Y-37065447D01*
X115584081Y-37048417D01*
X115573159Y-37040626D01*
X115544920Y-37012667D01*
X115523056Y-36978042D01*
X115508974Y-36941669D01*
X115501718Y-36910933D01*
G37*
G36*
X116090832Y-37295249D02*
G01*
X116090832Y-36298738D01*
X116171615Y-36298738D01*
X116171615Y-37295249D01*
X116090832Y-37295249D01*
G37*
G36*
X116701378Y-36773546D02*
G01*
X116701378Y-36685619D01*
X117021214Y-36685069D01*
X117021214Y-36966987D01*
X116988769Y-36991167D01*
X116955868Y-37012577D01*
X116922511Y-37031218D01*
X116888699Y-37047089D01*
X116869173Y-37054914D01*
X116829800Y-37067737D01*
X116789900Y-37076896D01*
X116749474Y-37082391D01*
X116708522Y-37084223D01*
X116667533Y-37082542D01*
X116627962Y-37077500D01*
X116589807Y-37069096D01*
X116553069Y-37057330D01*
X116517748Y-37042202D01*
X116506289Y-37036413D01*
X116473782Y-37016914D01*
X116444405Y-36994415D01*
X116414087Y-36964373D01*
X116391491Y-36935372D01*
X116372025Y-36903369D01*
X116369085Y-36897744D01*
X116353335Y-36862994D01*
X116340844Y-36826749D01*
X116331611Y-36789011D01*
X116325637Y-36749778D01*
X116322921Y-36709052D01*
X116322740Y-36695144D01*
X116324357Y-36654100D01*
X116329206Y-36614086D01*
X116337288Y-36575103D01*
X116348603Y-36537150D01*
X116363151Y-36500227D01*
X116368719Y-36488148D01*
X116387446Y-36453830D01*
X116409008Y-36423001D01*
X116433402Y-36395664D01*
X116465444Y-36368181D01*
X116501343Y-36345450D01*
X116534756Y-36329575D01*
X116570010Y-36316985D01*
X116607107Y-36307679D01*
X116646045Y-36301658D01*
X116686825Y-36298921D01*
X116700828Y-36298738D01*
X116740785Y-36300375D01*
X116778772Y-36305287D01*
X116814790Y-36313473D01*
X116848839Y-36324933D01*
X116883865Y-36341305D01*
X116917446Y-36363337D01*
X116945410Y-36389412D01*
X116952704Y-36398023D01*
X116974499Y-36430105D01*
X116991057Y-36463720D01*
X117004716Y-36501827D01*
X117009856Y-36520205D01*
X116919731Y-36544935D01*
X116907045Y-36508669D01*
X116890983Y-36475722D01*
X116877416Y-36455542D01*
X116851284Y-36429501D01*
X116819548Y-36409778D01*
X116805425Y-36403335D01*
X116768812Y-36391391D01*
X116729313Y-36384960D01*
X116701378Y-36383735D01*
X116664304Y-36385416D01*
X116626544Y-36391226D01*
X116589182Y-36402411D01*
X116582859Y-36404984D01*
X116548057Y-36422801D01*
X116516460Y-36446347D01*
X116502076Y-36460854D01*
X116479487Y-36489984D01*
X116460233Y-36523924D01*
X116454631Y-36536692D01*
X116441969Y-36573076D01*
X116432924Y-36610972D01*
X116427498Y-36650379D01*
X116425689Y-36691297D01*
X116426912Y-36728594D01*
X116431433Y-36769143D01*
X116439284Y-36806502D01*
X116452336Y-36845291D01*
X116460493Y-36863122D01*
X116479865Y-36895431D01*
X116506365Y-36926469D01*
X116537850Y-36951884D01*
X116561610Y-36965704D01*
X116595373Y-36980370D01*
X116634587Y-36991861D01*
X116675106Y-36998048D01*
X116702843Y-36999227D01*
X116743165Y-36996758D01*
X116782842Y-36989352D01*
X116818001Y-36978465D01*
X116829605Y-36973948D01*
X116865369Y-36957826D01*
X116897931Y-36939349D01*
X116923394Y-36920092D01*
X116923394Y-36773546D01*
X116701378Y-36773546D01*
G37*
G36*
X117163180Y-37072500D02*
G01*
X117163180Y-36310462D01*
X117265579Y-36310462D01*
X117662351Y-36908735D01*
X117662351Y-36310462D01*
X117758155Y-36310462D01*
X117758155Y-37072500D01*
X117655757Y-37072500D01*
X117258984Y-36473677D01*
X117258984Y-37072500D01*
X117163180Y-37072500D01*
G37*
G36*
X118223484Y-36311149D02*
G01*
X118263869Y-36313564D01*
X118300992Y-36318286D01*
X118316495Y-36321453D01*
X118355163Y-36333238D01*
X118390111Y-36349817D01*
X118421338Y-36371191D01*
X118427137Y-36376041D01*
X118455186Y-36403278D01*
X118479435Y-36434064D01*
X118499883Y-36468399D01*
X118516530Y-36506284D01*
X118528093Y-36541992D01*
X118536815Y-36579874D01*
X118542698Y-36619930D01*
X118545741Y-36662160D01*
X118546205Y-36687267D01*
X118545241Y-36724308D01*
X118541778Y-36764322D01*
X118535795Y-36801863D01*
X118526055Y-36841140D01*
X118513911Y-36877027D01*
X118498276Y-36912619D01*
X118478474Y-36946563D01*
X118474581Y-36952149D01*
X118450238Y-36982494D01*
X118421947Y-37009438D01*
X118405887Y-37021392D01*
X118372955Y-37039787D01*
X118337995Y-37053225D01*
X118315579Y-37059494D01*
X118277447Y-37066898D01*
X118239551Y-37070963D01*
X118202814Y-37072449D01*
X118194312Y-37072500D01*
X117921737Y-37072500D01*
X117921737Y-36984572D01*
X118021755Y-36984572D01*
X118182955Y-36984572D01*
X118222445Y-36983456D01*
X118260341Y-36979600D01*
X118297504Y-36971335D01*
X118300191Y-36970467D01*
X118334082Y-36955916D01*
X118364742Y-36933877D01*
X118367969Y-36930717D01*
X118392406Y-36900148D01*
X118410915Y-36865972D01*
X118423290Y-36833630D01*
X118432942Y-36797275D01*
X118439435Y-36756833D01*
X118442555Y-36717455D01*
X118443257Y-36685802D01*
X118441885Y-36642572D01*
X118437770Y-36603284D01*
X118429501Y-36562429D01*
X118417499Y-36526939D01*
X118404239Y-36500788D01*
X118381061Y-36467791D01*
X118355218Y-36441547D01*
X118323375Y-36420305D01*
X118309717Y-36414143D01*
X118272726Y-36404543D01*
X118235921Y-36400251D01*
X118196686Y-36398528D01*
X118180390Y-36398389D01*
X118021755Y-36398389D01*
X118021755Y-36984572D01*
X117921737Y-36984572D01*
X117921737Y-36310462D01*
X118182039Y-36310462D01*
X118223484Y-36311149D01*
G37*
D11*
G36*
X100293580Y-85827242D02*
G01*
X100370425Y-85846195D01*
X100443271Y-85877783D01*
X100482013Y-85900792D01*
X100546001Y-85950872D01*
X100600715Y-86011675D01*
X100641564Y-86074724D01*
X100667393Y-86127571D01*
X100692089Y-86198317D01*
X100710720Y-86281684D01*
X100721861Y-86363189D01*
X100727741Y-86438194D01*
X100730527Y-86519638D01*
X100730774Y-86554019D01*
X100729236Y-86641814D01*
X100724620Y-86723849D01*
X100716928Y-86800124D01*
X100703636Y-86884050D01*
X100685913Y-86959681D01*
X100667759Y-87016371D01*
X100637406Y-87087777D01*
X100595503Y-87159768D01*
X100545906Y-87221500D01*
X100488616Y-87272975D01*
X100480914Y-87278688D01*
X100416159Y-87317957D01*
X100346092Y-87346007D01*
X100270712Y-87362837D01*
X100190020Y-87368447D01*
X100115546Y-87363661D01*
X100038031Y-87346470D01*
X99968622Y-87316778D01*
X99907319Y-87274583D01*
X99900226Y-87268429D01*
X99849760Y-87213177D01*
X99810467Y-87147804D01*
X99782349Y-87072310D01*
X99766911Y-86997951D01*
X99765404Y-86986695D01*
X99943824Y-86969842D01*
X99961834Y-87043766D01*
X99994120Y-87114246D01*
X100029919Y-87157787D01*
X100092891Y-87197608D01*
X100169607Y-87215129D01*
X100194050Y-87216039D01*
X100269490Y-87207587D01*
X100339843Y-87179938D01*
X100343893Y-87177571D01*
X100402512Y-87132691D01*
X100449406Y-87074989D01*
X100485240Y-87004637D01*
X100509617Y-86934098D01*
X100518649Y-86900966D01*
X100534502Y-86825222D01*
X100543774Y-86748613D01*
X100546493Y-86678217D01*
X100545394Y-86641580D01*
X100497910Y-86699798D01*
X100438988Y-86749154D01*
X100393353Y-86777135D01*
X100325248Y-86806754D01*
X100253420Y-86824078D01*
X100184891Y-86829159D01*
X100105578Y-86822637D01*
X100031770Y-86803072D01*
X99963466Y-86770464D01*
X99900667Y-86724813D01*
X99867254Y-86692871D01*
X99816719Y-86628930D01*
X99778596Y-86556679D01*
X99752886Y-86476119D01*
X99740727Y-86400453D01*
X99738109Y-86344459D01*
X99928070Y-86344459D01*
X99934967Y-86423133D01*
X99958810Y-86500284D01*
X99999682Y-86566630D01*
X100015265Y-86584427D01*
X100073697Y-86633114D01*
X100147064Y-86665842D01*
X100222025Y-86676661D01*
X100229954Y-86676751D01*
X100306046Y-86667735D01*
X100379334Y-86636991D01*
X100436493Y-86590107D01*
X100441713Y-86584427D01*
X100485569Y-86519784D01*
X100511152Y-86449736D01*
X100523578Y-86368444D01*
X100524877Y-86328705D01*
X100519565Y-86251219D01*
X100500889Y-86174119D01*
X100468766Y-86107684D01*
X100439881Y-86069319D01*
X100383395Y-86018701D01*
X100313492Y-85984674D01*
X100235450Y-85973332D01*
X100161168Y-85983421D01*
X100093111Y-86013689D01*
X100031280Y-86064136D01*
X100019661Y-86076646D01*
X99975386Y-86139601D01*
X99945601Y-86212234D01*
X99931290Y-86284923D01*
X99928070Y-86344459D01*
X99738109Y-86344459D01*
X99737561Y-86332735D01*
X99742326Y-86249474D01*
X99756623Y-86172525D01*
X99780451Y-86101887D01*
X99820297Y-86027452D01*
X99873115Y-85961608D01*
X99935699Y-85906791D01*
X100004839Y-85865437D01*
X100080536Y-85837548D01*
X100162789Y-85823122D01*
X100212735Y-85820924D01*
X100293580Y-85827242D01*
G37*
G36*
X101468265Y-86899501D02*
G01*
X101468265Y-86711922D01*
X102037962Y-86711922D01*
X102037962Y-86899501D01*
X101468265Y-86899501D01*
G37*
G36*
X102856786Y-87345000D02*
G01*
X102856786Y-85820924D01*
X103875645Y-85820924D01*
X103875645Y-85996779D01*
X103056454Y-85996779D01*
X103056454Y-86477449D01*
X103765369Y-86477449D01*
X103765369Y-86653304D01*
X103056454Y-86653304D01*
X103056454Y-87345000D01*
X102856786Y-87345000D01*
G37*
G36*
X104054431Y-86947861D02*
G01*
X104239811Y-86922948D01*
X104258541Y-86995373D01*
X104286291Y-87063879D01*
X104329811Y-87128953D01*
X104348255Y-87147529D01*
X104410646Y-87189278D01*
X104482413Y-87211757D01*
X104535467Y-87216039D01*
X104613434Y-87207166D01*
X104683387Y-87180548D01*
X104745325Y-87136183D01*
X104756751Y-87125181D01*
X104804278Y-87064173D01*
X104834203Y-86994721D01*
X104846525Y-86916826D01*
X104846877Y-86900233D01*
X104838719Y-86824721D01*
X104810903Y-86751822D01*
X104763346Y-86689574D01*
X104700593Y-86642225D01*
X104627191Y-86614531D01*
X104551221Y-86606409D01*
X104475257Y-86614423D01*
X104420062Y-86626926D01*
X104440945Y-86452170D01*
X104470621Y-86454002D01*
X104549371Y-86446815D01*
X104622407Y-86425256D01*
X104683845Y-86393185D01*
X104737868Y-86343581D01*
X104771227Y-86271694D01*
X104778733Y-86205607D01*
X104767305Y-86129728D01*
X104729438Y-86060726D01*
X104709490Y-86039277D01*
X104646877Y-85996580D01*
X104570961Y-85975650D01*
X104531437Y-85973332D01*
X104455428Y-85982811D01*
X104384480Y-86014476D01*
X104351186Y-86040743D01*
X104304320Y-86100781D01*
X104274122Y-86172471D01*
X104258496Y-86242976D01*
X104073115Y-86210003D01*
X104092016Y-86132896D01*
X104119227Y-86063784D01*
X104160500Y-85994587D01*
X104212627Y-85935831D01*
X104227355Y-85922773D01*
X104291308Y-85878214D01*
X104362635Y-85846386D01*
X104441334Y-85827290D01*
X104516245Y-85821024D01*
X104527407Y-85820924D01*
X104602676Y-85826076D01*
X104681092Y-85843644D01*
X104754919Y-85873681D01*
X104820651Y-85914540D01*
X104874780Y-85964576D01*
X104913921Y-86018028D01*
X104947633Y-86088044D01*
X104965785Y-86161254D01*
X104969242Y-86211835D01*
X104960596Y-86288173D01*
X104934657Y-86358828D01*
X104916852Y-86389521D01*
X104865881Y-86449032D01*
X104803911Y-86494413D01*
X104761147Y-86516650D01*
X104831820Y-86539470D01*
X104899197Y-86577266D01*
X104954838Y-86628156D01*
X104969242Y-86645976D01*
X105008462Y-86712172D01*
X105033156Y-86788028D01*
X105042961Y-86864558D01*
X105043614Y-86891807D01*
X105036707Y-86976109D01*
X105015985Y-87054626D01*
X104981449Y-87127357D01*
X104933098Y-87194304D01*
X104899267Y-87229961D01*
X104842470Y-87277025D01*
X104769468Y-87319625D01*
X104689208Y-87348972D01*
X104614638Y-87363578D01*
X104534734Y-87368447D01*
X104450926Y-87362854D01*
X104373568Y-87346077D01*
X104302663Y-87318115D01*
X104238208Y-87278968D01*
X104204274Y-87251577D01*
X104152274Y-87196972D01*
X104111038Y-87135741D01*
X104080567Y-87067883D01*
X104060859Y-86993399D01*
X104054431Y-86947861D01*
G37*
G36*
X114962456Y-57419145D02*
G01*
X114962456Y-57595000D01*
X113963747Y-57595000D01*
X113969685Y-57521197D01*
X113985362Y-57466039D01*
X114017177Y-57396156D01*
X114055417Y-57333301D01*
X114102529Y-57271091D01*
X114107728Y-57264905D01*
X114160832Y-57206623D01*
X114217962Y-57150730D01*
X114275614Y-57098668D01*
X114340419Y-57043660D01*
X114350261Y-57035561D01*
X114409315Y-56985959D01*
X114476112Y-56927675D01*
X114535109Y-56873524D01*
X114595611Y-56813997D01*
X114652001Y-56752069D01*
X114682920Y-56712794D01*
X114724893Y-56646833D01*
X114755418Y-56575921D01*
X114769409Y-56500811D01*
X114769748Y-56487480D01*
X114758620Y-56408895D01*
X114725235Y-56340202D01*
X114690614Y-56299902D01*
X114630833Y-56256308D01*
X114559796Y-56230809D01*
X114485450Y-56223332D01*
X114406867Y-56231525D01*
X114332493Y-56259463D01*
X114270760Y-56307229D01*
X114224950Y-56372571D01*
X114199534Y-56445271D01*
X114189874Y-56521531D01*
X114189427Y-56539870D01*
X113998918Y-56519720D01*
X114010012Y-56441234D01*
X114028731Y-56370089D01*
X114060207Y-56296366D01*
X114102061Y-56232635D01*
X114146196Y-56185963D01*
X114206325Y-56141138D01*
X114274835Y-56107323D01*
X114351723Y-56084518D01*
X114424298Y-56073733D01*
X114489480Y-56070924D01*
X114567769Y-56075187D01*
X114651064Y-56090938D01*
X114725699Y-56118294D01*
X114791673Y-56157256D01*
X114833496Y-56192191D01*
X114882888Y-56248015D01*
X114924482Y-56318597D01*
X114950231Y-56396415D01*
X114959763Y-56470442D01*
X114960258Y-56492609D01*
X114954151Y-56566246D01*
X114935830Y-56638915D01*
X114923255Y-56672128D01*
X114888599Y-56739413D01*
X114844702Y-56803444D01*
X114800157Y-56857508D01*
X114742715Y-56918064D01*
X114685576Y-56973096D01*
X114627921Y-57025792D01*
X114562254Y-57083589D01*
X114514026Y-57124954D01*
X114455701Y-57174916D01*
X114398237Y-57225097D01*
X114341098Y-57276788D01*
X114299703Y-57317295D01*
X114251751Y-57374405D01*
X114221667Y-57419145D01*
X114962456Y-57419145D01*
G37*
G36*
X115718265Y-57149501D02*
G01*
X115718265Y-56961922D01*
X116287962Y-56961922D01*
X116287962Y-57149501D01*
X115718265Y-57149501D01*
G37*
G36*
X117421859Y-56492976D02*
G01*
X117746458Y-56492976D01*
X117836217Y-56047477D01*
X117991556Y-56047477D01*
X117902163Y-56492976D01*
X118080216Y-56492976D01*
X118080216Y-56645383D01*
X117871022Y-56645383D01*
X117793719Y-57032264D01*
X118080216Y-57032264D01*
X118080216Y-57184672D01*
X117762944Y-57184672D01*
X117673185Y-57618447D01*
X117518946Y-57618447D01*
X117607240Y-57184672D01*
X117283740Y-57184672D01*
X117194347Y-57618447D01*
X117039741Y-57618447D01*
X117129134Y-57184672D01*
X116955111Y-57184672D01*
X116955111Y-57032264D01*
X117160275Y-57032264D01*
X117314881Y-57032264D01*
X117638381Y-57032264D01*
X117715683Y-56645383D01*
X117391085Y-56645383D01*
X117314881Y-57032264D01*
X117160275Y-57032264D01*
X117236479Y-56645383D01*
X116955111Y-56645383D01*
X116955111Y-56492976D01*
X117267254Y-56492976D01*
X117357013Y-56047477D01*
X117511618Y-56047477D01*
X117421859Y-56492976D01*
G37*
G36*
X118887683Y-57595000D02*
G01*
X118702302Y-57595000D01*
X118702302Y-56407247D01*
X118646146Y-56455881D01*
X118584350Y-56500463D01*
X118526448Y-56536939D01*
X118460624Y-56574091D01*
X118393259Y-56607685D01*
X118331175Y-56633660D01*
X118331175Y-56446081D01*
X118397420Y-56412890D01*
X118468535Y-56371393D01*
X118534750Y-56326096D01*
X118596064Y-56276997D01*
X118603384Y-56270593D01*
X118657377Y-56219508D01*
X118707937Y-56162968D01*
X118751472Y-56101301D01*
X118768248Y-56070924D01*
X118887683Y-56070924D01*
X118887683Y-57595000D01*
G37*
G36*
X113186217Y-102395000D02*
G01*
X113000837Y-102395000D01*
X113000837Y-101207247D01*
X112944680Y-101255881D01*
X112882884Y-101300463D01*
X112824982Y-101336939D01*
X112759158Y-101374091D01*
X112691793Y-101407685D01*
X112629710Y-101433660D01*
X112629710Y-101246081D01*
X112695955Y-101212890D01*
X112767070Y-101171393D01*
X112833284Y-101126096D01*
X112894599Y-101076997D01*
X112901919Y-101070593D01*
X112955911Y-101019508D01*
X113006472Y-100962968D01*
X113050006Y-100901301D01*
X113066782Y-100870924D01*
X113186217Y-100870924D01*
X113186217Y-102395000D01*
G37*
G36*
X114435519Y-101855711D02*
G01*
X114639584Y-101855711D01*
X114639584Y-102025704D01*
X114435519Y-102025704D01*
X114435519Y-102395000D01*
X114250139Y-102395000D01*
X114250139Y-102025704D01*
X113594713Y-102025704D01*
X113594713Y-101855711D01*
X113777163Y-101855711D01*
X114250139Y-101855711D01*
X114250139Y-101170610D01*
X113777163Y-101855711D01*
X113594713Y-101855711D01*
X114284211Y-100870924D01*
X114435519Y-100870924D01*
X114435519Y-101855711D01*
G37*
G36*
X115386235Y-101949501D02*
G01*
X115386235Y-101761922D01*
X115955931Y-101761922D01*
X115955931Y-101949501D01*
X115386235Y-101949501D01*
G37*
G36*
X116768527Y-102395000D02*
G01*
X116768527Y-100870924D01*
X117860659Y-100870924D01*
X117860659Y-101046779D01*
X116968196Y-101046779D01*
X116968196Y-101527449D01*
X117803872Y-101527449D01*
X117803872Y-101703304D01*
X116968196Y-101703304D01*
X116968196Y-102219145D01*
X117895830Y-102219145D01*
X117895830Y-102395000D01*
X116768527Y-102395000D01*
G37*
G36*
X118095865Y-101896011D02*
G01*
X118284176Y-101879159D01*
X118297651Y-101955493D01*
X118321831Y-102027311D01*
X118346458Y-102073332D01*
X118395234Y-102130173D01*
X118456036Y-102174162D01*
X118498499Y-102196064D01*
X118572515Y-102222554D01*
X118644987Y-102237094D01*
X118722395Y-102242547D01*
X118730408Y-102242592D01*
X118805833Y-102238566D01*
X118880906Y-102224990D01*
X118932274Y-102208520D01*
X119000516Y-102173548D01*
X119057210Y-102121730D01*
X119062700Y-102114364D01*
X119096146Y-102047527D01*
X119105565Y-101983572D01*
X119092466Y-101908881D01*
X119064166Y-101858642D01*
X119009669Y-101809183D01*
X118939895Y-101773119D01*
X118928244Y-101768517D01*
X118854524Y-101744815D01*
X118775010Y-101723305D01*
X118697056Y-101703690D01*
X118659333Y-101694511D01*
X118585677Y-101675758D01*
X118510814Y-101654400D01*
X118439854Y-101630678D01*
X118367707Y-101599256D01*
X118299898Y-101556508D01*
X118245075Y-101507353D01*
X118206507Y-101457107D01*
X118174135Y-101390749D01*
X118156704Y-101318621D01*
X118153384Y-101267330D01*
X118161047Y-101189808D01*
X118184034Y-101115922D01*
X118218230Y-101051908D01*
X118264785Y-100993891D01*
X118322931Y-100945319D01*
X118392669Y-100906192D01*
X118408007Y-100899501D01*
X118480306Y-100874352D01*
X118557067Y-100857434D01*
X118638292Y-100848747D01*
X118685345Y-100847477D01*
X118766769Y-100850889D01*
X118843248Y-100861124D01*
X118914781Y-100878183D01*
X118981367Y-100902065D01*
X119048800Y-100936651D01*
X119112714Y-100984665D01*
X119165035Y-101042768D01*
X119178471Y-101062166D01*
X119215487Y-101131060D01*
X119239980Y-101205392D01*
X119251952Y-101285162D01*
X119252843Y-101301769D01*
X119061235Y-101316423D01*
X119046725Y-101240438D01*
X119016872Y-101169197D01*
X118967340Y-101106866D01*
X118956454Y-101097337D01*
X118892512Y-101058311D01*
X118820771Y-101035545D01*
X118745712Y-101025138D01*
X118693405Y-101023332D01*
X118618763Y-101026540D01*
X118544963Y-101038063D01*
X118469973Y-101064252D01*
X118428890Y-101090376D01*
X118378435Y-101144301D01*
X118349002Y-101217110D01*
X118346092Y-101251577D01*
X118360838Y-101326315D01*
X118405076Y-101386399D01*
X118474388Y-101426378D01*
X118549676Y-101453489D01*
X118621409Y-101474063D01*
X118706228Y-101494842D01*
X118778633Y-101511799D01*
X118855672Y-101531274D01*
X118931975Y-101552790D01*
X119008595Y-101578546D01*
X119040718Y-101591929D01*
X119109430Y-101628924D01*
X119172928Y-101676079D01*
X119227156Y-101735305D01*
X119235258Y-101746901D01*
X119271134Y-101814758D01*
X119292119Y-101889368D01*
X119298272Y-101963056D01*
X119291510Y-102037488D01*
X119271224Y-102109201D01*
X119237414Y-102178195D01*
X119229030Y-102191667D01*
X119180078Y-102254107D01*
X119119321Y-102307244D01*
X119054544Y-102347114D01*
X119030826Y-102358729D01*
X118955530Y-102387597D01*
X118884318Y-102405325D01*
X118809076Y-102415589D01*
X118739933Y-102418447D01*
X118665328Y-102416296D01*
X118584182Y-102408349D01*
X118509381Y-102394547D01*
X118431666Y-102371604D01*
X118395917Y-102357264D01*
X118330407Y-102322849D01*
X118265630Y-102274990D01*
X118210301Y-102217452D01*
X118178663Y-102173715D01*
X118140268Y-102102128D01*
X118113696Y-102025441D01*
X118100004Y-101952992D01*
X118095865Y-101896011D01*
G37*
G36*
X120640997Y-101855711D02*
G01*
X120841032Y-101906270D01*
X120818889Y-101981453D01*
X120791845Y-102050840D01*
X120752922Y-102126454D01*
X120706940Y-102193722D01*
X120653900Y-102252644D01*
X120614619Y-102287288D01*
X120550919Y-102331862D01*
X120482093Y-102367213D01*
X120408140Y-102393342D01*
X120329061Y-102410249D01*
X120244856Y-102417934D01*
X120215648Y-102418447D01*
X120141512Y-102416005D01*
X120058427Y-102406628D01*
X119981757Y-102390219D01*
X119911501Y-102366778D01*
X119837642Y-102330541D01*
X119818143Y-102318429D01*
X119754793Y-102270394D01*
X119698421Y-102213804D01*
X119649026Y-102148658D01*
X119606608Y-102074957D01*
X119585502Y-102029002D01*
X119558360Y-101956856D01*
X119536833Y-101882754D01*
X119520922Y-101806693D01*
X119510626Y-101728674D01*
X119505947Y-101648698D01*
X119505635Y-101621605D01*
X119508803Y-101534716D01*
X119518308Y-101452104D01*
X119534151Y-101373768D01*
X119556330Y-101299708D01*
X119584846Y-101229924D01*
X119595760Y-101207613D01*
X119638837Y-101134423D01*
X119689206Y-101069368D01*
X119746868Y-101012447D01*
X119811823Y-100963660D01*
X119852215Y-100939434D01*
X119926722Y-100903603D01*
X120004385Y-100876573D01*
X120085203Y-100858343D01*
X120169177Y-100848914D01*
X120218579Y-100847477D01*
X120301084Y-100851586D01*
X120378515Y-100863912D01*
X120450870Y-100884455D01*
X120528871Y-100918809D01*
X120599965Y-100964347D01*
X120663117Y-101020036D01*
X120717293Y-101084841D01*
X120756585Y-101147644D01*
X120789283Y-101217144D01*
X120815387Y-101293342D01*
X120618283Y-101339870D01*
X120593083Y-101270522D01*
X120558702Y-101202001D01*
X120512907Y-101138599D01*
X120465875Y-101094406D01*
X120398355Y-101053834D01*
X120320818Y-101028289D01*
X120242469Y-101018146D01*
X120214549Y-101017470D01*
X120141132Y-101021502D01*
X120063880Y-101035985D01*
X119993727Y-101061001D01*
X119923290Y-101101734D01*
X119863028Y-101153682D01*
X119813720Y-101214730D01*
X119775366Y-101284877D01*
X119758792Y-101327780D01*
X119738116Y-101399244D01*
X119723346Y-101471853D01*
X119714485Y-101545607D01*
X119711531Y-101620505D01*
X119714214Y-101703250D01*
X119722260Y-101781261D01*
X119735672Y-101854538D01*
X119757568Y-101932488D01*
X119767585Y-101960125D01*
X119799665Y-102027925D01*
X119845006Y-102093307D01*
X119900142Y-102147156D01*
X119942341Y-102176646D01*
X120010647Y-102211358D01*
X120082024Y-102234709D01*
X120156474Y-102246701D01*
X120199162Y-102248454D01*
X120279854Y-102242271D01*
X120354134Y-102223724D01*
X120422003Y-102192812D01*
X120483461Y-102149535D01*
X120536996Y-102094077D01*
X120581097Y-102026620D01*
X120611947Y-101957753D01*
X120635573Y-101879700D01*
X120640997Y-101855711D01*
G37*
G36*
X139054605Y-45095000D02*
G01*
X139054605Y-43570924D01*
X139254640Y-43570924D01*
X139254640Y-44919145D01*
X139998360Y-44919145D01*
X139998360Y-45095000D01*
X139054605Y-45095000D01*
G37*
G36*
X140235031Y-45095000D02*
G01*
X140235031Y-43570924D01*
X141327163Y-43570924D01*
X141327163Y-43746779D01*
X140434699Y-43746779D01*
X140434699Y-44227449D01*
X141270376Y-44227449D01*
X141270376Y-44403304D01*
X140434699Y-44403304D01*
X140434699Y-44919145D01*
X141362334Y-44919145D01*
X141362334Y-45095000D01*
X140235031Y-45095000D01*
G37*
G36*
X142233640Y-43572298D02*
G01*
X142314410Y-43577128D01*
X142388656Y-43586573D01*
X142419661Y-43592906D01*
X142496998Y-43616476D01*
X142566894Y-43649635D01*
X142629347Y-43692382D01*
X142640945Y-43702083D01*
X142697045Y-43756556D01*
X142745542Y-43818128D01*
X142786437Y-43886799D01*
X142819731Y-43962568D01*
X142842857Y-44033984D01*
X142860303Y-44109749D01*
X142872069Y-44189861D01*
X142878154Y-44274321D01*
X142879082Y-44324535D01*
X142877153Y-44398617D01*
X142870227Y-44478645D01*
X142858263Y-44553726D01*
X142838782Y-44632281D01*
X142814493Y-44704055D01*
X142783224Y-44775239D01*
X142743620Y-44843127D01*
X142735833Y-44854298D01*
X142687147Y-44914989D01*
X142630566Y-44968876D01*
X142598447Y-44992784D01*
X142532582Y-45029574D01*
X142462661Y-45056450D01*
X142417829Y-45068988D01*
X142341566Y-45083797D01*
X142265774Y-45091926D01*
X142192301Y-45094898D01*
X142175296Y-45095000D01*
X141630146Y-45095000D01*
X141630146Y-44919145D01*
X141830181Y-44919145D01*
X142152581Y-44919145D01*
X142231562Y-44916913D01*
X142307353Y-44909200D01*
X142381679Y-44892670D01*
X142387055Y-44890935D01*
X142454835Y-44861833D01*
X142516155Y-44817755D01*
X142522609Y-44811434D01*
X142571485Y-44750297D01*
X142608503Y-44681944D01*
X142633251Y-44617260D01*
X142652555Y-44544550D01*
X142665542Y-44463667D01*
X142671781Y-44384910D01*
X142673185Y-44321605D01*
X142670442Y-44235145D01*
X142662211Y-44156569D01*
X142645675Y-44074859D01*
X142621669Y-44003878D01*
X142595150Y-43951577D01*
X142548794Y-43885583D01*
X142497107Y-43833094D01*
X142433423Y-43790611D01*
X142406106Y-43778286D01*
X142332123Y-43759087D01*
X142258514Y-43750502D01*
X142180043Y-43747056D01*
X142147452Y-43746779D01*
X141830181Y-43746779D01*
X141830181Y-44919145D01*
X141630146Y-44919145D01*
X141630146Y-43570924D01*
X142150750Y-43570924D01*
X142233640Y-43572298D01*
G37*
G36*
X144628471Y-44919145D02*
G01*
X144628471Y-45095000D01*
X143629762Y-45095000D01*
X143635700Y-45021197D01*
X143651378Y-44966039D01*
X143683193Y-44896156D01*
X143721432Y-44833301D01*
X143768544Y-44771091D01*
X143773743Y-44764905D01*
X143826848Y-44706623D01*
X143883978Y-44650730D01*
X143941630Y-44598668D01*
X144006435Y-44543660D01*
X144016277Y-44535561D01*
X144075330Y-44485959D01*
X144142127Y-44427675D01*
X144201124Y-44373524D01*
X144261626Y-44313997D01*
X144318016Y-44252069D01*
X144348935Y-44212794D01*
X144390908Y-44146833D01*
X144421434Y-44075921D01*
X144435424Y-44000811D01*
X144435764Y-43987480D01*
X144424635Y-43908895D01*
X144391250Y-43840202D01*
X144356629Y-43799902D01*
X144296848Y-43756308D01*
X144225811Y-43730809D01*
X144151465Y-43723332D01*
X144072883Y-43731525D01*
X143998509Y-43759463D01*
X143936775Y-43807229D01*
X143890966Y-43872571D01*
X143865549Y-43945271D01*
X143855889Y-44021531D01*
X143855443Y-44039870D01*
X143664933Y-44019720D01*
X143676027Y-43941234D01*
X143694746Y-43870089D01*
X143726222Y-43796366D01*
X143768076Y-43732635D01*
X143812212Y-43685963D01*
X143872341Y-43641138D01*
X143940850Y-43607323D01*
X144017739Y-43584518D01*
X144090313Y-43573733D01*
X144155495Y-43570924D01*
X144233784Y-43575187D01*
X144317079Y-43590938D01*
X144391714Y-43618294D01*
X144457689Y-43657256D01*
X144499511Y-43692191D01*
X144548904Y-43748015D01*
X144590497Y-43818597D01*
X144616246Y-43896415D01*
X144625778Y-43970442D01*
X144626273Y-43992609D01*
X144620166Y-44066246D01*
X144601845Y-44138915D01*
X144589270Y-44172128D01*
X144554614Y-44239413D01*
X144510717Y-44303444D01*
X144466172Y-44357508D01*
X144408730Y-44418064D01*
X144351591Y-44473096D01*
X144293936Y-44525792D01*
X144228270Y-44583589D01*
X144180041Y-44624954D01*
X144121716Y-44674916D01*
X144064252Y-44725097D01*
X144007113Y-44776788D01*
X143965718Y-44817295D01*
X143917766Y-44874405D01*
X143887683Y-44919145D01*
X144628471Y-44919145D01*
G37*
G36*
X114896309Y-71125815D02*
G01*
X114974373Y-71143384D01*
X115044331Y-71173729D01*
X115106184Y-71216851D01*
X115113346Y-71223140D01*
X115164614Y-71278942D01*
X115204479Y-71344498D01*
X115232941Y-71419809D01*
X115248491Y-71493707D01*
X115250000Y-71504874D01*
X115065718Y-71519528D01*
X115044149Y-71443554D01*
X115011691Y-71376795D01*
X114995376Y-71355397D01*
X114934102Y-71305389D01*
X114862936Y-71278461D01*
X114809996Y-71273332D01*
X114736556Y-71282658D01*
X114667052Y-71313350D01*
X114654291Y-71322058D01*
X114598465Y-71372221D01*
X114551384Y-71436063D01*
X114516172Y-71505973D01*
X114491735Y-71581917D01*
X114476388Y-71663095D01*
X114467880Y-71744682D01*
X114464244Y-71822456D01*
X114463782Y-71849989D01*
X114513382Y-71789633D01*
X114569994Y-71741053D01*
X114627547Y-71707107D01*
X114701598Y-71678531D01*
X114778122Y-71663143D01*
X114830512Y-71660212D01*
X114909112Y-71666769D01*
X114982382Y-71686439D01*
X115050322Y-71719222D01*
X115112933Y-71765118D01*
X115146318Y-71797233D01*
X115197139Y-71860858D01*
X115235477Y-71932162D01*
X115261332Y-72011145D01*
X115273560Y-72084956D01*
X115276744Y-72150774D01*
X115271875Y-72229374D01*
X115257270Y-72304845D01*
X115232926Y-72377185D01*
X115215195Y-72416022D01*
X115177128Y-72480332D01*
X115126266Y-72541182D01*
X115066389Y-72590871D01*
X115046667Y-72603600D01*
X114976979Y-72637797D01*
X114901639Y-72659328D01*
X114820645Y-72668194D01*
X114803768Y-72668447D01*
X114719816Y-72662432D01*
X114641892Y-72644387D01*
X114569996Y-72614312D01*
X114504128Y-72572207D01*
X114444287Y-72518073D01*
X114425680Y-72497355D01*
X114376002Y-72425403D01*
X114342455Y-72353538D01*
X114316045Y-72270850D01*
X114300057Y-72196907D01*
X114292870Y-72146011D01*
X114492725Y-72146011D01*
X114499436Y-72224099D01*
X114519571Y-72299405D01*
X114533391Y-72333224D01*
X114571753Y-72398841D01*
X114624968Y-72453819D01*
X114646964Y-72469511D01*
X114717267Y-72502908D01*
X114790791Y-72515858D01*
X114800837Y-72516039D01*
X114877584Y-72504610D01*
X114946626Y-72470324D01*
X115002704Y-72419319D01*
X115047333Y-72352071D01*
X115073366Y-72279924D01*
X115085268Y-72206548D01*
X115087334Y-72156270D01*
X115082113Y-72080638D01*
X115063759Y-72005680D01*
X115027867Y-71934969D01*
X115003803Y-71904577D01*
X114947374Y-71856084D01*
X114875550Y-71823486D01*
X114801390Y-71812710D01*
X114793510Y-71812620D01*
X114718691Y-71821600D01*
X114644986Y-71852223D01*
X114585795Y-71898920D01*
X114580286Y-71904577D01*
X114534111Y-71967668D01*
X114505038Y-72041993D01*
X114493494Y-72118490D01*
X114492725Y-72146011D01*
X114292870Y-72146011D01*
X114288637Y-72116038D01*
X114281785Y-72028242D01*
X114279501Y-71933520D01*
X114280921Y-71853263D01*
X114285181Y-71777217D01*
X114295279Y-71682375D01*
X114310425Y-71595020D01*
X114330621Y-71515152D01*
X114355866Y-71442772D01*
X114394522Y-71362827D01*
X114441067Y-71294581D01*
X114497413Y-71235565D01*
X114560662Y-71188759D01*
X114630815Y-71154163D01*
X114707872Y-71131778D01*
X114791832Y-71121602D01*
X114821353Y-71120924D01*
X114896309Y-71125815D01*
G37*
G36*
X116018265Y-72199501D02*
G01*
X116018265Y-72011922D01*
X116587962Y-72011922D01*
X116587962Y-72199501D01*
X116018265Y-72199501D01*
G37*
G36*
X117721859Y-71542976D02*
G01*
X118046458Y-71542976D01*
X118136217Y-71097477D01*
X118291556Y-71097477D01*
X118202163Y-71542976D01*
X118380216Y-71542976D01*
X118380216Y-71695383D01*
X118171022Y-71695383D01*
X118093719Y-72082264D01*
X118380216Y-72082264D01*
X118380216Y-72234672D01*
X118062944Y-72234672D01*
X117973185Y-72668447D01*
X117818946Y-72668447D01*
X117907240Y-72234672D01*
X117583740Y-72234672D01*
X117494347Y-72668447D01*
X117339741Y-72668447D01*
X117429134Y-72234672D01*
X117255111Y-72234672D01*
X117255111Y-72082264D01*
X117460275Y-72082264D01*
X117614881Y-72082264D01*
X117938381Y-72082264D01*
X118015683Y-71695383D01*
X117691085Y-71695383D01*
X117614881Y-72082264D01*
X117460275Y-72082264D01*
X117536479Y-71695383D01*
X117255111Y-71695383D01*
X117255111Y-71542976D01*
X117567254Y-71542976D01*
X117657013Y-71097477D01*
X117811618Y-71097477D01*
X117721859Y-71542976D01*
G37*
G36*
X119269016Y-72105711D02*
G01*
X119473080Y-72105711D01*
X119473080Y-72275704D01*
X119269016Y-72275704D01*
X119269016Y-72645000D01*
X119083635Y-72645000D01*
X119083635Y-72275704D01*
X118428210Y-72275704D01*
X118428210Y-72105711D01*
X118610659Y-72105711D01*
X119083635Y-72105711D01*
X119083635Y-71420610D01*
X118610659Y-72105711D01*
X118428210Y-72105711D01*
X119117707Y-71120924D01*
X119269016Y-71120924D01*
X119269016Y-72105711D01*
G37*
G36*
X128988660Y-57147861D02*
G01*
X129174040Y-57122948D01*
X129192770Y-57195373D01*
X129220520Y-57263879D01*
X129264040Y-57328953D01*
X129282484Y-57347529D01*
X129344874Y-57389278D01*
X129416642Y-57411757D01*
X129469696Y-57416039D01*
X129547663Y-57407166D01*
X129617616Y-57380548D01*
X129679554Y-57336183D01*
X129690980Y-57325181D01*
X129738507Y-57264173D01*
X129768432Y-57194721D01*
X129780754Y-57116826D01*
X129781106Y-57100233D01*
X129772948Y-57024721D01*
X129745132Y-56951822D01*
X129697575Y-56889574D01*
X129634822Y-56842225D01*
X129561420Y-56814531D01*
X129485450Y-56806409D01*
X129409486Y-56814423D01*
X129354291Y-56826926D01*
X129375174Y-56652170D01*
X129404849Y-56654002D01*
X129483600Y-56646815D01*
X129556636Y-56625256D01*
X129618073Y-56593185D01*
X129672097Y-56543581D01*
X129705456Y-56471694D01*
X129712962Y-56405607D01*
X129701534Y-56329728D01*
X129663667Y-56260726D01*
X129643719Y-56239277D01*
X129581106Y-56196580D01*
X129505190Y-56175650D01*
X129465666Y-56173332D01*
X129389657Y-56182811D01*
X129318709Y-56214476D01*
X129285415Y-56240743D01*
X129238549Y-56300781D01*
X129208351Y-56372471D01*
X129192725Y-56442976D01*
X129007344Y-56410003D01*
X129026245Y-56332896D01*
X129053456Y-56263784D01*
X129094729Y-56194587D01*
X129146856Y-56135831D01*
X129161584Y-56122773D01*
X129225537Y-56078214D01*
X129296864Y-56046386D01*
X129375563Y-56027290D01*
X129450474Y-56021024D01*
X129461636Y-56020924D01*
X129536905Y-56026076D01*
X129615321Y-56043644D01*
X129689148Y-56073681D01*
X129754880Y-56114540D01*
X129809009Y-56164576D01*
X129848150Y-56218028D01*
X129881861Y-56288044D01*
X129900014Y-56361254D01*
X129903471Y-56411835D01*
X129894825Y-56488173D01*
X129868886Y-56558828D01*
X129851081Y-56589521D01*
X129800110Y-56649032D01*
X129738140Y-56694413D01*
X129695376Y-56716650D01*
X129766049Y-56739470D01*
X129833426Y-56777266D01*
X129889067Y-56828156D01*
X129903471Y-56845976D01*
X129942691Y-56912172D01*
X129967385Y-56988028D01*
X129977190Y-57064558D01*
X129977843Y-57091807D01*
X129970936Y-57176109D01*
X129950214Y-57254626D01*
X129915678Y-57327357D01*
X129867327Y-57394304D01*
X129833496Y-57429961D01*
X129776699Y-57477025D01*
X129703697Y-57519625D01*
X129623437Y-57548972D01*
X129548866Y-57563578D01*
X129468963Y-57568447D01*
X129385155Y-57562854D01*
X129307797Y-57546077D01*
X129236891Y-57518115D01*
X129172437Y-57478968D01*
X129138503Y-57451577D01*
X129086503Y-57396972D01*
X129045267Y-57335741D01*
X129014796Y-57267883D01*
X128995088Y-57193399D01*
X128988660Y-57147861D01*
G37*
G36*
X130718265Y-57099501D02*
G01*
X130718265Y-56911922D01*
X131287962Y-56911922D01*
X131287962Y-57099501D01*
X130718265Y-57099501D01*
G37*
G36*
X132421859Y-56442976D02*
G01*
X132746458Y-56442976D01*
X132836217Y-55997477D01*
X132991556Y-55997477D01*
X132902163Y-56442976D01*
X133080216Y-56442976D01*
X133080216Y-56595383D01*
X132871022Y-56595383D01*
X132793719Y-56982264D01*
X133080216Y-56982264D01*
X133080216Y-57134672D01*
X132762944Y-57134672D01*
X132673185Y-57568447D01*
X132518946Y-57568447D01*
X132607240Y-57134672D01*
X132283740Y-57134672D01*
X132194347Y-57568447D01*
X132039741Y-57568447D01*
X132129134Y-57134672D01*
X131955111Y-57134672D01*
X131955111Y-56982264D01*
X132160275Y-56982264D01*
X132314881Y-56982264D01*
X132638381Y-56982264D01*
X132715683Y-56595383D01*
X132391085Y-56595383D01*
X132314881Y-56982264D01*
X132160275Y-56982264D01*
X132236479Y-56595383D01*
X131955111Y-56595383D01*
X131955111Y-56442976D01*
X132267254Y-56442976D01*
X132357013Y-55997477D01*
X132511618Y-55997477D01*
X132421859Y-56442976D01*
G37*
G36*
X134163921Y-57369145D02*
G01*
X134163921Y-57545000D01*
X133165212Y-57545000D01*
X133171150Y-57471197D01*
X133186828Y-57416039D01*
X133218643Y-57346156D01*
X133256882Y-57283301D01*
X133303994Y-57221091D01*
X133309193Y-57214905D01*
X133362298Y-57156623D01*
X133419428Y-57100730D01*
X133477080Y-57048668D01*
X133541885Y-56993660D01*
X133551727Y-56985561D01*
X133610780Y-56935959D01*
X133677577Y-56877675D01*
X133736575Y-56823524D01*
X133797076Y-56763997D01*
X133853466Y-56702069D01*
X133884385Y-56662794D01*
X133926358Y-56596833D01*
X133956884Y-56525921D01*
X133970875Y-56450811D01*
X133971214Y-56437480D01*
X133960085Y-56358895D01*
X133926700Y-56290202D01*
X133892079Y-56249902D01*
X133832298Y-56206308D01*
X133761261Y-56180809D01*
X133686915Y-56173332D01*
X133608333Y-56181525D01*
X133533959Y-56209463D01*
X133472226Y-56257229D01*
X133426416Y-56322571D01*
X133400999Y-56395271D01*
X133391339Y-56471531D01*
X133390893Y-56489870D01*
X133200383Y-56469720D01*
X133211477Y-56391234D01*
X133230196Y-56320089D01*
X133261672Y-56246366D01*
X133303526Y-56182635D01*
X133347662Y-56135963D01*
X133407791Y-56091138D01*
X133476300Y-56057323D01*
X133553189Y-56034518D01*
X133625763Y-56023733D01*
X133690945Y-56020924D01*
X133769234Y-56025187D01*
X133852529Y-56040938D01*
X133927164Y-56068294D01*
X133993139Y-56107256D01*
X134034961Y-56142191D01*
X134084354Y-56198015D01*
X134125948Y-56268597D01*
X134151696Y-56346415D01*
X134161228Y-56420442D01*
X134161723Y-56442609D01*
X134155616Y-56516246D01*
X134137296Y-56588915D01*
X134124720Y-56622128D01*
X134090065Y-56689413D01*
X134046167Y-56753444D01*
X134001622Y-56807508D01*
X133944180Y-56868064D01*
X133887042Y-56923096D01*
X133829386Y-56975792D01*
X133763720Y-57033589D01*
X133715491Y-57074954D01*
X133657167Y-57124916D01*
X133599702Y-57175097D01*
X133542563Y-57226788D01*
X133501168Y-57267295D01*
X133453216Y-57324405D01*
X133423133Y-57369145D01*
X134163921Y-57369145D01*
G37*
G36*
X144317550Y-57005711D02*
G01*
X144521615Y-57005711D01*
X144521615Y-57175704D01*
X144317550Y-57175704D01*
X144317550Y-57545000D01*
X144132170Y-57545000D01*
X144132170Y-57175704D01*
X143476744Y-57175704D01*
X143476744Y-57005711D01*
X143659193Y-57005711D01*
X144132170Y-57005711D01*
X144132170Y-56320610D01*
X143659193Y-57005711D01*
X143476744Y-57005711D01*
X144166242Y-56020924D01*
X144317550Y-56020924D01*
X144317550Y-57005711D01*
G37*
G36*
X145268265Y-57099501D02*
G01*
X145268265Y-56911922D01*
X145837962Y-56911922D01*
X145837962Y-57099501D01*
X145268265Y-57099501D01*
G37*
G36*
X146971859Y-56442976D02*
G01*
X147296458Y-56442976D01*
X147386217Y-55997477D01*
X147541556Y-55997477D01*
X147452163Y-56442976D01*
X147630216Y-56442976D01*
X147630216Y-56595383D01*
X147421022Y-56595383D01*
X147343719Y-56982264D01*
X147630216Y-56982264D01*
X147630216Y-57134672D01*
X147312944Y-57134672D01*
X147223185Y-57568447D01*
X147068946Y-57568447D01*
X147157240Y-57134672D01*
X146833740Y-57134672D01*
X146744347Y-57568447D01*
X146589741Y-57568447D01*
X146679134Y-57134672D01*
X146505111Y-57134672D01*
X146505111Y-56982264D01*
X146710275Y-56982264D01*
X146864881Y-56982264D01*
X147188381Y-56982264D01*
X147265683Y-56595383D01*
X146941085Y-56595383D01*
X146864881Y-56982264D01*
X146710275Y-56982264D01*
X146786479Y-56595383D01*
X146505111Y-56595383D01*
X146505111Y-56442976D01*
X146817254Y-56442976D01*
X146907013Y-55997477D01*
X147061618Y-55997477D01*
X146971859Y-56442976D01*
G37*
G36*
X147740125Y-57147861D02*
G01*
X147925505Y-57122948D01*
X147944236Y-57195373D01*
X147971986Y-57263879D01*
X148015505Y-57328953D01*
X148033949Y-57347529D01*
X148096340Y-57389278D01*
X148168107Y-57411757D01*
X148221161Y-57416039D01*
X148299128Y-57407166D01*
X148369081Y-57380548D01*
X148431019Y-57336183D01*
X148442445Y-57325181D01*
X148489973Y-57264173D01*
X148519897Y-57194721D01*
X148532219Y-57116826D01*
X148532571Y-57100233D01*
X148524414Y-57024721D01*
X148496597Y-56951822D01*
X148449040Y-56889574D01*
X148386288Y-56842225D01*
X148312886Y-56814531D01*
X148236915Y-56806409D01*
X148160952Y-56814423D01*
X148105757Y-56826926D01*
X148126639Y-56652170D01*
X148156315Y-56654002D01*
X148235065Y-56646815D01*
X148308101Y-56625256D01*
X148369539Y-56593185D01*
X148423562Y-56543581D01*
X148456921Y-56471694D01*
X148464427Y-56405607D01*
X148452999Y-56329728D01*
X148415132Y-56260726D01*
X148395184Y-56239277D01*
X148332571Y-56196580D01*
X148256656Y-56175650D01*
X148217131Y-56173332D01*
X148141122Y-56182811D01*
X148070174Y-56214476D01*
X148036880Y-56240743D01*
X147990014Y-56300781D01*
X147959817Y-56372471D01*
X147944190Y-56442976D01*
X147758810Y-56410003D01*
X147777711Y-56332896D01*
X147804921Y-56263784D01*
X147846195Y-56194587D01*
X147898321Y-56135831D01*
X147913049Y-56122773D01*
X147977003Y-56078214D01*
X148048329Y-56046386D01*
X148127029Y-56027290D01*
X148201939Y-56021024D01*
X148213101Y-56020924D01*
X148288371Y-56026076D01*
X148366787Y-56043644D01*
X148440614Y-56073681D01*
X148506345Y-56114540D01*
X148560475Y-56164576D01*
X148599616Y-56218028D01*
X148633327Y-56288044D01*
X148651479Y-56361254D01*
X148654937Y-56411835D01*
X148646290Y-56488173D01*
X148620351Y-56558828D01*
X148602547Y-56589521D01*
X148551575Y-56649032D01*
X148489605Y-56694413D01*
X148446842Y-56716650D01*
X148517514Y-56739470D01*
X148584891Y-56777266D01*
X148640533Y-56828156D01*
X148654937Y-56845976D01*
X148694156Y-56912172D01*
X148718850Y-56988028D01*
X148728655Y-57064558D01*
X148729309Y-57091807D01*
X148722401Y-57176109D01*
X148701680Y-57254626D01*
X148667143Y-57327357D01*
X148618793Y-57394304D01*
X148584961Y-57429961D01*
X148528165Y-57477025D01*
X148455163Y-57519625D01*
X148374903Y-57548972D01*
X148300332Y-57563578D01*
X148220429Y-57568447D01*
X148136620Y-57562854D01*
X148059263Y-57546077D01*
X147988357Y-57518115D01*
X147923903Y-57478968D01*
X147889968Y-57451577D01*
X147837968Y-57396972D01*
X147796733Y-57335741D01*
X147766261Y-57267883D01*
X147746554Y-57193399D01*
X147740125Y-57147861D01*
G37*
G36*
X144712809Y-70926481D02*
G01*
X144788265Y-70943154D01*
X144856323Y-70970940D01*
X144925045Y-71016307D01*
X144948325Y-71037062D01*
X145001219Y-71098130D01*
X145039000Y-71165564D01*
X145061669Y-71239363D01*
X145069225Y-71319528D01*
X145061445Y-71395349D01*
X145035460Y-71468766D01*
X145013904Y-71504542D01*
X144959760Y-71562318D01*
X144892930Y-71605132D01*
X144846475Y-71625443D01*
X144919511Y-71655195D01*
X144981999Y-71693758D01*
X145039057Y-71746938D01*
X145058234Y-71771256D01*
X145096488Y-71838053D01*
X145120573Y-71912506D01*
X145130137Y-71986061D01*
X145130774Y-72011957D01*
X145124217Y-72093624D01*
X145104548Y-72169366D01*
X145071764Y-72239183D01*
X145025868Y-72303073D01*
X144993754Y-72336922D01*
X144929670Y-72388170D01*
X144857312Y-72426832D01*
X144776679Y-72452905D01*
X144700979Y-72465236D01*
X144633251Y-72468447D01*
X144552472Y-72463810D01*
X144477747Y-72449900D01*
X144398218Y-72421950D01*
X144326929Y-72381378D01*
X144272383Y-72336556D01*
X144218993Y-72275572D01*
X144178716Y-72208348D01*
X144151553Y-72134883D01*
X144137503Y-72055176D01*
X144135427Y-72008293D01*
X144326238Y-72008293D01*
X144335580Y-72085871D01*
X144361308Y-72156437D01*
X144363607Y-72161067D01*
X144406954Y-72223122D01*
X144466239Y-72270526D01*
X144475348Y-72275739D01*
X144547568Y-72304666D01*
X144624778Y-72315882D01*
X144635450Y-72316039D01*
X144713832Y-72307739D01*
X144783197Y-72282838D01*
X144849086Y-72236272D01*
X144854535Y-72231043D01*
X144900324Y-72173183D01*
X144931104Y-72099124D01*
X144941279Y-72022330D01*
X144941364Y-72014155D01*
X144932634Y-71935315D01*
X144906445Y-71865491D01*
X144862796Y-71804683D01*
X144851971Y-71793604D01*
X144791964Y-71747622D01*
X144723228Y-71718671D01*
X144645762Y-71706750D01*
X144629221Y-71706409D01*
X144551648Y-71714853D01*
X144482876Y-71740183D01*
X144422905Y-71782401D01*
X144411967Y-71792871D01*
X144366759Y-71850903D01*
X144336368Y-71924490D01*
X144326322Y-72000253D01*
X144326238Y-72008293D01*
X144135427Y-72008293D01*
X144135362Y-72006828D01*
X144141274Y-71927957D01*
X144159010Y-71856621D01*
X144192584Y-71786196D01*
X144210101Y-71760631D01*
X144263002Y-71704768D01*
X144328282Y-71661283D01*
X144397618Y-71632732D01*
X144422958Y-71625443D01*
X144350674Y-71591896D01*
X144287914Y-71545425D01*
X144251866Y-71503810D01*
X144215811Y-71434373D01*
X144198844Y-71361155D01*
X144196179Y-71314399D01*
X144196823Y-71307438D01*
X144385956Y-71307438D01*
X144395641Y-71383430D01*
X144427994Y-71453081D01*
X144454832Y-71485125D01*
X144517864Y-71529720D01*
X144588068Y-71550706D01*
X144634351Y-71554002D01*
X144709175Y-71544367D01*
X144778025Y-71512186D01*
X144809839Y-71485491D01*
X144854197Y-71424748D01*
X144875941Y-71353846D01*
X144878349Y-71317697D01*
X144868406Y-71244847D01*
X144835192Y-71176392D01*
X144807641Y-71144040D01*
X144744744Y-71098259D01*
X144670359Y-71075818D01*
X144632152Y-71073332D01*
X144557569Y-71083017D01*
X144488281Y-71115371D01*
X144455931Y-71142208D01*
X144410625Y-71202705D01*
X144387664Y-71277999D01*
X144385956Y-71307438D01*
X144196823Y-71307438D01*
X144203575Y-71234395D01*
X144225763Y-71161076D01*
X144262743Y-71094443D01*
X144314515Y-71034497D01*
X144378743Y-70984809D01*
X144452725Y-70949317D01*
X144525462Y-70929908D01*
X144605667Y-70921368D01*
X144629954Y-70920924D01*
X144712809Y-70926481D01*
G37*
G36*
X145868265Y-71999501D02*
G01*
X145868265Y-71811922D01*
X146437962Y-71811922D01*
X146437962Y-71999501D01*
X145868265Y-71999501D01*
G37*
G36*
X147571859Y-71342976D02*
G01*
X147896458Y-71342976D01*
X147986217Y-70897477D01*
X148141556Y-70897477D01*
X148052163Y-71342976D01*
X148230216Y-71342976D01*
X148230216Y-71495383D01*
X148021022Y-71495383D01*
X147943719Y-71882264D01*
X148230216Y-71882264D01*
X148230216Y-72034672D01*
X147912944Y-72034672D01*
X147823185Y-72468447D01*
X147668946Y-72468447D01*
X147757240Y-72034672D01*
X147433740Y-72034672D01*
X147344347Y-72468447D01*
X147189741Y-72468447D01*
X147279134Y-72034672D01*
X147105111Y-72034672D01*
X147105111Y-71882264D01*
X147310275Y-71882264D01*
X147464881Y-71882264D01*
X147788381Y-71882264D01*
X147865683Y-71495383D01*
X147541085Y-71495383D01*
X147464881Y-71882264D01*
X147310275Y-71882264D01*
X147386479Y-71495383D01*
X147105111Y-71495383D01*
X147105111Y-71342976D01*
X147417254Y-71342976D01*
X147507013Y-70897477D01*
X147661618Y-70897477D01*
X147571859Y-71342976D01*
G37*
G36*
X148947774Y-70925815D02*
G01*
X149025838Y-70943384D01*
X149095797Y-70973729D01*
X149157649Y-71016851D01*
X149164811Y-71023140D01*
X149216079Y-71078942D01*
X149255944Y-71144498D01*
X149284406Y-71219809D01*
X149299956Y-71293707D01*
X149301465Y-71304874D01*
X149117184Y-71319528D01*
X149095614Y-71243554D01*
X149063156Y-71176795D01*
X149046842Y-71155397D01*
X148985567Y-71105389D01*
X148914401Y-71078461D01*
X148861461Y-71073332D01*
X148788021Y-71082658D01*
X148718518Y-71113350D01*
X148705757Y-71122058D01*
X148649931Y-71172221D01*
X148602850Y-71236063D01*
X148567637Y-71305973D01*
X148543201Y-71381917D01*
X148527854Y-71463095D01*
X148519346Y-71544682D01*
X148515709Y-71622456D01*
X148515247Y-71649989D01*
X148564847Y-71589633D01*
X148621460Y-71541053D01*
X148679012Y-71507107D01*
X148753063Y-71478531D01*
X148829588Y-71463143D01*
X148881978Y-71460212D01*
X148960577Y-71466769D01*
X149033847Y-71486439D01*
X149101788Y-71519222D01*
X149164399Y-71565118D01*
X149197784Y-71597233D01*
X149248604Y-71660858D01*
X149286942Y-71732162D01*
X149312798Y-71811145D01*
X149325025Y-71884956D01*
X149328210Y-71950774D01*
X149323341Y-72029374D01*
X149308735Y-72104845D01*
X149284392Y-72177185D01*
X149266660Y-72216022D01*
X149228594Y-72280332D01*
X149177732Y-72341182D01*
X149117854Y-72390871D01*
X149098133Y-72403600D01*
X149028445Y-72437797D01*
X148953104Y-72459328D01*
X148872110Y-72468194D01*
X148855233Y-72468447D01*
X148771281Y-72462432D01*
X148693358Y-72444387D01*
X148621461Y-72414312D01*
X148555593Y-72372207D01*
X148495753Y-72318073D01*
X148477145Y-72297355D01*
X148427467Y-72225403D01*
X148393920Y-72153538D01*
X148367511Y-72070850D01*
X148351522Y-71996907D01*
X148344335Y-71946011D01*
X148544190Y-71946011D01*
X148550902Y-72024099D01*
X148571036Y-72099405D01*
X148584856Y-72133224D01*
X148623219Y-72198841D01*
X148676433Y-72253819D01*
X148698429Y-72269511D01*
X148768733Y-72302908D01*
X148842256Y-72315858D01*
X148852302Y-72316039D01*
X148929050Y-72304610D01*
X148998091Y-72270324D01*
X149054169Y-72219319D01*
X149098798Y-72152071D01*
X149124832Y-72079924D01*
X149136733Y-72006548D01*
X149138799Y-71956270D01*
X149133579Y-71880638D01*
X149115225Y-71805680D01*
X149079332Y-71734969D01*
X149055268Y-71704577D01*
X148998839Y-71656084D01*
X148927016Y-71623486D01*
X148852855Y-71612710D01*
X148844975Y-71612620D01*
X148770157Y-71621600D01*
X148696452Y-71652223D01*
X148637261Y-71698920D01*
X148631751Y-71704577D01*
X148585576Y-71767668D01*
X148556503Y-71841993D01*
X148544960Y-71918490D01*
X148544190Y-71946011D01*
X148344335Y-71946011D01*
X148340102Y-71916038D01*
X148333250Y-71828242D01*
X148330966Y-71733520D01*
X148332386Y-71653263D01*
X148336646Y-71577217D01*
X148346744Y-71482375D01*
X148361891Y-71395020D01*
X148382087Y-71315152D01*
X148407331Y-71242772D01*
X148445988Y-71162827D01*
X148492533Y-71094581D01*
X148548878Y-71035565D01*
X148612128Y-70988759D01*
X148682281Y-70954163D01*
X148759337Y-70931778D01*
X148843298Y-70921602D01*
X148872819Y-70920924D01*
X148947774Y-70925815D01*
G37*
G36*
X129704605Y-45095000D02*
G01*
X129704605Y-43570924D01*
X129904640Y-43570924D01*
X129904640Y-44919145D01*
X130648360Y-44919145D01*
X130648360Y-45095000D01*
X129704605Y-45095000D01*
G37*
G36*
X130885031Y-45095000D02*
G01*
X130885031Y-43570924D01*
X131977163Y-43570924D01*
X131977163Y-43746779D01*
X131084699Y-43746779D01*
X131084699Y-44227449D01*
X131920376Y-44227449D01*
X131920376Y-44403304D01*
X131084699Y-44403304D01*
X131084699Y-44919145D01*
X132012334Y-44919145D01*
X132012334Y-45095000D01*
X130885031Y-45095000D01*
G37*
G36*
X132883640Y-43572298D02*
G01*
X132964410Y-43577128D01*
X133038656Y-43586573D01*
X133069661Y-43592906D01*
X133146998Y-43616476D01*
X133216894Y-43649635D01*
X133279347Y-43692382D01*
X133290945Y-43702083D01*
X133347045Y-43756556D01*
X133395542Y-43818128D01*
X133436437Y-43886799D01*
X133469731Y-43962568D01*
X133492857Y-44033984D01*
X133510303Y-44109749D01*
X133522069Y-44189861D01*
X133528154Y-44274321D01*
X133529082Y-44324535D01*
X133527153Y-44398617D01*
X133520227Y-44478645D01*
X133508263Y-44553726D01*
X133488782Y-44632281D01*
X133464493Y-44704055D01*
X133433224Y-44775239D01*
X133393620Y-44843127D01*
X133385833Y-44854298D01*
X133337147Y-44914989D01*
X133280566Y-44968876D01*
X133248447Y-44992784D01*
X133182582Y-45029574D01*
X133112661Y-45056450D01*
X133067829Y-45068988D01*
X132991566Y-45083797D01*
X132915774Y-45091926D01*
X132842301Y-45094898D01*
X132825296Y-45095000D01*
X132280146Y-45095000D01*
X132280146Y-44919145D01*
X132480181Y-44919145D01*
X132802581Y-44919145D01*
X132881562Y-44916913D01*
X132957353Y-44909200D01*
X133031679Y-44892670D01*
X133037055Y-44890935D01*
X133104835Y-44861833D01*
X133166155Y-44817755D01*
X133172609Y-44811434D01*
X133221485Y-44750297D01*
X133258503Y-44681944D01*
X133283251Y-44617260D01*
X133302555Y-44544550D01*
X133315542Y-44463667D01*
X133321781Y-44384910D01*
X133323185Y-44321605D01*
X133320442Y-44235145D01*
X133312211Y-44156569D01*
X133295675Y-44074859D01*
X133271669Y-44003878D01*
X133245150Y-43951577D01*
X133198794Y-43885583D01*
X133147107Y-43833094D01*
X133083423Y-43790611D01*
X133056106Y-43778286D01*
X132982123Y-43759087D01*
X132908514Y-43750502D01*
X132830043Y-43747056D01*
X132797452Y-43746779D01*
X132480181Y-43746779D01*
X132480181Y-44919145D01*
X132280146Y-44919145D01*
X132280146Y-43570924D01*
X132800750Y-43570924D01*
X132883640Y-43572298D01*
G37*
G36*
X135002233Y-45095000D02*
G01*
X134816852Y-45095000D01*
X134816852Y-43907247D01*
X134760695Y-43955881D01*
X134698899Y-44000463D01*
X134640997Y-44036939D01*
X134575173Y-44074091D01*
X134507809Y-44107685D01*
X134445725Y-44133660D01*
X134445725Y-43946081D01*
X134511970Y-43912890D01*
X134583085Y-43871393D01*
X134649300Y-43826096D01*
X134710614Y-43776997D01*
X134717934Y-43770593D01*
X134771927Y-43719508D01*
X134822487Y-43662968D01*
X134866022Y-43601301D01*
X134882798Y-43570924D01*
X135002233Y-43570924D01*
X135002233Y-45095000D01*
G37*
G36*
X114286217Y-87245000D02*
G01*
X114100837Y-87245000D01*
X114100837Y-86057247D01*
X114044680Y-86105881D01*
X113982884Y-86150463D01*
X113924982Y-86186939D01*
X113859158Y-86224091D01*
X113791793Y-86257685D01*
X113729710Y-86283660D01*
X113729710Y-86096081D01*
X113795955Y-86062890D01*
X113867070Y-86021393D01*
X113933284Y-85976096D01*
X113994599Y-85926997D01*
X114001919Y-85920593D01*
X114055911Y-85869508D01*
X114106472Y-85812968D01*
X114150006Y-85751301D01*
X114166782Y-85720924D01*
X114286217Y-85720924D01*
X114286217Y-87245000D01*
G37*
G36*
X115327996Y-85726725D02*
G01*
X115400969Y-85744128D01*
X115461147Y-85770017D01*
X115525582Y-85812967D01*
X115580949Y-85868180D01*
X115612822Y-85911800D01*
X115650848Y-85980078D01*
X115680157Y-86050488D01*
X115702252Y-86120649D01*
X115706612Y-86137114D01*
X115721518Y-86209219D01*
X115732165Y-86292910D01*
X115737988Y-86375645D01*
X115740384Y-86453620D01*
X115740683Y-86495052D01*
X115739351Y-86575895D01*
X115735352Y-86651730D01*
X115727036Y-86736120D01*
X115714882Y-86813296D01*
X115695851Y-86894220D01*
X115686095Y-86925896D01*
X115655412Y-87003130D01*
X115617951Y-87071068D01*
X115573713Y-87129709D01*
X115522697Y-87179054D01*
X115456970Y-87222266D01*
X115382202Y-87251336D01*
X115308150Y-87265304D01*
X115247923Y-87268447D01*
X115169338Y-87262921D01*
X115097348Y-87246345D01*
X115021693Y-87213038D01*
X114955015Y-87164690D01*
X114905006Y-87111277D01*
X114861944Y-87046386D01*
X114826181Y-86969869D01*
X114802825Y-86900282D01*
X114784141Y-86823254D01*
X114770127Y-86738784D01*
X114760785Y-86646873D01*
X114756844Y-86573055D01*
X114755530Y-86495052D01*
X114755536Y-86494685D01*
X114946039Y-86494685D01*
X114947402Y-86584204D01*
X114951489Y-86665915D01*
X114958301Y-86739818D01*
X114970648Y-86821216D01*
X114991084Y-86902789D01*
X115022675Y-86975753D01*
X115033234Y-86992208D01*
X115085469Y-87052068D01*
X115150985Y-87095602D01*
X115224372Y-87114951D01*
X115247923Y-87116039D01*
X115323865Y-87103911D01*
X115391865Y-87067525D01*
X115446273Y-87014037D01*
X115462979Y-86991842D01*
X115496955Y-86925602D01*
X115519434Y-86849876D01*
X115533484Y-86773410D01*
X115543277Y-86684797D01*
X115548045Y-86605162D01*
X115550089Y-86517752D01*
X115550174Y-86494685D01*
X115548812Y-86404921D01*
X115544724Y-86323021D01*
X115537912Y-86248987D01*
X115525565Y-86167505D01*
X115505129Y-86085949D01*
X115473538Y-86013167D01*
X115462979Y-85996796D01*
X115410571Y-85937114D01*
X115344453Y-85893708D01*
X115270036Y-85874417D01*
X115246092Y-85873332D01*
X115171223Y-85883958D01*
X115100521Y-85920192D01*
X115046840Y-85975447D01*
X115042027Y-85982142D01*
X115004625Y-86054127D01*
X114979879Y-86133717D01*
X114964412Y-86212655D01*
X114953632Y-86303060D01*
X114948383Y-86383640D01*
X114946133Y-86471559D01*
X114946039Y-86494685D01*
X114755536Y-86494685D01*
X114756872Y-86413690D01*
X114760897Y-86337444D01*
X114769269Y-86252702D01*
X114781505Y-86175327D01*
X114800664Y-86094369D01*
X114810484Y-86062742D01*
X114841465Y-85985393D01*
X114879086Y-85917479D01*
X114923348Y-85858998D01*
X114974249Y-85809951D01*
X115039889Y-85766915D01*
X115114397Y-85737964D01*
X115188070Y-85724054D01*
X115247923Y-85720924D01*
X115327996Y-85726725D01*
G37*
G36*
X116486235Y-86799501D02*
G01*
X116486235Y-86611922D01*
X117055931Y-86611922D01*
X117055931Y-86799501D01*
X116486235Y-86799501D01*
G37*
G36*
X118189829Y-86142976D02*
G01*
X118514427Y-86142976D01*
X118604187Y-85697477D01*
X118759525Y-85697477D01*
X118670132Y-86142976D01*
X118848185Y-86142976D01*
X118848185Y-86295383D01*
X118638991Y-86295383D01*
X118561688Y-86682264D01*
X118848185Y-86682264D01*
X118848185Y-86834672D01*
X118530914Y-86834672D01*
X118441154Y-87268447D01*
X118286915Y-87268447D01*
X118375209Y-86834672D01*
X118051709Y-86834672D01*
X117962316Y-87268447D01*
X117807711Y-87268447D01*
X117897103Y-86834672D01*
X117723080Y-86834672D01*
X117723080Y-86682264D01*
X117928244Y-86682264D01*
X118082850Y-86682264D01*
X118406350Y-86682264D01*
X118483653Y-86295383D01*
X118159054Y-86295383D01*
X118082850Y-86682264D01*
X117928244Y-86682264D01*
X118004448Y-86295383D01*
X117723080Y-86295383D01*
X117723080Y-86142976D01*
X118035223Y-86142976D01*
X118124982Y-85697477D01*
X118279588Y-85697477D01*
X118189829Y-86142976D01*
G37*
G36*
X118969452Y-85920226D02*
G01*
X118969452Y-85744371D01*
X119947278Y-85744371D01*
X119947278Y-85888719D01*
X119893238Y-85950277D01*
X119839378Y-86018996D01*
X119794632Y-86081732D01*
X119750012Y-86149442D01*
X119705517Y-86222124D01*
X119661147Y-86299780D01*
X119618520Y-86380174D01*
X119579023Y-86461302D01*
X119542657Y-86543163D01*
X119509421Y-86625758D01*
X119479316Y-86709086D01*
X119452341Y-86793148D01*
X119442428Y-86826978D01*
X119422962Y-86899831D01*
X119406330Y-86975235D01*
X119392531Y-87053189D01*
X119381566Y-87133693D01*
X119373434Y-87216748D01*
X119371353Y-87245000D01*
X119180478Y-87245000D01*
X119184953Y-87162724D01*
X119193617Y-87086508D01*
X119206737Y-87005038D01*
X119221075Y-86933132D01*
X119238508Y-86857576D01*
X119250453Y-86810491D01*
X119272827Y-86731263D01*
X119298045Y-86652948D01*
X119326107Y-86575544D01*
X119357014Y-86499053D01*
X119390765Y-86423474D01*
X119427360Y-86348808D01*
X119442794Y-86319197D01*
X119482334Y-86247053D01*
X119522643Y-86178540D01*
X119563721Y-86113659D01*
X119605569Y-86052409D01*
X119656801Y-85983703D01*
X119709141Y-85920226D01*
X118969452Y-85920226D01*
G37*
G36*
X128586217Y-102395000D02*
G01*
X128400837Y-102395000D01*
X128400837Y-101207247D01*
X128344680Y-101255881D01*
X128282884Y-101300463D01*
X128224982Y-101336939D01*
X128159158Y-101374091D01*
X128091793Y-101407685D01*
X128029710Y-101433660D01*
X128029710Y-101246081D01*
X128095955Y-101212890D01*
X128167070Y-101171393D01*
X128233284Y-101126096D01*
X128294599Y-101076997D01*
X128301919Y-101070593D01*
X128355911Y-101019508D01*
X128406472Y-100962968D01*
X128450006Y-100901301D01*
X128466782Y-100870924D01*
X128586217Y-100870924D01*
X128586217Y-102395000D01*
G37*
G36*
X129055530Y-101996395D02*
G01*
X129250436Y-101979909D01*
X129267115Y-102054481D01*
X129296253Y-102124219D01*
X129341197Y-102184980D01*
X129350819Y-102194232D01*
X129414481Y-102237990D01*
X129487313Y-102261551D01*
X129540963Y-102266039D01*
X129620532Y-102255950D01*
X129692088Y-102225682D01*
X129755629Y-102175235D01*
X129767376Y-102162725D01*
X129812359Y-102099307D01*
X129842621Y-102025282D01*
X129857161Y-101950578D01*
X129860432Y-101889050D01*
X129854845Y-101812183D01*
X129835203Y-101735943D01*
X129801419Y-101670541D01*
X129771039Y-101632962D01*
X129709995Y-101583503D01*
X129638146Y-101552362D01*
X129564244Y-101539997D01*
X129537665Y-101539173D01*
X129462742Y-101547307D01*
X129389783Y-101574076D01*
X129376099Y-101581671D01*
X129315198Y-101626804D01*
X129267821Y-101683208D01*
X129262526Y-101691580D01*
X129088503Y-101668866D01*
X129234682Y-100894371D01*
X129986095Y-100894371D01*
X129986095Y-101070226D01*
X129383060Y-101070226D01*
X129301727Y-101476158D01*
X129370672Y-101437049D01*
X129441220Y-101409113D01*
X129513371Y-101392352D01*
X129587124Y-101386765D01*
X129670715Y-101393357D01*
X129748381Y-101413132D01*
X129820120Y-101446090D01*
X129885935Y-101492232D01*
X129920882Y-101524518D01*
X129973986Y-101588411D01*
X130014048Y-101659878D01*
X130041065Y-101738918D01*
X130053842Y-101812695D01*
X130057170Y-101878426D01*
X130052971Y-101953667D01*
X130037458Y-102036466D01*
X130010516Y-102113901D01*
X129972142Y-102185971D01*
X129937735Y-102234166D01*
X129879470Y-102296792D01*
X129813761Y-102346462D01*
X129740607Y-102383174D01*
X129660008Y-102406929D01*
X129587156Y-102416827D01*
X129540963Y-102418447D01*
X129466280Y-102414390D01*
X129385890Y-102399401D01*
X129312758Y-102373367D01*
X129246883Y-102336289D01*
X129204274Y-102303042D01*
X129152702Y-102248798D01*
X129111790Y-102187367D01*
X129081536Y-102118748D01*
X129061941Y-102042941D01*
X129055530Y-101996395D01*
G37*
G36*
X130786235Y-101949501D02*
G01*
X130786235Y-101761922D01*
X131355931Y-101761922D01*
X131355931Y-101949501D01*
X130786235Y-101949501D01*
G37*
G36*
X132489829Y-101292976D02*
G01*
X132814427Y-101292976D01*
X132904187Y-100847477D01*
X133059525Y-100847477D01*
X132970132Y-101292976D01*
X133148185Y-101292976D01*
X133148185Y-101445383D01*
X132938991Y-101445383D01*
X132861688Y-101832264D01*
X133148185Y-101832264D01*
X133148185Y-101984672D01*
X132830914Y-101984672D01*
X132741154Y-102418447D01*
X132586915Y-102418447D01*
X132675209Y-101984672D01*
X132351709Y-101984672D01*
X132262316Y-102418447D01*
X132107711Y-102418447D01*
X132197103Y-101984672D01*
X132023080Y-101984672D01*
X132023080Y-101832264D01*
X132228244Y-101832264D01*
X132382850Y-101832264D01*
X132706350Y-101832264D01*
X132783653Y-101445383D01*
X132459054Y-101445383D01*
X132382850Y-101832264D01*
X132228244Y-101832264D01*
X132304448Y-101445383D01*
X132023080Y-101445383D01*
X132023080Y-101292976D01*
X132335223Y-101292976D01*
X132424982Y-100847477D01*
X132579588Y-100847477D01*
X132489829Y-101292976D01*
G37*
G36*
X133829462Y-100876725D02*
G01*
X133902435Y-100894128D01*
X133962613Y-100920017D01*
X134027047Y-100962967D01*
X134082414Y-101018180D01*
X134114288Y-101061800D01*
X134152313Y-101130078D01*
X134181622Y-101200488D01*
X134203718Y-101270649D01*
X134208077Y-101287114D01*
X134222983Y-101359219D01*
X134233631Y-101442910D01*
X134239454Y-101525645D01*
X134241849Y-101603620D01*
X134242149Y-101645052D01*
X134240816Y-101725895D01*
X134236818Y-101801730D01*
X134228502Y-101886120D01*
X134216347Y-101963296D01*
X134197316Y-102044220D01*
X134187561Y-102075896D01*
X134156878Y-102153130D01*
X134119417Y-102221068D01*
X134075178Y-102279709D01*
X134024162Y-102329054D01*
X133958435Y-102372266D01*
X133883667Y-102401336D01*
X133809616Y-102415304D01*
X133749389Y-102418447D01*
X133670804Y-102412921D01*
X133598813Y-102396345D01*
X133523159Y-102363038D01*
X133456481Y-102314690D01*
X133406472Y-102261277D01*
X133363410Y-102196386D01*
X133327646Y-102119869D01*
X133304291Y-102050282D01*
X133285606Y-101973254D01*
X133271593Y-101888784D01*
X133262250Y-101796873D01*
X133258309Y-101723055D01*
X133256995Y-101645052D01*
X133257001Y-101644685D01*
X133447505Y-101644685D01*
X133448867Y-101734204D01*
X133452954Y-101815915D01*
X133459766Y-101889818D01*
X133472113Y-101971216D01*
X133492550Y-102052789D01*
X133524141Y-102125753D01*
X133534699Y-102142208D01*
X133586934Y-102202068D01*
X133652450Y-102245602D01*
X133725838Y-102264951D01*
X133749389Y-102266039D01*
X133825331Y-102253911D01*
X133893330Y-102217525D01*
X133947738Y-102164037D01*
X133964445Y-102141842D01*
X133998420Y-102075602D01*
X134020900Y-101999876D01*
X134034950Y-101923410D01*
X134044742Y-101834797D01*
X134049511Y-101755162D01*
X134051554Y-101667752D01*
X134051639Y-101644685D01*
X134050277Y-101554921D01*
X134046190Y-101473021D01*
X134039378Y-101398987D01*
X134027031Y-101317505D01*
X134006594Y-101235949D01*
X133975003Y-101163167D01*
X133964445Y-101146796D01*
X133912036Y-101087114D01*
X133845919Y-101043708D01*
X133771501Y-101024417D01*
X133747557Y-101023332D01*
X133672689Y-101033958D01*
X133601986Y-101070192D01*
X133548305Y-101125447D01*
X133543492Y-101132142D01*
X133506091Y-101204127D01*
X133481344Y-101283717D01*
X133465877Y-101362655D01*
X133455097Y-101453060D01*
X133449848Y-101533640D01*
X133447598Y-101621559D01*
X133447505Y-101644685D01*
X133257001Y-101644685D01*
X133258337Y-101563690D01*
X133262362Y-101487444D01*
X133270734Y-101402702D01*
X133282970Y-101325327D01*
X133302129Y-101244369D01*
X133311950Y-101212742D01*
X133342931Y-101135393D01*
X133380552Y-101067479D01*
X133424813Y-101008998D01*
X133475715Y-100959951D01*
X133541354Y-100916915D01*
X133615862Y-100887964D01*
X133689536Y-100874054D01*
X133749389Y-100870924D01*
X133829462Y-100876725D01*
G37*
G36*
X141036217Y-102445000D02*
G01*
X140850837Y-102445000D01*
X140850837Y-101257247D01*
X140794680Y-101305881D01*
X140732884Y-101350463D01*
X140674982Y-101386939D01*
X140609158Y-101424091D01*
X140541793Y-101457685D01*
X140479710Y-101483660D01*
X140479710Y-101296081D01*
X140545955Y-101262890D01*
X140617070Y-101221393D01*
X140683284Y-101176096D01*
X140744599Y-101126997D01*
X140751919Y-101120593D01*
X140805911Y-101069508D01*
X140856472Y-101012968D01*
X140900006Y-100951301D01*
X140916782Y-100920924D01*
X141036217Y-100920924D01*
X141036217Y-102445000D01*
G37*
G36*
X142114278Y-100925815D02*
G01*
X142192342Y-100943384D01*
X142262301Y-100973729D01*
X142324153Y-101016851D01*
X142331315Y-101023140D01*
X142382583Y-101078942D01*
X142422448Y-101144498D01*
X142450910Y-101219809D01*
X142466460Y-101293707D01*
X142467969Y-101304874D01*
X142283688Y-101319528D01*
X142262118Y-101243554D01*
X142229660Y-101176795D01*
X142213346Y-101155397D01*
X142152071Y-101105389D01*
X142080905Y-101078461D01*
X142027965Y-101073332D01*
X141954525Y-101082658D01*
X141885021Y-101113350D01*
X141872260Y-101122058D01*
X141816435Y-101172221D01*
X141769354Y-101236063D01*
X141734141Y-101305973D01*
X141709705Y-101381917D01*
X141694357Y-101463095D01*
X141685850Y-101544682D01*
X141682213Y-101622456D01*
X141681751Y-101649989D01*
X141731351Y-101589633D01*
X141787964Y-101541053D01*
X141845516Y-101507107D01*
X141919567Y-101478531D01*
X141996092Y-101463143D01*
X142048482Y-101460212D01*
X142127081Y-101466769D01*
X142200351Y-101486439D01*
X142268292Y-101519222D01*
X142330903Y-101565118D01*
X142364288Y-101597233D01*
X142415108Y-101660858D01*
X142453446Y-101732162D01*
X142479302Y-101811145D01*
X142491529Y-101884956D01*
X142494713Y-101950774D01*
X142489845Y-102029374D01*
X142475239Y-102104845D01*
X142450896Y-102177185D01*
X142433164Y-102216022D01*
X142395097Y-102280332D01*
X142344236Y-102341182D01*
X142284358Y-102390871D01*
X142264637Y-102403600D01*
X142194949Y-102437797D01*
X142119608Y-102459328D01*
X142038614Y-102468194D01*
X142021737Y-102468447D01*
X141937785Y-102462432D01*
X141859861Y-102444387D01*
X141787965Y-102414312D01*
X141722097Y-102372207D01*
X141662256Y-102318073D01*
X141643649Y-102297355D01*
X141593971Y-102225403D01*
X141560424Y-102153538D01*
X141534015Y-102070850D01*
X141518026Y-101996907D01*
X141510839Y-101946011D01*
X141710694Y-101946011D01*
X141717405Y-102024099D01*
X141737540Y-102099405D01*
X141751360Y-102133224D01*
X141789723Y-102198841D01*
X141842937Y-102253819D01*
X141864933Y-102269511D01*
X141935237Y-102302908D01*
X142008760Y-102315858D01*
X142018806Y-102316039D01*
X142095553Y-102304610D01*
X142164595Y-102270324D01*
X142220673Y-102219319D01*
X142265302Y-102152071D01*
X142291336Y-102079924D01*
X142303237Y-102006548D01*
X142305303Y-101956270D01*
X142300082Y-101880638D01*
X142281728Y-101805680D01*
X142245836Y-101734969D01*
X142221772Y-101704577D01*
X142165343Y-101656084D01*
X142093519Y-101623486D01*
X142019359Y-101612710D01*
X142011479Y-101612620D01*
X141936660Y-101621600D01*
X141862955Y-101652223D01*
X141803765Y-101698920D01*
X141798255Y-101704577D01*
X141752080Y-101767668D01*
X141723007Y-101841993D01*
X141711463Y-101918490D01*
X141710694Y-101946011D01*
X141510839Y-101946011D01*
X141506606Y-101916038D01*
X141499754Y-101828242D01*
X141497470Y-101733520D01*
X141498890Y-101653263D01*
X141503150Y-101577217D01*
X141513248Y-101482375D01*
X141528395Y-101395020D01*
X141548591Y-101315152D01*
X141573835Y-101242772D01*
X141612491Y-101162827D01*
X141659036Y-101094581D01*
X141715382Y-101035565D01*
X141778632Y-100988759D01*
X141848785Y-100954163D01*
X141925841Y-100931778D01*
X142009802Y-100921602D01*
X142039323Y-100920924D01*
X142114278Y-100925815D01*
G37*
G36*
X143236235Y-101999501D02*
G01*
X143236235Y-101811922D01*
X143805931Y-101811922D01*
X143805931Y-101999501D01*
X143236235Y-101999501D01*
G37*
G36*
X144618527Y-102445000D02*
G01*
X144618527Y-100920924D01*
X145710659Y-100920924D01*
X145710659Y-101096779D01*
X144818196Y-101096779D01*
X144818196Y-101577449D01*
X145653872Y-101577449D01*
X145653872Y-101753304D01*
X144818196Y-101753304D01*
X144818196Y-102269145D01*
X145745830Y-102269145D01*
X145745830Y-102445000D01*
X144618527Y-102445000D01*
G37*
G36*
X146011810Y-102445000D02*
G01*
X146011810Y-100920924D01*
X146216608Y-100920924D01*
X147010153Y-102117470D01*
X147010153Y-100920924D01*
X147201762Y-100920924D01*
X147201762Y-102445000D01*
X146996964Y-102445000D01*
X146203419Y-101247355D01*
X146203419Y-102445000D01*
X146011810Y-102445000D01*
G37*
G36*
X147913241Y-102445000D02*
G01*
X147913241Y-101096779D01*
X147415718Y-101096779D01*
X147415718Y-100920924D01*
X148612997Y-100920924D01*
X148612997Y-101096779D01*
X148113276Y-101096779D01*
X148113276Y-102445000D01*
X147913241Y-102445000D01*
G37*
G36*
X148815596Y-102445000D02*
G01*
X148815596Y-100920924D01*
X149907728Y-100920924D01*
X149907728Y-101096779D01*
X149015265Y-101096779D01*
X149015265Y-101577449D01*
X149850942Y-101577449D01*
X149850942Y-101753304D01*
X149015265Y-101753304D01*
X149015265Y-102269145D01*
X149942899Y-102269145D01*
X149942899Y-102445000D01*
X148815596Y-102445000D01*
G37*
G36*
X150967411Y-100922905D02*
G01*
X151041843Y-100928848D01*
X151115574Y-100940492D01*
X151190736Y-100962323D01*
X151258002Y-100998023D01*
X151315225Y-101048701D01*
X151358531Y-101107770D01*
X151391761Y-101175139D01*
X151412684Y-101246731D01*
X151421299Y-101322544D01*
X151421545Y-101338213D01*
X151415042Y-101416523D01*
X151395533Y-101488422D01*
X151358040Y-101561645D01*
X151317498Y-101612986D01*
X151258399Y-101663613D01*
X151185149Y-101704119D01*
X151109447Y-101731260D01*
X151035936Y-101748356D01*
X150996196Y-101754769D01*
X151062094Y-101790511D01*
X151116730Y-101830240D01*
X151170526Y-101884744D01*
X151222461Y-101947047D01*
X151267611Y-102009789D01*
X151282327Y-102032107D01*
X151545376Y-102445000D01*
X151293684Y-102445000D01*
X151094016Y-102129193D01*
X151052158Y-102064874D01*
X151009667Y-102002093D01*
X150964345Y-101939136D01*
X150949668Y-101920000D01*
X150899087Y-101861573D01*
X150848185Y-101818517D01*
X150780110Y-101784994D01*
X150756960Y-101778217D01*
X150681535Y-101771347D01*
X150645586Y-101770889D01*
X150413677Y-101770889D01*
X150413677Y-102445000D01*
X150214009Y-102445000D01*
X150214009Y-101600896D01*
X150413677Y-101600896D01*
X150843422Y-101600896D01*
X150923228Y-101598070D01*
X150997543Y-101588432D01*
X151057745Y-101571953D01*
X151125798Y-101534401D01*
X151175348Y-101479630D01*
X151206793Y-101408796D01*
X151215648Y-101341144D01*
X151204675Y-101264723D01*
X151171753Y-101199224D01*
X151137613Y-101161625D01*
X151073522Y-101121369D01*
X150996700Y-101099272D01*
X150922517Y-101091539D01*
X150891782Y-101090917D01*
X150413677Y-101090917D01*
X150413677Y-101600896D01*
X150214009Y-101600896D01*
X150214009Y-100920924D01*
X150883722Y-100920924D01*
X150967411Y-100922905D01*
G37*
G36*
X100336217Y-57745000D02*
G01*
X100150837Y-57745000D01*
X100150837Y-56557247D01*
X100094680Y-56605881D01*
X100032884Y-56650463D01*
X99974982Y-56686939D01*
X99909158Y-56724091D01*
X99841793Y-56757685D01*
X99779710Y-56783660D01*
X99779710Y-56596081D01*
X99845955Y-56562890D01*
X99917070Y-56521393D01*
X99983284Y-56476096D01*
X100044599Y-56426997D01*
X100051919Y-56420593D01*
X100105911Y-56369508D01*
X100156472Y-56312968D01*
X100200006Y-56251301D01*
X100216782Y-56220924D01*
X100336217Y-56220924D01*
X100336217Y-57745000D01*
G37*
G36*
X101368265Y-57299501D02*
G01*
X101368265Y-57111922D01*
X101937962Y-57111922D01*
X101937962Y-57299501D01*
X101368265Y-57299501D01*
G37*
G36*
X102756786Y-57745000D02*
G01*
X102756786Y-56220924D01*
X103775645Y-56220924D01*
X103775645Y-56396779D01*
X102956454Y-56396779D01*
X102956454Y-56877449D01*
X103665369Y-56877449D01*
X103665369Y-57053304D01*
X102956454Y-57053304D01*
X102956454Y-57745000D01*
X102756786Y-57745000D01*
G37*
G36*
X104651988Y-57745000D02*
G01*
X104466608Y-57745000D01*
X104466608Y-56557247D01*
X104410451Y-56605881D01*
X104348655Y-56650463D01*
X104290753Y-56686939D01*
X104224929Y-56724091D01*
X104157564Y-56757685D01*
X104095481Y-56783660D01*
X104095481Y-56596081D01*
X104161726Y-56562890D01*
X104232841Y-56521393D01*
X104299055Y-56476096D01*
X104360370Y-56426997D01*
X104367690Y-56420593D01*
X104421683Y-56369508D01*
X104472243Y-56312968D01*
X104515777Y-56251301D01*
X104532554Y-56220924D01*
X104651988Y-56220924D01*
X104651988Y-57745000D01*
G37*
G36*
X129150017Y-71120226D02*
G01*
X129150017Y-70944371D01*
X130127843Y-70944371D01*
X130127843Y-71088719D01*
X130073803Y-71150277D01*
X130019943Y-71218996D01*
X129975198Y-71281732D01*
X129930577Y-71349442D01*
X129886082Y-71422124D01*
X129841713Y-71499780D01*
X129799085Y-71580174D01*
X129759588Y-71661302D01*
X129723222Y-71743163D01*
X129689986Y-71825758D01*
X129659881Y-71909086D01*
X129632907Y-71993148D01*
X129622993Y-72026978D01*
X129603527Y-72099831D01*
X129586895Y-72175235D01*
X129573096Y-72253189D01*
X129562131Y-72333693D01*
X129553999Y-72416748D01*
X129551919Y-72445000D01*
X129361043Y-72445000D01*
X129365518Y-72362724D01*
X129374182Y-72286508D01*
X129387303Y-72205038D01*
X129401641Y-72133132D01*
X129419073Y-72057576D01*
X129431018Y-72010491D01*
X129453392Y-71931263D01*
X129478610Y-71852948D01*
X129506672Y-71775544D01*
X129537579Y-71699053D01*
X129571330Y-71623474D01*
X129607925Y-71548808D01*
X129623360Y-71519197D01*
X129662899Y-71447053D01*
X129703208Y-71378540D01*
X129744287Y-71313659D01*
X129786134Y-71252409D01*
X129837366Y-71183703D01*
X129889706Y-71120226D01*
X129150017Y-71120226D01*
G37*
G36*
X130868265Y-71999501D02*
G01*
X130868265Y-71811922D01*
X131437962Y-71811922D01*
X131437962Y-71999501D01*
X130868265Y-71999501D01*
G37*
G36*
X132571859Y-71342976D02*
G01*
X132896458Y-71342976D01*
X132986217Y-70897477D01*
X133141556Y-70897477D01*
X133052163Y-71342976D01*
X133230216Y-71342976D01*
X133230216Y-71495383D01*
X133021022Y-71495383D01*
X132943719Y-71882264D01*
X133230216Y-71882264D01*
X133230216Y-72034672D01*
X132912944Y-72034672D01*
X132823185Y-72468447D01*
X132668946Y-72468447D01*
X132757240Y-72034672D01*
X132433740Y-72034672D01*
X132344347Y-72468447D01*
X132189741Y-72468447D01*
X132279134Y-72034672D01*
X132105111Y-72034672D01*
X132105111Y-71882264D01*
X132310275Y-71882264D01*
X132464881Y-71882264D01*
X132788381Y-71882264D01*
X132865683Y-71495383D01*
X132541085Y-71495383D01*
X132464881Y-71882264D01*
X132310275Y-71882264D01*
X132386479Y-71495383D01*
X132105111Y-71495383D01*
X132105111Y-71342976D01*
X132417254Y-71342976D01*
X132507013Y-70897477D01*
X132661618Y-70897477D01*
X132571859Y-71342976D01*
G37*
G36*
X133339026Y-72046395D02*
G01*
X133533932Y-72029909D01*
X133550611Y-72104481D01*
X133579749Y-72174219D01*
X133624693Y-72234980D01*
X133634316Y-72244232D01*
X133697977Y-72287990D01*
X133770809Y-72311551D01*
X133824459Y-72316039D01*
X133904028Y-72305950D01*
X133975584Y-72275682D01*
X134039125Y-72225235D01*
X134050872Y-72212725D01*
X134095855Y-72149307D01*
X134126117Y-72075282D01*
X134140657Y-72000578D01*
X134143928Y-71939050D01*
X134138341Y-71862183D01*
X134118699Y-71785943D01*
X134084915Y-71720541D01*
X134054535Y-71682962D01*
X133993491Y-71633503D01*
X133921643Y-71602362D01*
X133847740Y-71589997D01*
X133821161Y-71589173D01*
X133746238Y-71597307D01*
X133673279Y-71624076D01*
X133659595Y-71631671D01*
X133598694Y-71676804D01*
X133551317Y-71733208D01*
X133546022Y-71741580D01*
X133371999Y-71718866D01*
X133518178Y-70944371D01*
X134269591Y-70944371D01*
X134269591Y-71120226D01*
X133666556Y-71120226D01*
X133585223Y-71526158D01*
X133654168Y-71487049D01*
X133724716Y-71459113D01*
X133796867Y-71442352D01*
X133870621Y-71436765D01*
X133954211Y-71443357D01*
X134031877Y-71463132D01*
X134103616Y-71496090D01*
X134169431Y-71542232D01*
X134204378Y-71574518D01*
X134257483Y-71638411D01*
X134297544Y-71709878D01*
X134324562Y-71788918D01*
X134337339Y-71862695D01*
X134340666Y-71928426D01*
X134336467Y-72003667D01*
X134320955Y-72086466D01*
X134294012Y-72163901D01*
X134255639Y-72235971D01*
X134221231Y-72284166D01*
X134162966Y-72346792D01*
X134097257Y-72396462D01*
X134024103Y-72433174D01*
X133943504Y-72456929D01*
X133870652Y-72466827D01*
X133824459Y-72468447D01*
X133749776Y-72464390D01*
X133669386Y-72449401D01*
X133596254Y-72423367D01*
X133530379Y-72386289D01*
X133487770Y-72353042D01*
X133436198Y-72298798D01*
X133395286Y-72237367D01*
X133365032Y-72168748D01*
X133345437Y-72092941D01*
X133339026Y-72046395D01*
G37*
G36*
X99787561Y-72296395D02*
G01*
X99982466Y-72279909D01*
X99999146Y-72354481D01*
X100028283Y-72424219D01*
X100073227Y-72484980D01*
X100082850Y-72494232D01*
X100146512Y-72537990D01*
X100219344Y-72561551D01*
X100272993Y-72566039D01*
X100352563Y-72555950D01*
X100424118Y-72525682D01*
X100487660Y-72475235D01*
X100499406Y-72462725D01*
X100544390Y-72399307D01*
X100574651Y-72325282D01*
X100589191Y-72250578D01*
X100592463Y-72189050D01*
X100586876Y-72112183D01*
X100567234Y-72035943D01*
X100533450Y-71970541D01*
X100503070Y-71932962D01*
X100442026Y-71883503D01*
X100370177Y-71852362D01*
X100296275Y-71839997D01*
X100269696Y-71839173D01*
X100194773Y-71847307D01*
X100121813Y-71874076D01*
X100108129Y-71881671D01*
X100047228Y-71926804D01*
X99999851Y-71983208D01*
X99994556Y-71991580D01*
X99820533Y-71968866D01*
X99966713Y-71194371D01*
X100718126Y-71194371D01*
X100718126Y-71370226D01*
X100115090Y-71370226D01*
X100033757Y-71776158D01*
X100102703Y-71737049D01*
X100173251Y-71709113D01*
X100245401Y-71692352D01*
X100319155Y-71686765D01*
X100402746Y-71693357D01*
X100480411Y-71713132D01*
X100552151Y-71746090D01*
X100617965Y-71792232D01*
X100652913Y-71824518D01*
X100706017Y-71888411D01*
X100746078Y-71959878D01*
X100773096Y-72038918D01*
X100785873Y-72112695D01*
X100789200Y-72178426D01*
X100785002Y-72253667D01*
X100769489Y-72336466D01*
X100742546Y-72413901D01*
X100704173Y-72485971D01*
X100669766Y-72534166D01*
X100611501Y-72596792D01*
X100545791Y-72646462D01*
X100472637Y-72683174D01*
X100392039Y-72706929D01*
X100319186Y-72716827D01*
X100272993Y-72718447D01*
X100198311Y-72714390D01*
X100117921Y-72699401D01*
X100044788Y-72673367D01*
X99978914Y-72636289D01*
X99936304Y-72603042D01*
X99884733Y-72548798D01*
X99843820Y-72487367D01*
X99813567Y-72418748D01*
X99793972Y-72342941D01*
X99787561Y-72296395D01*
G37*
G36*
X101518265Y-72249501D02*
G01*
X101518265Y-72061922D01*
X102087962Y-72061922D01*
X102087962Y-72249501D01*
X101518265Y-72249501D01*
G37*
G36*
X102906786Y-72695000D02*
G01*
X102906786Y-71170924D01*
X103925645Y-71170924D01*
X103925645Y-71346779D01*
X103106454Y-71346779D01*
X103106454Y-71827449D01*
X103815369Y-71827449D01*
X103815369Y-72003304D01*
X103106454Y-72003304D01*
X103106454Y-72695000D01*
X102906786Y-72695000D01*
G37*
G36*
X105078227Y-72519145D02*
G01*
X105078227Y-72695000D01*
X104079518Y-72695000D01*
X104085456Y-72621197D01*
X104101133Y-72566039D01*
X104132949Y-72496156D01*
X104171188Y-72433301D01*
X104218300Y-72371091D01*
X104223499Y-72364905D01*
X104276603Y-72306623D01*
X104333733Y-72250730D01*
X104391386Y-72198668D01*
X104456191Y-72143660D01*
X104466032Y-72135561D01*
X104525086Y-72085959D01*
X104591883Y-72027675D01*
X104650880Y-71973524D01*
X104711382Y-71913997D01*
X104767772Y-71852069D01*
X104798691Y-71812794D01*
X104840664Y-71746833D01*
X104871189Y-71675921D01*
X104885180Y-71600811D01*
X104885519Y-71587480D01*
X104874391Y-71508895D01*
X104841006Y-71440202D01*
X104806385Y-71399902D01*
X104746604Y-71356308D01*
X104675567Y-71330809D01*
X104601221Y-71323332D01*
X104522638Y-71331525D01*
X104448264Y-71359463D01*
X104386531Y-71407229D01*
X104340721Y-71472571D01*
X104315305Y-71545271D01*
X104305645Y-71621531D01*
X104305198Y-71639870D01*
X104114689Y-71619720D01*
X104125783Y-71541234D01*
X104144502Y-71470089D01*
X104175978Y-71396366D01*
X104217832Y-71332635D01*
X104261967Y-71285963D01*
X104322097Y-71241138D01*
X104390606Y-71207323D01*
X104467495Y-71184518D01*
X104540069Y-71173733D01*
X104605251Y-71170924D01*
X104683540Y-71175187D01*
X104766835Y-71190938D01*
X104841470Y-71218294D01*
X104907444Y-71257256D01*
X104949267Y-71292191D01*
X104998659Y-71348015D01*
X105040253Y-71418597D01*
X105066002Y-71496415D01*
X105075534Y-71570442D01*
X105076029Y-71592609D01*
X105069922Y-71666246D01*
X105051601Y-71738915D01*
X105039026Y-71772128D01*
X105004370Y-71839413D01*
X104960473Y-71903444D01*
X104915928Y-71957508D01*
X104858486Y-72018064D01*
X104801347Y-72073096D01*
X104743692Y-72125792D01*
X104678026Y-72183589D01*
X104629797Y-72224954D01*
X104571472Y-72274916D01*
X104514008Y-72325097D01*
X104456869Y-72376788D01*
X104415474Y-72417295D01*
X104367522Y-72474405D01*
X104337438Y-72519145D01*
X105078227Y-72519145D01*
G37*
G36*
X99536217Y-101995000D02*
G01*
X99350837Y-101995000D01*
X99350837Y-100807247D01*
X99294680Y-100855881D01*
X99232884Y-100900463D01*
X99174982Y-100936939D01*
X99109158Y-100974091D01*
X99041793Y-101007685D01*
X98979710Y-101033660D01*
X98979710Y-100846081D01*
X99045955Y-100812890D01*
X99117070Y-100771393D01*
X99183284Y-100726096D01*
X99244599Y-100676997D01*
X99251919Y-100670593D01*
X99305911Y-100619508D01*
X99356472Y-100562968D01*
X99400006Y-100501301D01*
X99416782Y-100470924D01*
X99536217Y-100470924D01*
X99536217Y-101995000D01*
G37*
G36*
X100006629Y-101597861D02*
G01*
X100192009Y-101572948D01*
X100210740Y-101645373D01*
X100238490Y-101713879D01*
X100282009Y-101778953D01*
X100300453Y-101797529D01*
X100362844Y-101839278D01*
X100434611Y-101861757D01*
X100487665Y-101866039D01*
X100565632Y-101857166D01*
X100635585Y-101830548D01*
X100697523Y-101786183D01*
X100708949Y-101775181D01*
X100756476Y-101714173D01*
X100786401Y-101644721D01*
X100798723Y-101566826D01*
X100799075Y-101550233D01*
X100790918Y-101474721D01*
X100763101Y-101401822D01*
X100715544Y-101339574D01*
X100652791Y-101292225D01*
X100579389Y-101264531D01*
X100503419Y-101256409D01*
X100427456Y-101264423D01*
X100372260Y-101276926D01*
X100393143Y-101102170D01*
X100422819Y-101104002D01*
X100501569Y-101096815D01*
X100574605Y-101075256D01*
X100636043Y-101043185D01*
X100690066Y-100993581D01*
X100723425Y-100921694D01*
X100730931Y-100855607D01*
X100719503Y-100779728D01*
X100681636Y-100710726D01*
X100661688Y-100689277D01*
X100599075Y-100646580D01*
X100523160Y-100625650D01*
X100483635Y-100623332D01*
X100407626Y-100632811D01*
X100336678Y-100664476D01*
X100303384Y-100690743D01*
X100256518Y-100750781D01*
X100226321Y-100822471D01*
X100210694Y-100892976D01*
X100025314Y-100860003D01*
X100044215Y-100782896D01*
X100071425Y-100713784D01*
X100112699Y-100644587D01*
X100164825Y-100585831D01*
X100179553Y-100572773D01*
X100243506Y-100528214D01*
X100314833Y-100496386D01*
X100393533Y-100477290D01*
X100468443Y-100471024D01*
X100479605Y-100470924D01*
X100554874Y-100476076D01*
X100633290Y-100493644D01*
X100707117Y-100523681D01*
X100772849Y-100564540D01*
X100826979Y-100614576D01*
X100866120Y-100668028D01*
X100899831Y-100738044D01*
X100917983Y-100811254D01*
X100921441Y-100861835D01*
X100912794Y-100938173D01*
X100886855Y-101008828D01*
X100869050Y-101039521D01*
X100818079Y-101099032D01*
X100756109Y-101144413D01*
X100713346Y-101166650D01*
X100784018Y-101189470D01*
X100851395Y-101227266D01*
X100907036Y-101278156D01*
X100921441Y-101295976D01*
X100960660Y-101362172D01*
X100985354Y-101438028D01*
X100995159Y-101514558D01*
X100995812Y-101541807D01*
X100988905Y-101626109D01*
X100968183Y-101704626D01*
X100933647Y-101777357D01*
X100885296Y-101844304D01*
X100851465Y-101879961D01*
X100794668Y-101927025D01*
X100721666Y-101969625D01*
X100641407Y-101998972D01*
X100566836Y-102013578D01*
X100486933Y-102018447D01*
X100403124Y-102012854D01*
X100325767Y-101996077D01*
X100254861Y-101968115D01*
X100190406Y-101928968D01*
X100156472Y-101901577D01*
X100104472Y-101846972D01*
X100063237Y-101785741D01*
X100032765Y-101717883D01*
X100013057Y-101643399D01*
X100006629Y-101597861D01*
G37*
G36*
X101736235Y-101549501D02*
G01*
X101736235Y-101361922D01*
X102305931Y-101361922D01*
X102305931Y-101549501D01*
X101736235Y-101549501D01*
G37*
G36*
X103124755Y-101995000D02*
G01*
X103124755Y-100470924D01*
X104143614Y-100470924D01*
X104143614Y-100646779D01*
X103324424Y-100646779D01*
X103324424Y-101127449D01*
X104033339Y-101127449D01*
X104033339Y-101303304D01*
X103324424Y-101303304D01*
X103324424Y-101995000D01*
X103124755Y-101995000D01*
G37*
G36*
X105101290Y-101455711D02*
G01*
X105305355Y-101455711D01*
X105305355Y-101625704D01*
X105101290Y-101625704D01*
X105101290Y-101995000D01*
X104915910Y-101995000D01*
X104915910Y-101625704D01*
X104260484Y-101625704D01*
X104260484Y-101455711D01*
X104442934Y-101455711D01*
X104915910Y-101455711D01*
X104915910Y-100770610D01*
X104442934Y-101455711D01*
X104260484Y-101455711D01*
X104949982Y-100470924D01*
X105101290Y-100470924D01*
X105101290Y-101455711D01*
G37*
G36*
X143786217Y-87395000D02*
G01*
X143600837Y-87395000D01*
X143600837Y-86207247D01*
X143544680Y-86255881D01*
X143482884Y-86300463D01*
X143424982Y-86336939D01*
X143359158Y-86374091D01*
X143291793Y-86407685D01*
X143229710Y-86433660D01*
X143229710Y-86246081D01*
X143295955Y-86212890D01*
X143367070Y-86171393D01*
X143433284Y-86126096D01*
X143494599Y-86076997D01*
X143501919Y-86070593D01*
X143555911Y-86019508D01*
X143606472Y-85962968D01*
X143650006Y-85901301D01*
X143666782Y-85870924D01*
X143786217Y-85870924D01*
X143786217Y-87395000D01*
G37*
G36*
X145230425Y-87219145D02*
G01*
X145230425Y-87395000D01*
X144231716Y-87395000D01*
X144237654Y-87321197D01*
X144253332Y-87266039D01*
X144285147Y-87196156D01*
X144323386Y-87133301D01*
X144370498Y-87071091D01*
X144375697Y-87064905D01*
X144428802Y-87006623D01*
X144485931Y-86950730D01*
X144543584Y-86898668D01*
X144608389Y-86843660D01*
X144618230Y-86835561D01*
X144677284Y-86785959D01*
X144744081Y-86727675D01*
X144803078Y-86673524D01*
X144863580Y-86613997D01*
X144919970Y-86552069D01*
X144950889Y-86512794D01*
X144992862Y-86446833D01*
X145023388Y-86375921D01*
X145037378Y-86300811D01*
X145037718Y-86287480D01*
X145026589Y-86208895D01*
X144993204Y-86140202D01*
X144958583Y-86099902D01*
X144898802Y-86056308D01*
X144827765Y-86030809D01*
X144753419Y-86023332D01*
X144674837Y-86031525D01*
X144600463Y-86059463D01*
X144538729Y-86107229D01*
X144492920Y-86172571D01*
X144467503Y-86245271D01*
X144457843Y-86321531D01*
X144457397Y-86339870D01*
X144266887Y-86319720D01*
X144277981Y-86241234D01*
X144296700Y-86170089D01*
X144328176Y-86096366D01*
X144370030Y-86032635D01*
X144414166Y-85985963D01*
X144474295Y-85941138D01*
X144542804Y-85907323D01*
X144619693Y-85884518D01*
X144692267Y-85873733D01*
X144757449Y-85870924D01*
X144835738Y-85875187D01*
X144919033Y-85890938D01*
X144993668Y-85918294D01*
X145059643Y-85957256D01*
X145101465Y-85992191D01*
X145150858Y-86048015D01*
X145192451Y-86118597D01*
X145218200Y-86196415D01*
X145227732Y-86270442D01*
X145228227Y-86292609D01*
X145222120Y-86366246D01*
X145203799Y-86438915D01*
X145191224Y-86472128D01*
X145156568Y-86539413D01*
X145112671Y-86603444D01*
X145068126Y-86657508D01*
X145010684Y-86718064D01*
X144953545Y-86773096D01*
X144895890Y-86825792D01*
X144830224Y-86883589D01*
X144781995Y-86924954D01*
X144723670Y-86974916D01*
X144666206Y-87025097D01*
X144609067Y-87076788D01*
X144567672Y-87117295D01*
X144519720Y-87174405D01*
X144489637Y-87219145D01*
X145230425Y-87219145D01*
G37*
G36*
X145986235Y-86949501D02*
G01*
X145986235Y-86761922D01*
X146555931Y-86761922D01*
X146555931Y-86949501D01*
X145986235Y-86949501D01*
G37*
G36*
X147689829Y-86292976D02*
G01*
X148014427Y-86292976D01*
X148104187Y-85847477D01*
X148259525Y-85847477D01*
X148170132Y-86292976D01*
X148348185Y-86292976D01*
X148348185Y-86445383D01*
X148138991Y-86445383D01*
X148061688Y-86832264D01*
X148348185Y-86832264D01*
X148348185Y-86984672D01*
X148030914Y-86984672D01*
X147941154Y-87418447D01*
X147786915Y-87418447D01*
X147875209Y-86984672D01*
X147551709Y-86984672D01*
X147462316Y-87418447D01*
X147307711Y-87418447D01*
X147397103Y-86984672D01*
X147223080Y-86984672D01*
X147223080Y-86832264D01*
X147428244Y-86832264D01*
X147582850Y-86832264D01*
X147906350Y-86832264D01*
X147983653Y-86445383D01*
X147659054Y-86445383D01*
X147582850Y-86832264D01*
X147428244Y-86832264D01*
X147504448Y-86445383D01*
X147223080Y-86445383D01*
X147223080Y-86292976D01*
X147535223Y-86292976D01*
X147624982Y-85847477D01*
X147779588Y-85847477D01*
X147689829Y-86292976D01*
G37*
G36*
X149013014Y-85877242D02*
G01*
X149089860Y-85896195D01*
X149162706Y-85927783D01*
X149201448Y-85950792D01*
X149265435Y-86000872D01*
X149320150Y-86061675D01*
X149360999Y-86124724D01*
X149386828Y-86177571D01*
X149411524Y-86248317D01*
X149430155Y-86331684D01*
X149441296Y-86413189D01*
X149447176Y-86488194D01*
X149449961Y-86569638D01*
X149450209Y-86604019D01*
X149448670Y-86691814D01*
X149444055Y-86773849D01*
X149436363Y-86850124D01*
X149423071Y-86934050D01*
X149405348Y-87009681D01*
X149387194Y-87066371D01*
X149356840Y-87137777D01*
X149314937Y-87209768D01*
X149265341Y-87271500D01*
X149208051Y-87322975D01*
X149200348Y-87328688D01*
X149135594Y-87367957D01*
X149065526Y-87396007D01*
X148990147Y-87412837D01*
X148909455Y-87418447D01*
X148834981Y-87413661D01*
X148757466Y-87396470D01*
X148688057Y-87366778D01*
X148626754Y-87324583D01*
X148619661Y-87318429D01*
X148569194Y-87263177D01*
X148529902Y-87197804D01*
X148501783Y-87122310D01*
X148486346Y-87047951D01*
X148484839Y-87036695D01*
X148663258Y-87019842D01*
X148681269Y-87093766D01*
X148713555Y-87164246D01*
X148749354Y-87207787D01*
X148812326Y-87247608D01*
X148889042Y-87265129D01*
X148913485Y-87266039D01*
X148988924Y-87257587D01*
X149059278Y-87229938D01*
X149063328Y-87227571D01*
X149121946Y-87182691D01*
X149168841Y-87124989D01*
X149204674Y-87054637D01*
X149229052Y-86984098D01*
X149238084Y-86950966D01*
X149253936Y-86875222D01*
X149263209Y-86798613D01*
X149265928Y-86728217D01*
X149264829Y-86691580D01*
X149217344Y-86749798D01*
X149158423Y-86799154D01*
X149112787Y-86827135D01*
X149044683Y-86856754D01*
X148972855Y-86874078D01*
X148904326Y-86879159D01*
X148825013Y-86872637D01*
X148751204Y-86853072D01*
X148682901Y-86820464D01*
X148620102Y-86774813D01*
X148586688Y-86742871D01*
X148536154Y-86678930D01*
X148498031Y-86606679D01*
X148472320Y-86526119D01*
X148460162Y-86450453D01*
X148457543Y-86394459D01*
X148647505Y-86394459D01*
X148654402Y-86473133D01*
X148678244Y-86550284D01*
X148719117Y-86616630D01*
X148734699Y-86634427D01*
X148793132Y-86683114D01*
X148866498Y-86715842D01*
X148941460Y-86726661D01*
X148949389Y-86726751D01*
X149025481Y-86717735D01*
X149098769Y-86686991D01*
X149155927Y-86640107D01*
X149161147Y-86634427D01*
X149205004Y-86569784D01*
X149230587Y-86499736D01*
X149243013Y-86418444D01*
X149244312Y-86378705D01*
X149239000Y-86301219D01*
X149220324Y-86224119D01*
X149188201Y-86157684D01*
X149159316Y-86119319D01*
X149102830Y-86068701D01*
X149032926Y-86034674D01*
X148954884Y-86023332D01*
X148880603Y-86033421D01*
X148812546Y-86063689D01*
X148750715Y-86114136D01*
X148739096Y-86126646D01*
X148694821Y-86189601D01*
X148665036Y-86262234D01*
X148650725Y-86334923D01*
X148647505Y-86394459D01*
X148457543Y-86394459D01*
X148456995Y-86382735D01*
X148461761Y-86299474D01*
X148476058Y-86222525D01*
X148499886Y-86151887D01*
X148539731Y-86077452D01*
X148592550Y-86011608D01*
X148655134Y-85956791D01*
X148724274Y-85915437D01*
X148799971Y-85887548D01*
X148882224Y-85873122D01*
X148932170Y-85870924D01*
X149013014Y-85877242D01*
G37*
G36*
X129336217Y-87245000D02*
G01*
X129150837Y-87245000D01*
X129150837Y-86057247D01*
X129094680Y-86105881D01*
X129032884Y-86150463D01*
X128974982Y-86186939D01*
X128909158Y-86224091D01*
X128841793Y-86257685D01*
X128779710Y-86283660D01*
X128779710Y-86096081D01*
X128845955Y-86062890D01*
X128917070Y-86021393D01*
X128983284Y-85976096D01*
X129044599Y-85926997D01*
X129051919Y-85920593D01*
X129105911Y-85869508D01*
X129156472Y-85812968D01*
X129200006Y-85751301D01*
X129216782Y-85720924D01*
X129336217Y-85720924D01*
X129336217Y-87245000D01*
G37*
G36*
X130347383Y-87245000D02*
G01*
X130162002Y-87245000D01*
X130162002Y-86057247D01*
X130105846Y-86105881D01*
X130044049Y-86150463D01*
X129986147Y-86186939D01*
X129920324Y-86224091D01*
X129852959Y-86257685D01*
X129790875Y-86283660D01*
X129790875Y-86096081D01*
X129857120Y-86062890D01*
X129928235Y-86021393D01*
X129994450Y-85976096D01*
X130055764Y-85926997D01*
X130063084Y-85920593D01*
X130117077Y-85869508D01*
X130167637Y-85812968D01*
X130211172Y-85751301D01*
X130227948Y-85720924D01*
X130347383Y-85720924D01*
X130347383Y-87245000D01*
G37*
G36*
X131379431Y-86799501D02*
G01*
X131379431Y-86611922D01*
X131949127Y-86611922D01*
X131949127Y-86799501D01*
X131379431Y-86799501D01*
G37*
G36*
X133083025Y-86142976D02*
G01*
X133407623Y-86142976D01*
X133497383Y-85697477D01*
X133652721Y-85697477D01*
X133563328Y-86142976D01*
X133741381Y-86142976D01*
X133741381Y-86295383D01*
X133532187Y-86295383D01*
X133454884Y-86682264D01*
X133741381Y-86682264D01*
X133741381Y-86834672D01*
X133424110Y-86834672D01*
X133334351Y-87268447D01*
X133180111Y-87268447D01*
X133268405Y-86834672D01*
X132944905Y-86834672D01*
X132855512Y-87268447D01*
X132700907Y-87268447D01*
X132790300Y-86834672D01*
X132616277Y-86834672D01*
X132616277Y-86682264D01*
X132821441Y-86682264D01*
X132976046Y-86682264D01*
X133299546Y-86682264D01*
X133376849Y-86295383D01*
X133052250Y-86295383D01*
X132976046Y-86682264D01*
X132821441Y-86682264D01*
X132897644Y-86295383D01*
X132616277Y-86295383D01*
X132616277Y-86142976D01*
X132928419Y-86142976D01*
X133018178Y-85697477D01*
X133172784Y-85697477D01*
X133083025Y-86142976D01*
G37*
G36*
X134425439Y-85726481D02*
G01*
X134500896Y-85743154D01*
X134568954Y-85770940D01*
X134637676Y-85816307D01*
X134660956Y-85837062D01*
X134713849Y-85898130D01*
X134751631Y-85965564D01*
X134774299Y-86039363D01*
X134781856Y-86119528D01*
X134774076Y-86195349D01*
X134748090Y-86268766D01*
X134726535Y-86304542D01*
X134672391Y-86362318D01*
X134605561Y-86405132D01*
X134559106Y-86425443D01*
X134632142Y-86455195D01*
X134694630Y-86493758D01*
X134751688Y-86546938D01*
X134770865Y-86571256D01*
X134809118Y-86638053D01*
X134833204Y-86712506D01*
X134842767Y-86786061D01*
X134843405Y-86811957D01*
X134836848Y-86893624D01*
X134817178Y-86969366D01*
X134784395Y-87039183D01*
X134738499Y-87103073D01*
X134706385Y-87136922D01*
X134642301Y-87188170D01*
X134569943Y-87226832D01*
X134489310Y-87252905D01*
X134413610Y-87265236D01*
X134345882Y-87268447D01*
X134265103Y-87263810D01*
X134190378Y-87249900D01*
X134110849Y-87221950D01*
X134039560Y-87181378D01*
X133985013Y-87136556D01*
X133931624Y-87075572D01*
X133891347Y-87008348D01*
X133864184Y-86934883D01*
X133850134Y-86855176D01*
X133848058Y-86808293D01*
X134038869Y-86808293D01*
X134048211Y-86885871D01*
X134073939Y-86956437D01*
X134076238Y-86961067D01*
X134119585Y-87023122D01*
X134178870Y-87070526D01*
X134187979Y-87075739D01*
X134260198Y-87104666D01*
X134337409Y-87115882D01*
X134348080Y-87116039D01*
X134426462Y-87107739D01*
X134495828Y-87082838D01*
X134561717Y-87036272D01*
X134567166Y-87031043D01*
X134612955Y-86973183D01*
X134643735Y-86899124D01*
X134653910Y-86822330D01*
X134653995Y-86814155D01*
X134645265Y-86735315D01*
X134619076Y-86665491D01*
X134575427Y-86604683D01*
X134564602Y-86593604D01*
X134504595Y-86547622D01*
X134435859Y-86518671D01*
X134358393Y-86506750D01*
X134341852Y-86506409D01*
X134264279Y-86514853D01*
X134195507Y-86540183D01*
X134135536Y-86582401D01*
X134124598Y-86592871D01*
X134079389Y-86650903D01*
X134048999Y-86724490D01*
X134038953Y-86800253D01*
X134038869Y-86808293D01*
X133848058Y-86808293D01*
X133847993Y-86806828D01*
X133853905Y-86727957D01*
X133871641Y-86656621D01*
X133905215Y-86586196D01*
X133922732Y-86560631D01*
X133975633Y-86504768D01*
X134040913Y-86461283D01*
X134110249Y-86432732D01*
X134135589Y-86425443D01*
X134063305Y-86391896D01*
X134000545Y-86345425D01*
X133964497Y-86303810D01*
X133928442Y-86234373D01*
X133911474Y-86161155D01*
X133908810Y-86114399D01*
X133909454Y-86107438D01*
X134098586Y-86107438D01*
X134108272Y-86183430D01*
X134140625Y-86253081D01*
X134167463Y-86285125D01*
X134230495Y-86329720D01*
X134300699Y-86350706D01*
X134346981Y-86354002D01*
X134421806Y-86344367D01*
X134490656Y-86312186D01*
X134522470Y-86285491D01*
X134566827Y-86224748D01*
X134588571Y-86153846D01*
X134590980Y-86117697D01*
X134581037Y-86044847D01*
X134547823Y-85976392D01*
X134520272Y-85944040D01*
X134457375Y-85898259D01*
X134382990Y-85875818D01*
X134344783Y-85873332D01*
X134270199Y-85883017D01*
X134200912Y-85915371D01*
X134168562Y-85942208D01*
X134123256Y-86002705D01*
X134100295Y-86077999D01*
X134098586Y-86107438D01*
X133909454Y-86107438D01*
X133916206Y-86034395D01*
X133938394Y-85961076D01*
X133975373Y-85894443D01*
X134027145Y-85834497D01*
X134091374Y-85784809D01*
X134165356Y-85749317D01*
X134238093Y-85729908D01*
X134318298Y-85721368D01*
X134342585Y-85720924D01*
X134425439Y-85726481D01*
G37*
D12*
X97016667Y-47707200D02*
X97159524Y-47754819D01*
X97159524Y-47754819D02*
X97397619Y-47754819D01*
X97397619Y-47754819D02*
X97492857Y-47707200D01*
X97492857Y-47707200D02*
X97540476Y-47659580D01*
X97540476Y-47659580D02*
X97588095Y-47564342D01*
X97588095Y-47564342D02*
X97588095Y-47469104D01*
X97588095Y-47469104D02*
X97540476Y-47373866D01*
X97540476Y-47373866D02*
X97492857Y-47326247D01*
X97492857Y-47326247D02*
X97397619Y-47278628D01*
X97397619Y-47278628D02*
X97207143Y-47231009D01*
X97207143Y-47231009D02*
X97111905Y-47183390D01*
X97111905Y-47183390D02*
X97064286Y-47135771D01*
X97064286Y-47135771D02*
X97016667Y-47040533D01*
X97016667Y-47040533D02*
X97016667Y-46945295D01*
X97016667Y-46945295D02*
X97064286Y-46850057D01*
X97064286Y-46850057D02*
X97111905Y-46802438D01*
X97111905Y-46802438D02*
X97207143Y-46754819D01*
X97207143Y-46754819D02*
X97445238Y-46754819D01*
X97445238Y-46754819D02*
X97588095Y-46802438D01*
X97921429Y-46754819D02*
X98159524Y-47754819D01*
X98159524Y-47754819D02*
X98350000Y-47040533D01*
X98350000Y-47040533D02*
X98540476Y-47754819D01*
X98540476Y-47754819D02*
X98778572Y-46754819D01*
X99683333Y-47754819D02*
X99111905Y-47754819D01*
X99397619Y-47754819D02*
X99397619Y-46754819D01*
X99397619Y-46754819D02*
X99302381Y-46897676D01*
X99302381Y-46897676D02*
X99207143Y-46992914D01*
X99207143Y-46992914D02*
X99111905Y-47040533D01*
X126640476Y-77557200D02*
X126783333Y-77604819D01*
X126783333Y-77604819D02*
X127021428Y-77604819D01*
X127021428Y-77604819D02*
X127116666Y-77557200D01*
X127116666Y-77557200D02*
X127164285Y-77509580D01*
X127164285Y-77509580D02*
X127211904Y-77414342D01*
X127211904Y-77414342D02*
X127211904Y-77319104D01*
X127211904Y-77319104D02*
X127164285Y-77223866D01*
X127164285Y-77223866D02*
X127116666Y-77176247D01*
X127116666Y-77176247D02*
X127021428Y-77128628D01*
X127021428Y-77128628D02*
X126830952Y-77081009D01*
X126830952Y-77081009D02*
X126735714Y-77033390D01*
X126735714Y-77033390D02*
X126688095Y-76985771D01*
X126688095Y-76985771D02*
X126640476Y-76890533D01*
X126640476Y-76890533D02*
X126640476Y-76795295D01*
X126640476Y-76795295D02*
X126688095Y-76700057D01*
X126688095Y-76700057D02*
X126735714Y-76652438D01*
X126735714Y-76652438D02*
X126830952Y-76604819D01*
X126830952Y-76604819D02*
X127069047Y-76604819D01*
X127069047Y-76604819D02*
X127211904Y-76652438D01*
X127545238Y-76604819D02*
X127783333Y-77604819D01*
X127783333Y-77604819D02*
X127973809Y-76890533D01*
X127973809Y-76890533D02*
X128164285Y-77604819D01*
X128164285Y-77604819D02*
X128402381Y-76604819D01*
X129307142Y-77604819D02*
X128735714Y-77604819D01*
X129021428Y-77604819D02*
X129021428Y-76604819D01*
X129021428Y-76604819D02*
X128926190Y-76747676D01*
X128926190Y-76747676D02*
X128830952Y-76842914D01*
X128830952Y-76842914D02*
X128735714Y-76890533D01*
X130259523Y-77604819D02*
X129688095Y-77604819D01*
X129973809Y-77604819D02*
X129973809Y-76604819D01*
X129973809Y-76604819D02*
X129878571Y-76747676D01*
X129878571Y-76747676D02*
X129783333Y-76842914D01*
X129783333Y-76842914D02*
X129688095Y-76890533D01*
X104733333Y-60704819D02*
X104400000Y-60228628D01*
X104161905Y-60704819D02*
X104161905Y-59704819D01*
X104161905Y-59704819D02*
X104542857Y-59704819D01*
X104542857Y-59704819D02*
X104638095Y-59752438D01*
X104638095Y-59752438D02*
X104685714Y-59800057D01*
X104685714Y-59800057D02*
X104733333Y-59895295D01*
X104733333Y-59895295D02*
X104733333Y-60038152D01*
X104733333Y-60038152D02*
X104685714Y-60133390D01*
X104685714Y-60133390D02*
X104638095Y-60181009D01*
X104638095Y-60181009D02*
X104542857Y-60228628D01*
X104542857Y-60228628D02*
X104161905Y-60228628D01*
X105114286Y-59800057D02*
X105161905Y-59752438D01*
X105161905Y-59752438D02*
X105257143Y-59704819D01*
X105257143Y-59704819D02*
X105495238Y-59704819D01*
X105495238Y-59704819D02*
X105590476Y-59752438D01*
X105590476Y-59752438D02*
X105638095Y-59800057D01*
X105638095Y-59800057D02*
X105685714Y-59895295D01*
X105685714Y-59895295D02*
X105685714Y-59990533D01*
X105685714Y-59990533D02*
X105638095Y-60133390D01*
X105638095Y-60133390D02*
X105066667Y-60704819D01*
X105066667Y-60704819D02*
X105685714Y-60704819D01*
X99333333Y-75554819D02*
X99000000Y-75078628D01*
X98761905Y-75554819D02*
X98761905Y-74554819D01*
X98761905Y-74554819D02*
X99142857Y-74554819D01*
X99142857Y-74554819D02*
X99238095Y-74602438D01*
X99238095Y-74602438D02*
X99285714Y-74650057D01*
X99285714Y-74650057D02*
X99333333Y-74745295D01*
X99333333Y-74745295D02*
X99333333Y-74888152D01*
X99333333Y-74888152D02*
X99285714Y-74983390D01*
X99285714Y-74983390D02*
X99238095Y-75031009D01*
X99238095Y-75031009D02*
X99142857Y-75078628D01*
X99142857Y-75078628D02*
X98761905Y-75078628D01*
X99666667Y-74554819D02*
X100285714Y-74554819D01*
X100285714Y-74554819D02*
X99952381Y-74935771D01*
X99952381Y-74935771D02*
X100095238Y-74935771D01*
X100095238Y-74935771D02*
X100190476Y-74983390D01*
X100190476Y-74983390D02*
X100238095Y-75031009D01*
X100238095Y-75031009D02*
X100285714Y-75126247D01*
X100285714Y-75126247D02*
X100285714Y-75364342D01*
X100285714Y-75364342D02*
X100238095Y-75459580D01*
X100238095Y-75459580D02*
X100190476Y-75507200D01*
X100190476Y-75507200D02*
X100095238Y-75554819D01*
X100095238Y-75554819D02*
X99809524Y-75554819D01*
X99809524Y-75554819D02*
X99714286Y-75507200D01*
X99714286Y-75507200D02*
X99666667Y-75459580D01*
X105966666Y-38654819D02*
X105966666Y-39369104D01*
X105966666Y-39369104D02*
X105919047Y-39511961D01*
X105919047Y-39511961D02*
X105823809Y-39607200D01*
X105823809Y-39607200D02*
X105680952Y-39654819D01*
X105680952Y-39654819D02*
X105585714Y-39654819D01*
X106966666Y-39654819D02*
X106395238Y-39654819D01*
X106680952Y-39654819D02*
X106680952Y-38654819D01*
X106680952Y-38654819D02*
X106585714Y-38797676D01*
X106585714Y-38797676D02*
X106490476Y-38892914D01*
X106490476Y-38892914D02*
X106395238Y-38940533D01*
X113883333Y-46704819D02*
X113550000Y-46228628D01*
X113311905Y-46704819D02*
X113311905Y-45704819D01*
X113311905Y-45704819D02*
X113692857Y-45704819D01*
X113692857Y-45704819D02*
X113788095Y-45752438D01*
X113788095Y-45752438D02*
X113835714Y-45800057D01*
X113835714Y-45800057D02*
X113883333Y-45895295D01*
X113883333Y-45895295D02*
X113883333Y-46038152D01*
X113883333Y-46038152D02*
X113835714Y-46133390D01*
X113835714Y-46133390D02*
X113788095Y-46181009D01*
X113788095Y-46181009D02*
X113692857Y-46228628D01*
X113692857Y-46228628D02*
X113311905Y-46228628D01*
X114454762Y-46133390D02*
X114359524Y-46085771D01*
X114359524Y-46085771D02*
X114311905Y-46038152D01*
X114311905Y-46038152D02*
X114264286Y-45942914D01*
X114264286Y-45942914D02*
X114264286Y-45895295D01*
X114264286Y-45895295D02*
X114311905Y-45800057D01*
X114311905Y-45800057D02*
X114359524Y-45752438D01*
X114359524Y-45752438D02*
X114454762Y-45704819D01*
X114454762Y-45704819D02*
X114645238Y-45704819D01*
X114645238Y-45704819D02*
X114740476Y-45752438D01*
X114740476Y-45752438D02*
X114788095Y-45800057D01*
X114788095Y-45800057D02*
X114835714Y-45895295D01*
X114835714Y-45895295D02*
X114835714Y-45942914D01*
X114835714Y-45942914D02*
X114788095Y-46038152D01*
X114788095Y-46038152D02*
X114740476Y-46085771D01*
X114740476Y-46085771D02*
X114645238Y-46133390D01*
X114645238Y-46133390D02*
X114454762Y-46133390D01*
X114454762Y-46133390D02*
X114359524Y-46181009D01*
X114359524Y-46181009D02*
X114311905Y-46228628D01*
X114311905Y-46228628D02*
X114264286Y-46323866D01*
X114264286Y-46323866D02*
X114264286Y-46514342D01*
X114264286Y-46514342D02*
X114311905Y-46609580D01*
X114311905Y-46609580D02*
X114359524Y-46657200D01*
X114359524Y-46657200D02*
X114454762Y-46704819D01*
X114454762Y-46704819D02*
X114645238Y-46704819D01*
X114645238Y-46704819D02*
X114740476Y-46657200D01*
X114740476Y-46657200D02*
X114788095Y-46609580D01*
X114788095Y-46609580D02*
X114835714Y-46514342D01*
X114835714Y-46514342D02*
X114835714Y-46323866D01*
X114835714Y-46323866D02*
X114788095Y-46228628D01*
X114788095Y-46228628D02*
X114740476Y-46181009D01*
X114740476Y-46181009D02*
X114645238Y-46133390D01*
X97466667Y-92107200D02*
X97609524Y-92154819D01*
X97609524Y-92154819D02*
X97847619Y-92154819D01*
X97847619Y-92154819D02*
X97942857Y-92107200D01*
X97942857Y-92107200D02*
X97990476Y-92059580D01*
X97990476Y-92059580D02*
X98038095Y-91964342D01*
X98038095Y-91964342D02*
X98038095Y-91869104D01*
X98038095Y-91869104D02*
X97990476Y-91773866D01*
X97990476Y-91773866D02*
X97942857Y-91726247D01*
X97942857Y-91726247D02*
X97847619Y-91678628D01*
X97847619Y-91678628D02*
X97657143Y-91631009D01*
X97657143Y-91631009D02*
X97561905Y-91583390D01*
X97561905Y-91583390D02*
X97514286Y-91535771D01*
X97514286Y-91535771D02*
X97466667Y-91440533D01*
X97466667Y-91440533D02*
X97466667Y-91345295D01*
X97466667Y-91345295D02*
X97514286Y-91250057D01*
X97514286Y-91250057D02*
X97561905Y-91202438D01*
X97561905Y-91202438D02*
X97657143Y-91154819D01*
X97657143Y-91154819D02*
X97895238Y-91154819D01*
X97895238Y-91154819D02*
X98038095Y-91202438D01*
X98371429Y-91154819D02*
X98609524Y-92154819D01*
X98609524Y-92154819D02*
X98800000Y-91440533D01*
X98800000Y-91440533D02*
X98990476Y-92154819D01*
X98990476Y-92154819D02*
X99228572Y-91154819D01*
X100038095Y-91488152D02*
X100038095Y-92154819D01*
X99800000Y-91107200D02*
X99561905Y-91821485D01*
X99561905Y-91821485D02*
X100180952Y-91821485D01*
X141390476Y-77457200D02*
X141533333Y-77504819D01*
X141533333Y-77504819D02*
X141771428Y-77504819D01*
X141771428Y-77504819D02*
X141866666Y-77457200D01*
X141866666Y-77457200D02*
X141914285Y-77409580D01*
X141914285Y-77409580D02*
X141961904Y-77314342D01*
X141961904Y-77314342D02*
X141961904Y-77219104D01*
X141961904Y-77219104D02*
X141914285Y-77123866D01*
X141914285Y-77123866D02*
X141866666Y-77076247D01*
X141866666Y-77076247D02*
X141771428Y-77028628D01*
X141771428Y-77028628D02*
X141580952Y-76981009D01*
X141580952Y-76981009D02*
X141485714Y-76933390D01*
X141485714Y-76933390D02*
X141438095Y-76885771D01*
X141438095Y-76885771D02*
X141390476Y-76790533D01*
X141390476Y-76790533D02*
X141390476Y-76695295D01*
X141390476Y-76695295D02*
X141438095Y-76600057D01*
X141438095Y-76600057D02*
X141485714Y-76552438D01*
X141485714Y-76552438D02*
X141580952Y-76504819D01*
X141580952Y-76504819D02*
X141819047Y-76504819D01*
X141819047Y-76504819D02*
X141961904Y-76552438D01*
X142295238Y-76504819D02*
X142533333Y-77504819D01*
X142533333Y-77504819D02*
X142723809Y-76790533D01*
X142723809Y-76790533D02*
X142914285Y-77504819D01*
X142914285Y-77504819D02*
X143152381Y-76504819D01*
X144057142Y-77504819D02*
X143485714Y-77504819D01*
X143771428Y-77504819D02*
X143771428Y-76504819D01*
X143771428Y-76504819D02*
X143676190Y-76647676D01*
X143676190Y-76647676D02*
X143580952Y-76742914D01*
X143580952Y-76742914D02*
X143485714Y-76790533D01*
X144961904Y-76504819D02*
X144485714Y-76504819D01*
X144485714Y-76504819D02*
X144438095Y-76981009D01*
X144438095Y-76981009D02*
X144485714Y-76933390D01*
X144485714Y-76933390D02*
X144580952Y-76885771D01*
X144580952Y-76885771D02*
X144819047Y-76885771D01*
X144819047Y-76885771D02*
X144914285Y-76933390D01*
X144914285Y-76933390D02*
X144961904Y-76981009D01*
X144961904Y-76981009D02*
X145009523Y-77076247D01*
X145009523Y-77076247D02*
X145009523Y-77314342D01*
X145009523Y-77314342D02*
X144961904Y-77409580D01*
X144961904Y-77409580D02*
X144914285Y-77457200D01*
X144914285Y-77457200D02*
X144819047Y-77504819D01*
X144819047Y-77504819D02*
X144580952Y-77504819D01*
X144580952Y-77504819D02*
X144485714Y-77457200D01*
X144485714Y-77457200D02*
X144438095Y-77409580D01*
X142757142Y-90654819D02*
X142423809Y-90178628D01*
X142185714Y-90654819D02*
X142185714Y-89654819D01*
X142185714Y-89654819D02*
X142566666Y-89654819D01*
X142566666Y-89654819D02*
X142661904Y-89702438D01*
X142661904Y-89702438D02*
X142709523Y-89750057D01*
X142709523Y-89750057D02*
X142757142Y-89845295D01*
X142757142Y-89845295D02*
X142757142Y-89988152D01*
X142757142Y-89988152D02*
X142709523Y-90083390D01*
X142709523Y-90083390D02*
X142661904Y-90131009D01*
X142661904Y-90131009D02*
X142566666Y-90178628D01*
X142566666Y-90178628D02*
X142185714Y-90178628D01*
X143709523Y-90654819D02*
X143138095Y-90654819D01*
X143423809Y-90654819D02*
X143423809Y-89654819D01*
X143423809Y-89654819D02*
X143328571Y-89797676D01*
X143328571Y-89797676D02*
X143233333Y-89892914D01*
X143233333Y-89892914D02*
X143138095Y-89940533D01*
X144614285Y-89654819D02*
X144138095Y-89654819D01*
X144138095Y-89654819D02*
X144090476Y-90131009D01*
X144090476Y-90131009D02*
X144138095Y-90083390D01*
X144138095Y-90083390D02*
X144233333Y-90035771D01*
X144233333Y-90035771D02*
X144471428Y-90035771D01*
X144471428Y-90035771D02*
X144566666Y-90083390D01*
X144566666Y-90083390D02*
X144614285Y-90131009D01*
X144614285Y-90131009D02*
X144661904Y-90226247D01*
X144661904Y-90226247D02*
X144661904Y-90464342D01*
X144661904Y-90464342D02*
X144614285Y-90559580D01*
X144614285Y-90559580D02*
X144566666Y-90607200D01*
X144566666Y-90607200D02*
X144471428Y-90654819D01*
X144471428Y-90654819D02*
X144233333Y-90654819D01*
X144233333Y-90654819D02*
X144138095Y-90607200D01*
X144138095Y-90607200D02*
X144090476Y-90559580D01*
X140931905Y-36594819D02*
X140931905Y-35594819D01*
X140931905Y-35594819D02*
X141170000Y-35594819D01*
X141170000Y-35594819D02*
X141312857Y-35642438D01*
X141312857Y-35642438D02*
X141408095Y-35737676D01*
X141408095Y-35737676D02*
X141455714Y-35832914D01*
X141455714Y-35832914D02*
X141503333Y-36023390D01*
X141503333Y-36023390D02*
X141503333Y-36166247D01*
X141503333Y-36166247D02*
X141455714Y-36356723D01*
X141455714Y-36356723D02*
X141408095Y-36451961D01*
X141408095Y-36451961D02*
X141312857Y-36547200D01*
X141312857Y-36547200D02*
X141170000Y-36594819D01*
X141170000Y-36594819D02*
X140931905Y-36594819D01*
X141884286Y-35690057D02*
X141931905Y-35642438D01*
X141931905Y-35642438D02*
X142027143Y-35594819D01*
X142027143Y-35594819D02*
X142265238Y-35594819D01*
X142265238Y-35594819D02*
X142360476Y-35642438D01*
X142360476Y-35642438D02*
X142408095Y-35690057D01*
X142408095Y-35690057D02*
X142455714Y-35785295D01*
X142455714Y-35785295D02*
X142455714Y-35880533D01*
X142455714Y-35880533D02*
X142408095Y-36023390D01*
X142408095Y-36023390D02*
X141836667Y-36594819D01*
X141836667Y-36594819D02*
X142455714Y-36594819D01*
X111816667Y-77407200D02*
X111959524Y-77454819D01*
X111959524Y-77454819D02*
X112197619Y-77454819D01*
X112197619Y-77454819D02*
X112292857Y-77407200D01*
X112292857Y-77407200D02*
X112340476Y-77359580D01*
X112340476Y-77359580D02*
X112388095Y-77264342D01*
X112388095Y-77264342D02*
X112388095Y-77169104D01*
X112388095Y-77169104D02*
X112340476Y-77073866D01*
X112340476Y-77073866D02*
X112292857Y-77026247D01*
X112292857Y-77026247D02*
X112197619Y-76978628D01*
X112197619Y-76978628D02*
X112007143Y-76931009D01*
X112007143Y-76931009D02*
X111911905Y-76883390D01*
X111911905Y-76883390D02*
X111864286Y-76835771D01*
X111864286Y-76835771D02*
X111816667Y-76740533D01*
X111816667Y-76740533D02*
X111816667Y-76645295D01*
X111816667Y-76645295D02*
X111864286Y-76550057D01*
X111864286Y-76550057D02*
X111911905Y-76502438D01*
X111911905Y-76502438D02*
X112007143Y-76454819D01*
X112007143Y-76454819D02*
X112245238Y-76454819D01*
X112245238Y-76454819D02*
X112388095Y-76502438D01*
X112721429Y-76454819D02*
X112959524Y-77454819D01*
X112959524Y-77454819D02*
X113150000Y-76740533D01*
X113150000Y-76740533D02*
X113340476Y-77454819D01*
X113340476Y-77454819D02*
X113578572Y-76454819D01*
X113864286Y-76454819D02*
X114530952Y-76454819D01*
X114530952Y-76454819D02*
X114102381Y-77454819D01*
X142657142Y-75404819D02*
X142323809Y-74928628D01*
X142085714Y-75404819D02*
X142085714Y-74404819D01*
X142085714Y-74404819D02*
X142466666Y-74404819D01*
X142466666Y-74404819D02*
X142561904Y-74452438D01*
X142561904Y-74452438D02*
X142609523Y-74500057D01*
X142609523Y-74500057D02*
X142657142Y-74595295D01*
X142657142Y-74595295D02*
X142657142Y-74738152D01*
X142657142Y-74738152D02*
X142609523Y-74833390D01*
X142609523Y-74833390D02*
X142561904Y-74881009D01*
X142561904Y-74881009D02*
X142466666Y-74928628D01*
X142466666Y-74928628D02*
X142085714Y-74928628D01*
X143609523Y-75404819D02*
X143038095Y-75404819D01*
X143323809Y-75404819D02*
X143323809Y-74404819D01*
X143323809Y-74404819D02*
X143228571Y-74547676D01*
X143228571Y-74547676D02*
X143133333Y-74642914D01*
X143133333Y-74642914D02*
X143038095Y-74690533D01*
X144466666Y-74738152D02*
X144466666Y-75404819D01*
X144228571Y-74357200D02*
X143990476Y-75071485D01*
X143990476Y-75071485D02*
X144609523Y-75071485D01*
X113983333Y-60554819D02*
X113650000Y-60078628D01*
X113411905Y-60554819D02*
X113411905Y-59554819D01*
X113411905Y-59554819D02*
X113792857Y-59554819D01*
X113792857Y-59554819D02*
X113888095Y-59602438D01*
X113888095Y-59602438D02*
X113935714Y-59650057D01*
X113935714Y-59650057D02*
X113983333Y-59745295D01*
X113983333Y-59745295D02*
X113983333Y-59888152D01*
X113983333Y-59888152D02*
X113935714Y-59983390D01*
X113935714Y-59983390D02*
X113888095Y-60031009D01*
X113888095Y-60031009D02*
X113792857Y-60078628D01*
X113792857Y-60078628D02*
X113411905Y-60078628D01*
X114888095Y-59554819D02*
X114411905Y-59554819D01*
X114411905Y-59554819D02*
X114364286Y-60031009D01*
X114364286Y-60031009D02*
X114411905Y-59983390D01*
X114411905Y-59983390D02*
X114507143Y-59935771D01*
X114507143Y-59935771D02*
X114745238Y-59935771D01*
X114745238Y-59935771D02*
X114840476Y-59983390D01*
X114840476Y-59983390D02*
X114888095Y-60031009D01*
X114888095Y-60031009D02*
X114935714Y-60126247D01*
X114935714Y-60126247D02*
X114935714Y-60364342D01*
X114935714Y-60364342D02*
X114888095Y-60459580D01*
X114888095Y-60459580D02*
X114840476Y-60507200D01*
X114840476Y-60507200D02*
X114745238Y-60554819D01*
X114745238Y-60554819D02*
X114507143Y-60554819D01*
X114507143Y-60554819D02*
X114411905Y-60507200D01*
X114411905Y-60507200D02*
X114364286Y-60459580D01*
X141540476Y-47907200D02*
X141683333Y-47954819D01*
X141683333Y-47954819D02*
X141921428Y-47954819D01*
X141921428Y-47954819D02*
X142016666Y-47907200D01*
X142016666Y-47907200D02*
X142064285Y-47859580D01*
X142064285Y-47859580D02*
X142111904Y-47764342D01*
X142111904Y-47764342D02*
X142111904Y-47669104D01*
X142111904Y-47669104D02*
X142064285Y-47573866D01*
X142064285Y-47573866D02*
X142016666Y-47526247D01*
X142016666Y-47526247D02*
X141921428Y-47478628D01*
X141921428Y-47478628D02*
X141730952Y-47431009D01*
X141730952Y-47431009D02*
X141635714Y-47383390D01*
X141635714Y-47383390D02*
X141588095Y-47335771D01*
X141588095Y-47335771D02*
X141540476Y-47240533D01*
X141540476Y-47240533D02*
X141540476Y-47145295D01*
X141540476Y-47145295D02*
X141588095Y-47050057D01*
X141588095Y-47050057D02*
X141635714Y-47002438D01*
X141635714Y-47002438D02*
X141730952Y-46954819D01*
X141730952Y-46954819D02*
X141969047Y-46954819D01*
X141969047Y-46954819D02*
X142111904Y-47002438D01*
X142445238Y-46954819D02*
X142683333Y-47954819D01*
X142683333Y-47954819D02*
X142873809Y-47240533D01*
X142873809Y-47240533D02*
X143064285Y-47954819D01*
X143064285Y-47954819D02*
X143302381Y-46954819D01*
X144207142Y-47954819D02*
X143635714Y-47954819D01*
X143921428Y-47954819D02*
X143921428Y-46954819D01*
X143921428Y-46954819D02*
X143826190Y-47097676D01*
X143826190Y-47097676D02*
X143730952Y-47192914D01*
X143730952Y-47192914D02*
X143635714Y-47240533D01*
X144540476Y-46954819D02*
X145159523Y-46954819D01*
X145159523Y-46954819D02*
X144826190Y-47335771D01*
X144826190Y-47335771D02*
X144969047Y-47335771D01*
X144969047Y-47335771D02*
X145064285Y-47383390D01*
X145064285Y-47383390D02*
X145111904Y-47431009D01*
X145111904Y-47431009D02*
X145159523Y-47526247D01*
X145159523Y-47526247D02*
X145159523Y-47764342D01*
X145159523Y-47764342D02*
X145111904Y-47859580D01*
X145111904Y-47859580D02*
X145064285Y-47907200D01*
X145064285Y-47907200D02*
X144969047Y-47954819D01*
X144969047Y-47954819D02*
X144683333Y-47954819D01*
X144683333Y-47954819D02*
X144588095Y-47907200D01*
X144588095Y-47907200D02*
X144540476Y-47859580D01*
X113333333Y-90404819D02*
X113000000Y-89928628D01*
X112761905Y-90404819D02*
X112761905Y-89404819D01*
X112761905Y-89404819D02*
X113142857Y-89404819D01*
X113142857Y-89404819D02*
X113238095Y-89452438D01*
X113238095Y-89452438D02*
X113285714Y-89500057D01*
X113285714Y-89500057D02*
X113333333Y-89595295D01*
X113333333Y-89595295D02*
X113333333Y-89738152D01*
X113333333Y-89738152D02*
X113285714Y-89833390D01*
X113285714Y-89833390D02*
X113238095Y-89881009D01*
X113238095Y-89881009D02*
X113142857Y-89928628D01*
X113142857Y-89928628D02*
X112761905Y-89928628D01*
X113666667Y-89404819D02*
X114333333Y-89404819D01*
X114333333Y-89404819D02*
X113904762Y-90404819D01*
X126840476Y-92407200D02*
X126983333Y-92454819D01*
X126983333Y-92454819D02*
X127221428Y-92454819D01*
X127221428Y-92454819D02*
X127316666Y-92407200D01*
X127316666Y-92407200D02*
X127364285Y-92359580D01*
X127364285Y-92359580D02*
X127411904Y-92264342D01*
X127411904Y-92264342D02*
X127411904Y-92169104D01*
X127411904Y-92169104D02*
X127364285Y-92073866D01*
X127364285Y-92073866D02*
X127316666Y-92026247D01*
X127316666Y-92026247D02*
X127221428Y-91978628D01*
X127221428Y-91978628D02*
X127030952Y-91931009D01*
X127030952Y-91931009D02*
X126935714Y-91883390D01*
X126935714Y-91883390D02*
X126888095Y-91835771D01*
X126888095Y-91835771D02*
X126840476Y-91740533D01*
X126840476Y-91740533D02*
X126840476Y-91645295D01*
X126840476Y-91645295D02*
X126888095Y-91550057D01*
X126888095Y-91550057D02*
X126935714Y-91502438D01*
X126935714Y-91502438D02*
X127030952Y-91454819D01*
X127030952Y-91454819D02*
X127269047Y-91454819D01*
X127269047Y-91454819D02*
X127411904Y-91502438D01*
X127745238Y-91454819D02*
X127983333Y-92454819D01*
X127983333Y-92454819D02*
X128173809Y-91740533D01*
X128173809Y-91740533D02*
X128364285Y-92454819D01*
X128364285Y-92454819D02*
X128602381Y-91454819D01*
X129507142Y-92454819D02*
X128935714Y-92454819D01*
X129221428Y-92454819D02*
X129221428Y-91454819D01*
X129221428Y-91454819D02*
X129126190Y-91597676D01*
X129126190Y-91597676D02*
X129030952Y-91692914D01*
X129030952Y-91692914D02*
X128935714Y-91740533D01*
X129888095Y-91550057D02*
X129935714Y-91502438D01*
X129935714Y-91502438D02*
X130030952Y-91454819D01*
X130030952Y-91454819D02*
X130269047Y-91454819D01*
X130269047Y-91454819D02*
X130364285Y-91502438D01*
X130364285Y-91502438D02*
X130411904Y-91550057D01*
X130411904Y-91550057D02*
X130459523Y-91645295D01*
X130459523Y-91645295D02*
X130459523Y-91740533D01*
X130459523Y-91740533D02*
X130411904Y-91883390D01*
X130411904Y-91883390D02*
X129840476Y-92454819D01*
X129840476Y-92454819D02*
X130459523Y-92454819D01*
X148654819Y-42942857D02*
X148178628Y-43276190D01*
X148654819Y-43514285D02*
X147654819Y-43514285D01*
X147654819Y-43514285D02*
X147654819Y-43133333D01*
X147654819Y-43133333D02*
X147702438Y-43038095D01*
X147702438Y-43038095D02*
X147750057Y-42990476D01*
X147750057Y-42990476D02*
X147845295Y-42942857D01*
X147845295Y-42942857D02*
X147988152Y-42942857D01*
X147988152Y-42942857D02*
X148083390Y-42990476D01*
X148083390Y-42990476D02*
X148131009Y-43038095D01*
X148131009Y-43038095D02*
X148178628Y-43133333D01*
X148178628Y-43133333D02*
X148178628Y-43514285D01*
X148654819Y-41990476D02*
X148654819Y-42561904D01*
X148654819Y-42276190D02*
X147654819Y-42276190D01*
X147654819Y-42276190D02*
X147797676Y-42371428D01*
X147797676Y-42371428D02*
X147892914Y-42466666D01*
X147892914Y-42466666D02*
X147940533Y-42561904D01*
X148654819Y-41514285D02*
X148654819Y-41323809D01*
X148654819Y-41323809D02*
X148607200Y-41228571D01*
X148607200Y-41228571D02*
X148559580Y-41180952D01*
X148559580Y-41180952D02*
X148416723Y-41085714D01*
X148416723Y-41085714D02*
X148226247Y-41038095D01*
X148226247Y-41038095D02*
X147845295Y-41038095D01*
X147845295Y-41038095D02*
X147750057Y-41085714D01*
X147750057Y-41085714D02*
X147702438Y-41133333D01*
X147702438Y-41133333D02*
X147654819Y-41228571D01*
X147654819Y-41228571D02*
X147654819Y-41419047D01*
X147654819Y-41419047D02*
X147702438Y-41514285D01*
X147702438Y-41514285D02*
X147750057Y-41561904D01*
X147750057Y-41561904D02*
X147845295Y-41609523D01*
X147845295Y-41609523D02*
X148083390Y-41609523D01*
X148083390Y-41609523D02*
X148178628Y-41561904D01*
X148178628Y-41561904D02*
X148226247Y-41514285D01*
X148226247Y-41514285D02*
X148273866Y-41419047D01*
X148273866Y-41419047D02*
X148273866Y-41228571D01*
X148273866Y-41228571D02*
X148226247Y-41133333D01*
X148226247Y-41133333D02*
X148178628Y-41085714D01*
X148178628Y-41085714D02*
X148083390Y-41038095D01*
X127907142Y-46554819D02*
X127573809Y-46078628D01*
X127335714Y-46554819D02*
X127335714Y-45554819D01*
X127335714Y-45554819D02*
X127716666Y-45554819D01*
X127716666Y-45554819D02*
X127811904Y-45602438D01*
X127811904Y-45602438D02*
X127859523Y-45650057D01*
X127859523Y-45650057D02*
X127907142Y-45745295D01*
X127907142Y-45745295D02*
X127907142Y-45888152D01*
X127907142Y-45888152D02*
X127859523Y-45983390D01*
X127859523Y-45983390D02*
X127811904Y-46031009D01*
X127811904Y-46031009D02*
X127716666Y-46078628D01*
X127716666Y-46078628D02*
X127335714Y-46078628D01*
X128859523Y-46554819D02*
X128288095Y-46554819D01*
X128573809Y-46554819D02*
X128573809Y-45554819D01*
X128573809Y-45554819D02*
X128478571Y-45697676D01*
X128478571Y-45697676D02*
X128383333Y-45792914D01*
X128383333Y-45792914D02*
X128288095Y-45840533D01*
X129240476Y-45650057D02*
X129288095Y-45602438D01*
X129288095Y-45602438D02*
X129383333Y-45554819D01*
X129383333Y-45554819D02*
X129621428Y-45554819D01*
X129621428Y-45554819D02*
X129716666Y-45602438D01*
X129716666Y-45602438D02*
X129764285Y-45650057D01*
X129764285Y-45650057D02*
X129811904Y-45745295D01*
X129811904Y-45745295D02*
X129811904Y-45840533D01*
X129811904Y-45840533D02*
X129764285Y-45983390D01*
X129764285Y-45983390D02*
X129192857Y-46554819D01*
X129192857Y-46554819D02*
X129811904Y-46554819D01*
X97316667Y-77457200D02*
X97459524Y-77504819D01*
X97459524Y-77504819D02*
X97697619Y-77504819D01*
X97697619Y-77504819D02*
X97792857Y-77457200D01*
X97792857Y-77457200D02*
X97840476Y-77409580D01*
X97840476Y-77409580D02*
X97888095Y-77314342D01*
X97888095Y-77314342D02*
X97888095Y-77219104D01*
X97888095Y-77219104D02*
X97840476Y-77123866D01*
X97840476Y-77123866D02*
X97792857Y-77076247D01*
X97792857Y-77076247D02*
X97697619Y-77028628D01*
X97697619Y-77028628D02*
X97507143Y-76981009D01*
X97507143Y-76981009D02*
X97411905Y-76933390D01*
X97411905Y-76933390D02*
X97364286Y-76885771D01*
X97364286Y-76885771D02*
X97316667Y-76790533D01*
X97316667Y-76790533D02*
X97316667Y-76695295D01*
X97316667Y-76695295D02*
X97364286Y-76600057D01*
X97364286Y-76600057D02*
X97411905Y-76552438D01*
X97411905Y-76552438D02*
X97507143Y-76504819D01*
X97507143Y-76504819D02*
X97745238Y-76504819D01*
X97745238Y-76504819D02*
X97888095Y-76552438D01*
X98221429Y-76504819D02*
X98459524Y-77504819D01*
X98459524Y-77504819D02*
X98650000Y-76790533D01*
X98650000Y-76790533D02*
X98840476Y-77504819D01*
X98840476Y-77504819D02*
X99078572Y-76504819D01*
X99364286Y-76504819D02*
X99983333Y-76504819D01*
X99983333Y-76504819D02*
X99650000Y-76885771D01*
X99650000Y-76885771D02*
X99792857Y-76885771D01*
X99792857Y-76885771D02*
X99888095Y-76933390D01*
X99888095Y-76933390D02*
X99935714Y-76981009D01*
X99935714Y-76981009D02*
X99983333Y-77076247D01*
X99983333Y-77076247D02*
X99983333Y-77314342D01*
X99983333Y-77314342D02*
X99935714Y-77409580D01*
X99935714Y-77409580D02*
X99888095Y-77457200D01*
X99888095Y-77457200D02*
X99792857Y-77504819D01*
X99792857Y-77504819D02*
X99507143Y-77504819D01*
X99507143Y-77504819D02*
X99411905Y-77457200D01*
X99411905Y-77457200D02*
X99364286Y-77409580D01*
X126540476Y-62757200D02*
X126683333Y-62804819D01*
X126683333Y-62804819D02*
X126921428Y-62804819D01*
X126921428Y-62804819D02*
X127016666Y-62757200D01*
X127016666Y-62757200D02*
X127064285Y-62709580D01*
X127064285Y-62709580D02*
X127111904Y-62614342D01*
X127111904Y-62614342D02*
X127111904Y-62519104D01*
X127111904Y-62519104D02*
X127064285Y-62423866D01*
X127064285Y-62423866D02*
X127016666Y-62376247D01*
X127016666Y-62376247D02*
X126921428Y-62328628D01*
X126921428Y-62328628D02*
X126730952Y-62281009D01*
X126730952Y-62281009D02*
X126635714Y-62233390D01*
X126635714Y-62233390D02*
X126588095Y-62185771D01*
X126588095Y-62185771D02*
X126540476Y-62090533D01*
X126540476Y-62090533D02*
X126540476Y-61995295D01*
X126540476Y-61995295D02*
X126588095Y-61900057D01*
X126588095Y-61900057D02*
X126635714Y-61852438D01*
X126635714Y-61852438D02*
X126730952Y-61804819D01*
X126730952Y-61804819D02*
X126969047Y-61804819D01*
X126969047Y-61804819D02*
X127111904Y-61852438D01*
X127445238Y-61804819D02*
X127683333Y-62804819D01*
X127683333Y-62804819D02*
X127873809Y-62090533D01*
X127873809Y-62090533D02*
X128064285Y-62804819D01*
X128064285Y-62804819D02*
X128302381Y-61804819D01*
X129207142Y-62804819D02*
X128635714Y-62804819D01*
X128921428Y-62804819D02*
X128921428Y-61804819D01*
X128921428Y-61804819D02*
X128826190Y-61947676D01*
X128826190Y-61947676D02*
X128730952Y-62042914D01*
X128730952Y-62042914D02*
X128635714Y-62090533D01*
X129826190Y-61804819D02*
X129921428Y-61804819D01*
X129921428Y-61804819D02*
X130016666Y-61852438D01*
X130016666Y-61852438D02*
X130064285Y-61900057D01*
X130064285Y-61900057D02*
X130111904Y-61995295D01*
X130111904Y-61995295D02*
X130159523Y-62185771D01*
X130159523Y-62185771D02*
X130159523Y-62423866D01*
X130159523Y-62423866D02*
X130111904Y-62614342D01*
X130111904Y-62614342D02*
X130064285Y-62709580D01*
X130064285Y-62709580D02*
X130016666Y-62757200D01*
X130016666Y-62757200D02*
X129921428Y-62804819D01*
X129921428Y-62804819D02*
X129826190Y-62804819D01*
X129826190Y-62804819D02*
X129730952Y-62757200D01*
X129730952Y-62757200D02*
X129683333Y-62709580D01*
X129683333Y-62709580D02*
X129635714Y-62614342D01*
X129635714Y-62614342D02*
X129588095Y-62423866D01*
X129588095Y-62423866D02*
X129588095Y-62185771D01*
X129588095Y-62185771D02*
X129635714Y-61995295D01*
X129635714Y-61995295D02*
X129683333Y-61900057D01*
X129683333Y-61900057D02*
X129730952Y-61852438D01*
X129730952Y-61852438D02*
X129826190Y-61804819D01*
X112557142Y-45054819D02*
X112223809Y-44578628D01*
X111985714Y-45054819D02*
X111985714Y-44054819D01*
X111985714Y-44054819D02*
X112366666Y-44054819D01*
X112366666Y-44054819D02*
X112461904Y-44102438D01*
X112461904Y-44102438D02*
X112509523Y-44150057D01*
X112509523Y-44150057D02*
X112557142Y-44245295D01*
X112557142Y-44245295D02*
X112557142Y-44388152D01*
X112557142Y-44388152D02*
X112509523Y-44483390D01*
X112509523Y-44483390D02*
X112461904Y-44531009D01*
X112461904Y-44531009D02*
X112366666Y-44578628D01*
X112366666Y-44578628D02*
X111985714Y-44578628D01*
X113509523Y-45054819D02*
X112938095Y-45054819D01*
X113223809Y-45054819D02*
X113223809Y-44054819D01*
X113223809Y-44054819D02*
X113128571Y-44197676D01*
X113128571Y-44197676D02*
X113033333Y-44292914D01*
X113033333Y-44292914D02*
X112938095Y-44340533D01*
X113842857Y-44054819D02*
X114509523Y-44054819D01*
X114509523Y-44054819D02*
X114080952Y-45054819D01*
X111766667Y-62707200D02*
X111909524Y-62754819D01*
X111909524Y-62754819D02*
X112147619Y-62754819D01*
X112147619Y-62754819D02*
X112242857Y-62707200D01*
X112242857Y-62707200D02*
X112290476Y-62659580D01*
X112290476Y-62659580D02*
X112338095Y-62564342D01*
X112338095Y-62564342D02*
X112338095Y-62469104D01*
X112338095Y-62469104D02*
X112290476Y-62373866D01*
X112290476Y-62373866D02*
X112242857Y-62326247D01*
X112242857Y-62326247D02*
X112147619Y-62278628D01*
X112147619Y-62278628D02*
X111957143Y-62231009D01*
X111957143Y-62231009D02*
X111861905Y-62183390D01*
X111861905Y-62183390D02*
X111814286Y-62135771D01*
X111814286Y-62135771D02*
X111766667Y-62040533D01*
X111766667Y-62040533D02*
X111766667Y-61945295D01*
X111766667Y-61945295D02*
X111814286Y-61850057D01*
X111814286Y-61850057D02*
X111861905Y-61802438D01*
X111861905Y-61802438D02*
X111957143Y-61754819D01*
X111957143Y-61754819D02*
X112195238Y-61754819D01*
X112195238Y-61754819D02*
X112338095Y-61802438D01*
X112671429Y-61754819D02*
X112909524Y-62754819D01*
X112909524Y-62754819D02*
X113100000Y-62040533D01*
X113100000Y-62040533D02*
X113290476Y-62754819D01*
X113290476Y-62754819D02*
X113528572Y-61754819D01*
X114338095Y-61754819D02*
X114147619Y-61754819D01*
X114147619Y-61754819D02*
X114052381Y-61802438D01*
X114052381Y-61802438D02*
X114004762Y-61850057D01*
X114004762Y-61850057D02*
X113909524Y-61992914D01*
X113909524Y-61992914D02*
X113861905Y-62183390D01*
X113861905Y-62183390D02*
X113861905Y-62564342D01*
X113861905Y-62564342D02*
X113909524Y-62659580D01*
X113909524Y-62659580D02*
X113957143Y-62707200D01*
X113957143Y-62707200D02*
X114052381Y-62754819D01*
X114052381Y-62754819D02*
X114242857Y-62754819D01*
X114242857Y-62754819D02*
X114338095Y-62707200D01*
X114338095Y-62707200D02*
X114385714Y-62659580D01*
X114385714Y-62659580D02*
X114433333Y-62564342D01*
X114433333Y-62564342D02*
X114433333Y-62326247D01*
X114433333Y-62326247D02*
X114385714Y-62231009D01*
X114385714Y-62231009D02*
X114338095Y-62183390D01*
X114338095Y-62183390D02*
X114242857Y-62135771D01*
X114242857Y-62135771D02*
X114052381Y-62135771D01*
X114052381Y-62135771D02*
X113957143Y-62183390D01*
X113957143Y-62183390D02*
X113909524Y-62231009D01*
X113909524Y-62231009D02*
X113861905Y-62326247D01*
X97416667Y-62757200D02*
X97559524Y-62804819D01*
X97559524Y-62804819D02*
X97797619Y-62804819D01*
X97797619Y-62804819D02*
X97892857Y-62757200D01*
X97892857Y-62757200D02*
X97940476Y-62709580D01*
X97940476Y-62709580D02*
X97988095Y-62614342D01*
X97988095Y-62614342D02*
X97988095Y-62519104D01*
X97988095Y-62519104D02*
X97940476Y-62423866D01*
X97940476Y-62423866D02*
X97892857Y-62376247D01*
X97892857Y-62376247D02*
X97797619Y-62328628D01*
X97797619Y-62328628D02*
X97607143Y-62281009D01*
X97607143Y-62281009D02*
X97511905Y-62233390D01*
X97511905Y-62233390D02*
X97464286Y-62185771D01*
X97464286Y-62185771D02*
X97416667Y-62090533D01*
X97416667Y-62090533D02*
X97416667Y-61995295D01*
X97416667Y-61995295D02*
X97464286Y-61900057D01*
X97464286Y-61900057D02*
X97511905Y-61852438D01*
X97511905Y-61852438D02*
X97607143Y-61804819D01*
X97607143Y-61804819D02*
X97845238Y-61804819D01*
X97845238Y-61804819D02*
X97988095Y-61852438D01*
X98321429Y-61804819D02*
X98559524Y-62804819D01*
X98559524Y-62804819D02*
X98750000Y-62090533D01*
X98750000Y-62090533D02*
X98940476Y-62804819D01*
X98940476Y-62804819D02*
X99178572Y-61804819D01*
X99511905Y-61900057D02*
X99559524Y-61852438D01*
X99559524Y-61852438D02*
X99654762Y-61804819D01*
X99654762Y-61804819D02*
X99892857Y-61804819D01*
X99892857Y-61804819D02*
X99988095Y-61852438D01*
X99988095Y-61852438D02*
X100035714Y-61900057D01*
X100035714Y-61900057D02*
X100083333Y-61995295D01*
X100083333Y-61995295D02*
X100083333Y-62090533D01*
X100083333Y-62090533D02*
X100035714Y-62233390D01*
X100035714Y-62233390D02*
X99464286Y-62804819D01*
X99464286Y-62804819D02*
X100083333Y-62804819D01*
X126566667Y-47857200D02*
X126709524Y-47904819D01*
X126709524Y-47904819D02*
X126947619Y-47904819D01*
X126947619Y-47904819D02*
X127042857Y-47857200D01*
X127042857Y-47857200D02*
X127090476Y-47809580D01*
X127090476Y-47809580D02*
X127138095Y-47714342D01*
X127138095Y-47714342D02*
X127138095Y-47619104D01*
X127138095Y-47619104D02*
X127090476Y-47523866D01*
X127090476Y-47523866D02*
X127042857Y-47476247D01*
X127042857Y-47476247D02*
X126947619Y-47428628D01*
X126947619Y-47428628D02*
X126757143Y-47381009D01*
X126757143Y-47381009D02*
X126661905Y-47333390D01*
X126661905Y-47333390D02*
X126614286Y-47285771D01*
X126614286Y-47285771D02*
X126566667Y-47190533D01*
X126566667Y-47190533D02*
X126566667Y-47095295D01*
X126566667Y-47095295D02*
X126614286Y-47000057D01*
X126614286Y-47000057D02*
X126661905Y-46952438D01*
X126661905Y-46952438D02*
X126757143Y-46904819D01*
X126757143Y-46904819D02*
X126995238Y-46904819D01*
X126995238Y-46904819D02*
X127138095Y-46952438D01*
X127471429Y-46904819D02*
X127709524Y-47904819D01*
X127709524Y-47904819D02*
X127900000Y-47190533D01*
X127900000Y-47190533D02*
X128090476Y-47904819D01*
X128090476Y-47904819D02*
X128328572Y-46904819D01*
X128757143Y-47904819D02*
X128947619Y-47904819D01*
X128947619Y-47904819D02*
X129042857Y-47857200D01*
X129042857Y-47857200D02*
X129090476Y-47809580D01*
X129090476Y-47809580D02*
X129185714Y-47666723D01*
X129185714Y-47666723D02*
X129233333Y-47476247D01*
X129233333Y-47476247D02*
X129233333Y-47095295D01*
X129233333Y-47095295D02*
X129185714Y-47000057D01*
X129185714Y-47000057D02*
X129138095Y-46952438D01*
X129138095Y-46952438D02*
X129042857Y-46904819D01*
X129042857Y-46904819D02*
X128852381Y-46904819D01*
X128852381Y-46904819D02*
X128757143Y-46952438D01*
X128757143Y-46952438D02*
X128709524Y-47000057D01*
X128709524Y-47000057D02*
X128661905Y-47095295D01*
X128661905Y-47095295D02*
X128661905Y-47333390D01*
X128661905Y-47333390D02*
X128709524Y-47428628D01*
X128709524Y-47428628D02*
X128757143Y-47476247D01*
X128757143Y-47476247D02*
X128852381Y-47523866D01*
X128852381Y-47523866D02*
X129042857Y-47523866D01*
X129042857Y-47523866D02*
X129138095Y-47476247D01*
X129138095Y-47476247D02*
X129185714Y-47428628D01*
X129185714Y-47428628D02*
X129233333Y-47333390D01*
X141490476Y-92307200D02*
X141633333Y-92354819D01*
X141633333Y-92354819D02*
X141871428Y-92354819D01*
X141871428Y-92354819D02*
X141966666Y-92307200D01*
X141966666Y-92307200D02*
X142014285Y-92259580D01*
X142014285Y-92259580D02*
X142061904Y-92164342D01*
X142061904Y-92164342D02*
X142061904Y-92069104D01*
X142061904Y-92069104D02*
X142014285Y-91973866D01*
X142014285Y-91973866D02*
X141966666Y-91926247D01*
X141966666Y-91926247D02*
X141871428Y-91878628D01*
X141871428Y-91878628D02*
X141680952Y-91831009D01*
X141680952Y-91831009D02*
X141585714Y-91783390D01*
X141585714Y-91783390D02*
X141538095Y-91735771D01*
X141538095Y-91735771D02*
X141490476Y-91640533D01*
X141490476Y-91640533D02*
X141490476Y-91545295D01*
X141490476Y-91545295D02*
X141538095Y-91450057D01*
X141538095Y-91450057D02*
X141585714Y-91402438D01*
X141585714Y-91402438D02*
X141680952Y-91354819D01*
X141680952Y-91354819D02*
X141919047Y-91354819D01*
X141919047Y-91354819D02*
X142061904Y-91402438D01*
X142395238Y-91354819D02*
X142633333Y-92354819D01*
X142633333Y-92354819D02*
X142823809Y-91640533D01*
X142823809Y-91640533D02*
X143014285Y-92354819D01*
X143014285Y-92354819D02*
X143252381Y-91354819D01*
X144157142Y-92354819D02*
X143585714Y-92354819D01*
X143871428Y-92354819D02*
X143871428Y-91354819D01*
X143871428Y-91354819D02*
X143776190Y-91497676D01*
X143776190Y-91497676D02*
X143680952Y-91592914D01*
X143680952Y-91592914D02*
X143585714Y-91640533D01*
X145014285Y-91354819D02*
X144823809Y-91354819D01*
X144823809Y-91354819D02*
X144728571Y-91402438D01*
X144728571Y-91402438D02*
X144680952Y-91450057D01*
X144680952Y-91450057D02*
X144585714Y-91592914D01*
X144585714Y-91592914D02*
X144538095Y-91783390D01*
X144538095Y-91783390D02*
X144538095Y-92164342D01*
X144538095Y-92164342D02*
X144585714Y-92259580D01*
X144585714Y-92259580D02*
X144633333Y-92307200D01*
X144633333Y-92307200D02*
X144728571Y-92354819D01*
X144728571Y-92354819D02*
X144919047Y-92354819D01*
X144919047Y-92354819D02*
X145014285Y-92307200D01*
X145014285Y-92307200D02*
X145061904Y-92259580D01*
X145061904Y-92259580D02*
X145109523Y-92164342D01*
X145109523Y-92164342D02*
X145109523Y-91926247D01*
X145109523Y-91926247D02*
X145061904Y-91831009D01*
X145061904Y-91831009D02*
X145014285Y-91783390D01*
X145014285Y-91783390D02*
X144919047Y-91735771D01*
X144919047Y-91735771D02*
X144728571Y-91735771D01*
X144728571Y-91735771D02*
X144633333Y-91783390D01*
X144633333Y-91783390D02*
X144585714Y-91831009D01*
X144585714Y-91831009D02*
X144538095Y-91926247D01*
X128157142Y-75304819D02*
X127823809Y-74828628D01*
X127585714Y-75304819D02*
X127585714Y-74304819D01*
X127585714Y-74304819D02*
X127966666Y-74304819D01*
X127966666Y-74304819D02*
X128061904Y-74352438D01*
X128061904Y-74352438D02*
X128109523Y-74400057D01*
X128109523Y-74400057D02*
X128157142Y-74495295D01*
X128157142Y-74495295D02*
X128157142Y-74638152D01*
X128157142Y-74638152D02*
X128109523Y-74733390D01*
X128109523Y-74733390D02*
X128061904Y-74781009D01*
X128061904Y-74781009D02*
X127966666Y-74828628D01*
X127966666Y-74828628D02*
X127585714Y-74828628D01*
X129109523Y-75304819D02*
X128538095Y-75304819D01*
X128823809Y-75304819D02*
X128823809Y-74304819D01*
X128823809Y-74304819D02*
X128728571Y-74447676D01*
X128728571Y-74447676D02*
X128633333Y-74542914D01*
X128633333Y-74542914D02*
X128538095Y-74590533D01*
X129728571Y-74304819D02*
X129823809Y-74304819D01*
X129823809Y-74304819D02*
X129919047Y-74352438D01*
X129919047Y-74352438D02*
X129966666Y-74400057D01*
X129966666Y-74400057D02*
X130014285Y-74495295D01*
X130014285Y-74495295D02*
X130061904Y-74685771D01*
X130061904Y-74685771D02*
X130061904Y-74923866D01*
X130061904Y-74923866D02*
X130014285Y-75114342D01*
X130014285Y-75114342D02*
X129966666Y-75209580D01*
X129966666Y-75209580D02*
X129919047Y-75257200D01*
X129919047Y-75257200D02*
X129823809Y-75304819D01*
X129823809Y-75304819D02*
X129728571Y-75304819D01*
X129728571Y-75304819D02*
X129633333Y-75257200D01*
X129633333Y-75257200D02*
X129585714Y-75209580D01*
X129585714Y-75209580D02*
X129538095Y-75114342D01*
X129538095Y-75114342D02*
X129490476Y-74923866D01*
X129490476Y-74923866D02*
X129490476Y-74685771D01*
X129490476Y-74685771D02*
X129538095Y-74495295D01*
X129538095Y-74495295D02*
X129585714Y-74400057D01*
X129585714Y-74400057D02*
X129633333Y-74352438D01*
X129633333Y-74352438D02*
X129728571Y-74304819D01*
X114233333Y-75404819D02*
X113900000Y-74928628D01*
X113661905Y-75404819D02*
X113661905Y-74404819D01*
X113661905Y-74404819D02*
X114042857Y-74404819D01*
X114042857Y-74404819D02*
X114138095Y-74452438D01*
X114138095Y-74452438D02*
X114185714Y-74500057D01*
X114185714Y-74500057D02*
X114233333Y-74595295D01*
X114233333Y-74595295D02*
X114233333Y-74738152D01*
X114233333Y-74738152D02*
X114185714Y-74833390D01*
X114185714Y-74833390D02*
X114138095Y-74881009D01*
X114138095Y-74881009D02*
X114042857Y-74928628D01*
X114042857Y-74928628D02*
X113661905Y-74928628D01*
X115090476Y-74404819D02*
X114900000Y-74404819D01*
X114900000Y-74404819D02*
X114804762Y-74452438D01*
X114804762Y-74452438D02*
X114757143Y-74500057D01*
X114757143Y-74500057D02*
X114661905Y-74642914D01*
X114661905Y-74642914D02*
X114614286Y-74833390D01*
X114614286Y-74833390D02*
X114614286Y-75214342D01*
X114614286Y-75214342D02*
X114661905Y-75309580D01*
X114661905Y-75309580D02*
X114709524Y-75357200D01*
X114709524Y-75357200D02*
X114804762Y-75404819D01*
X114804762Y-75404819D02*
X114995238Y-75404819D01*
X114995238Y-75404819D02*
X115090476Y-75357200D01*
X115090476Y-75357200D02*
X115138095Y-75309580D01*
X115138095Y-75309580D02*
X115185714Y-75214342D01*
X115185714Y-75214342D02*
X115185714Y-74976247D01*
X115185714Y-74976247D02*
X115138095Y-74881009D01*
X115138095Y-74881009D02*
X115090476Y-74833390D01*
X115090476Y-74833390D02*
X114995238Y-74785771D01*
X114995238Y-74785771D02*
X114804762Y-74785771D01*
X114804762Y-74785771D02*
X114709524Y-74833390D01*
X114709524Y-74833390D02*
X114661905Y-74881009D01*
X114661905Y-74881009D02*
X114614286Y-74976247D01*
X99433333Y-90304819D02*
X99100000Y-89828628D01*
X98861905Y-90304819D02*
X98861905Y-89304819D01*
X98861905Y-89304819D02*
X99242857Y-89304819D01*
X99242857Y-89304819D02*
X99338095Y-89352438D01*
X99338095Y-89352438D02*
X99385714Y-89400057D01*
X99385714Y-89400057D02*
X99433333Y-89495295D01*
X99433333Y-89495295D02*
X99433333Y-89638152D01*
X99433333Y-89638152D02*
X99385714Y-89733390D01*
X99385714Y-89733390D02*
X99338095Y-89781009D01*
X99338095Y-89781009D02*
X99242857Y-89828628D01*
X99242857Y-89828628D02*
X98861905Y-89828628D01*
X100290476Y-89638152D02*
X100290476Y-90304819D01*
X100052381Y-89257200D02*
X99814286Y-89971485D01*
X99814286Y-89971485D02*
X100433333Y-89971485D01*
X141490476Y-62807200D02*
X141633333Y-62854819D01*
X141633333Y-62854819D02*
X141871428Y-62854819D01*
X141871428Y-62854819D02*
X141966666Y-62807200D01*
X141966666Y-62807200D02*
X142014285Y-62759580D01*
X142014285Y-62759580D02*
X142061904Y-62664342D01*
X142061904Y-62664342D02*
X142061904Y-62569104D01*
X142061904Y-62569104D02*
X142014285Y-62473866D01*
X142014285Y-62473866D02*
X141966666Y-62426247D01*
X141966666Y-62426247D02*
X141871428Y-62378628D01*
X141871428Y-62378628D02*
X141680952Y-62331009D01*
X141680952Y-62331009D02*
X141585714Y-62283390D01*
X141585714Y-62283390D02*
X141538095Y-62235771D01*
X141538095Y-62235771D02*
X141490476Y-62140533D01*
X141490476Y-62140533D02*
X141490476Y-62045295D01*
X141490476Y-62045295D02*
X141538095Y-61950057D01*
X141538095Y-61950057D02*
X141585714Y-61902438D01*
X141585714Y-61902438D02*
X141680952Y-61854819D01*
X141680952Y-61854819D02*
X141919047Y-61854819D01*
X141919047Y-61854819D02*
X142061904Y-61902438D01*
X142395238Y-61854819D02*
X142633333Y-62854819D01*
X142633333Y-62854819D02*
X142823809Y-62140533D01*
X142823809Y-62140533D02*
X143014285Y-62854819D01*
X143014285Y-62854819D02*
X143252381Y-61854819D01*
X144157142Y-62854819D02*
X143585714Y-62854819D01*
X143871428Y-62854819D02*
X143871428Y-61854819D01*
X143871428Y-61854819D02*
X143776190Y-61997676D01*
X143776190Y-61997676D02*
X143680952Y-62092914D01*
X143680952Y-62092914D02*
X143585714Y-62140533D01*
X145014285Y-62188152D02*
X145014285Y-62854819D01*
X144776190Y-61807200D02*
X144538095Y-62521485D01*
X144538095Y-62521485D02*
X145157142Y-62521485D01*
X128883333Y-60504819D02*
X128550000Y-60028628D01*
X128311905Y-60504819D02*
X128311905Y-59504819D01*
X128311905Y-59504819D02*
X128692857Y-59504819D01*
X128692857Y-59504819D02*
X128788095Y-59552438D01*
X128788095Y-59552438D02*
X128835714Y-59600057D01*
X128835714Y-59600057D02*
X128883333Y-59695295D01*
X128883333Y-59695295D02*
X128883333Y-59838152D01*
X128883333Y-59838152D02*
X128835714Y-59933390D01*
X128835714Y-59933390D02*
X128788095Y-59981009D01*
X128788095Y-59981009D02*
X128692857Y-60028628D01*
X128692857Y-60028628D02*
X128311905Y-60028628D01*
X129359524Y-60504819D02*
X129550000Y-60504819D01*
X129550000Y-60504819D02*
X129645238Y-60457200D01*
X129645238Y-60457200D02*
X129692857Y-60409580D01*
X129692857Y-60409580D02*
X129788095Y-60266723D01*
X129788095Y-60266723D02*
X129835714Y-60076247D01*
X129835714Y-60076247D02*
X129835714Y-59695295D01*
X129835714Y-59695295D02*
X129788095Y-59600057D01*
X129788095Y-59600057D02*
X129740476Y-59552438D01*
X129740476Y-59552438D02*
X129645238Y-59504819D01*
X129645238Y-59504819D02*
X129454762Y-59504819D01*
X129454762Y-59504819D02*
X129359524Y-59552438D01*
X129359524Y-59552438D02*
X129311905Y-59600057D01*
X129311905Y-59600057D02*
X129264286Y-59695295D01*
X129264286Y-59695295D02*
X129264286Y-59933390D01*
X129264286Y-59933390D02*
X129311905Y-60028628D01*
X129311905Y-60028628D02*
X129359524Y-60076247D01*
X129359524Y-60076247D02*
X129454762Y-60123866D01*
X129454762Y-60123866D02*
X129645238Y-60123866D01*
X129645238Y-60123866D02*
X129740476Y-60076247D01*
X129740476Y-60076247D02*
X129788095Y-60028628D01*
X129788095Y-60028628D02*
X129835714Y-59933390D01*
X111816667Y-47857200D02*
X111959524Y-47904819D01*
X111959524Y-47904819D02*
X112197619Y-47904819D01*
X112197619Y-47904819D02*
X112292857Y-47857200D01*
X112292857Y-47857200D02*
X112340476Y-47809580D01*
X112340476Y-47809580D02*
X112388095Y-47714342D01*
X112388095Y-47714342D02*
X112388095Y-47619104D01*
X112388095Y-47619104D02*
X112340476Y-47523866D01*
X112340476Y-47523866D02*
X112292857Y-47476247D01*
X112292857Y-47476247D02*
X112197619Y-47428628D01*
X112197619Y-47428628D02*
X112007143Y-47381009D01*
X112007143Y-47381009D02*
X111911905Y-47333390D01*
X111911905Y-47333390D02*
X111864286Y-47285771D01*
X111864286Y-47285771D02*
X111816667Y-47190533D01*
X111816667Y-47190533D02*
X111816667Y-47095295D01*
X111816667Y-47095295D02*
X111864286Y-47000057D01*
X111864286Y-47000057D02*
X111911905Y-46952438D01*
X111911905Y-46952438D02*
X112007143Y-46904819D01*
X112007143Y-46904819D02*
X112245238Y-46904819D01*
X112245238Y-46904819D02*
X112388095Y-46952438D01*
X112721429Y-46904819D02*
X112959524Y-47904819D01*
X112959524Y-47904819D02*
X113150000Y-47190533D01*
X113150000Y-47190533D02*
X113340476Y-47904819D01*
X113340476Y-47904819D02*
X113578572Y-46904819D01*
X114435714Y-46904819D02*
X113959524Y-46904819D01*
X113959524Y-46904819D02*
X113911905Y-47381009D01*
X113911905Y-47381009D02*
X113959524Y-47333390D01*
X113959524Y-47333390D02*
X114054762Y-47285771D01*
X114054762Y-47285771D02*
X114292857Y-47285771D01*
X114292857Y-47285771D02*
X114388095Y-47333390D01*
X114388095Y-47333390D02*
X114435714Y-47381009D01*
X114435714Y-47381009D02*
X114483333Y-47476247D01*
X114483333Y-47476247D02*
X114483333Y-47714342D01*
X114483333Y-47714342D02*
X114435714Y-47809580D01*
X114435714Y-47809580D02*
X114388095Y-47857200D01*
X114388095Y-47857200D02*
X114292857Y-47904819D01*
X114292857Y-47904819D02*
X114054762Y-47904819D01*
X114054762Y-47904819D02*
X113959524Y-47857200D01*
X113959524Y-47857200D02*
X113911905Y-47809580D01*
X131591905Y-36594819D02*
X131591905Y-35594819D01*
X131591905Y-35594819D02*
X131830000Y-35594819D01*
X131830000Y-35594819D02*
X131972857Y-35642438D01*
X131972857Y-35642438D02*
X132068095Y-35737676D01*
X132068095Y-35737676D02*
X132115714Y-35832914D01*
X132115714Y-35832914D02*
X132163333Y-36023390D01*
X132163333Y-36023390D02*
X132163333Y-36166247D01*
X132163333Y-36166247D02*
X132115714Y-36356723D01*
X132115714Y-36356723D02*
X132068095Y-36451961D01*
X132068095Y-36451961D02*
X131972857Y-36547200D01*
X131972857Y-36547200D02*
X131830000Y-36594819D01*
X131830000Y-36594819D02*
X131591905Y-36594819D01*
X133115714Y-36594819D02*
X132544286Y-36594819D01*
X132830000Y-36594819D02*
X132830000Y-35594819D01*
X132830000Y-35594819D02*
X132734762Y-35737676D01*
X132734762Y-35737676D02*
X132639524Y-35832914D01*
X132639524Y-35832914D02*
X132544286Y-35880533D01*
X142957142Y-46654819D02*
X142623809Y-46178628D01*
X142385714Y-46654819D02*
X142385714Y-45654819D01*
X142385714Y-45654819D02*
X142766666Y-45654819D01*
X142766666Y-45654819D02*
X142861904Y-45702438D01*
X142861904Y-45702438D02*
X142909523Y-45750057D01*
X142909523Y-45750057D02*
X142957142Y-45845295D01*
X142957142Y-45845295D02*
X142957142Y-45988152D01*
X142957142Y-45988152D02*
X142909523Y-46083390D01*
X142909523Y-46083390D02*
X142861904Y-46131009D01*
X142861904Y-46131009D02*
X142766666Y-46178628D01*
X142766666Y-46178628D02*
X142385714Y-46178628D01*
X143909523Y-46654819D02*
X143338095Y-46654819D01*
X143623809Y-46654819D02*
X143623809Y-45654819D01*
X143623809Y-45654819D02*
X143528571Y-45797676D01*
X143528571Y-45797676D02*
X143433333Y-45892914D01*
X143433333Y-45892914D02*
X143338095Y-45940533D01*
X144766666Y-45654819D02*
X144576190Y-45654819D01*
X144576190Y-45654819D02*
X144480952Y-45702438D01*
X144480952Y-45702438D02*
X144433333Y-45750057D01*
X144433333Y-45750057D02*
X144338095Y-45892914D01*
X144338095Y-45892914D02*
X144290476Y-46083390D01*
X144290476Y-46083390D02*
X144290476Y-46464342D01*
X144290476Y-46464342D02*
X144338095Y-46559580D01*
X144338095Y-46559580D02*
X144385714Y-46607200D01*
X144385714Y-46607200D02*
X144480952Y-46654819D01*
X144480952Y-46654819D02*
X144671428Y-46654819D01*
X144671428Y-46654819D02*
X144766666Y-46607200D01*
X144766666Y-46607200D02*
X144814285Y-46559580D01*
X144814285Y-46559580D02*
X144861904Y-46464342D01*
X144861904Y-46464342D02*
X144861904Y-46226247D01*
X144861904Y-46226247D02*
X144814285Y-46131009D01*
X144814285Y-46131009D02*
X144766666Y-46083390D01*
X144766666Y-46083390D02*
X144671428Y-46035771D01*
X144671428Y-46035771D02*
X144480952Y-46035771D01*
X144480952Y-46035771D02*
X144385714Y-46083390D01*
X144385714Y-46083390D02*
X144338095Y-46131009D01*
X144338095Y-46131009D02*
X144290476Y-46226247D01*
X127757142Y-90404819D02*
X127423809Y-89928628D01*
X127185714Y-90404819D02*
X127185714Y-89404819D01*
X127185714Y-89404819D02*
X127566666Y-89404819D01*
X127566666Y-89404819D02*
X127661904Y-89452438D01*
X127661904Y-89452438D02*
X127709523Y-89500057D01*
X127709523Y-89500057D02*
X127757142Y-89595295D01*
X127757142Y-89595295D02*
X127757142Y-89738152D01*
X127757142Y-89738152D02*
X127709523Y-89833390D01*
X127709523Y-89833390D02*
X127661904Y-89881009D01*
X127661904Y-89881009D02*
X127566666Y-89928628D01*
X127566666Y-89928628D02*
X127185714Y-89928628D01*
X128709523Y-90404819D02*
X128138095Y-90404819D01*
X128423809Y-90404819D02*
X128423809Y-89404819D01*
X128423809Y-89404819D02*
X128328571Y-89547676D01*
X128328571Y-89547676D02*
X128233333Y-89642914D01*
X128233333Y-89642914D02*
X128138095Y-89690533D01*
X129661904Y-90404819D02*
X129090476Y-90404819D01*
X129376190Y-90404819D02*
X129376190Y-89404819D01*
X129376190Y-89404819D02*
X129280952Y-89547676D01*
X129280952Y-89547676D02*
X129185714Y-89642914D01*
X129185714Y-89642914D02*
X129090476Y-89690533D01*
X99583333Y-46504819D02*
X99250000Y-46028628D01*
X99011905Y-46504819D02*
X99011905Y-45504819D01*
X99011905Y-45504819D02*
X99392857Y-45504819D01*
X99392857Y-45504819D02*
X99488095Y-45552438D01*
X99488095Y-45552438D02*
X99535714Y-45600057D01*
X99535714Y-45600057D02*
X99583333Y-45695295D01*
X99583333Y-45695295D02*
X99583333Y-45838152D01*
X99583333Y-45838152D02*
X99535714Y-45933390D01*
X99535714Y-45933390D02*
X99488095Y-45981009D01*
X99488095Y-45981009D02*
X99392857Y-46028628D01*
X99392857Y-46028628D02*
X99011905Y-46028628D01*
X100535714Y-46504819D02*
X99964286Y-46504819D01*
X100250000Y-46504819D02*
X100250000Y-45504819D01*
X100250000Y-45504819D02*
X100154762Y-45647676D01*
X100154762Y-45647676D02*
X100059524Y-45742914D01*
X100059524Y-45742914D02*
X99964286Y-45790533D01*
X126404819Y-42242857D02*
X125928628Y-42576190D01*
X126404819Y-42814285D02*
X125404819Y-42814285D01*
X125404819Y-42814285D02*
X125404819Y-42433333D01*
X125404819Y-42433333D02*
X125452438Y-42338095D01*
X125452438Y-42338095D02*
X125500057Y-42290476D01*
X125500057Y-42290476D02*
X125595295Y-42242857D01*
X125595295Y-42242857D02*
X125738152Y-42242857D01*
X125738152Y-42242857D02*
X125833390Y-42290476D01*
X125833390Y-42290476D02*
X125881009Y-42338095D01*
X125881009Y-42338095D02*
X125928628Y-42433333D01*
X125928628Y-42433333D02*
X125928628Y-42814285D01*
X126404819Y-41290476D02*
X126404819Y-41861904D01*
X126404819Y-41576190D02*
X125404819Y-41576190D01*
X125404819Y-41576190D02*
X125547676Y-41671428D01*
X125547676Y-41671428D02*
X125642914Y-41766666D01*
X125642914Y-41766666D02*
X125690533Y-41861904D01*
X125833390Y-40719047D02*
X125785771Y-40814285D01*
X125785771Y-40814285D02*
X125738152Y-40861904D01*
X125738152Y-40861904D02*
X125642914Y-40909523D01*
X125642914Y-40909523D02*
X125595295Y-40909523D01*
X125595295Y-40909523D02*
X125500057Y-40861904D01*
X125500057Y-40861904D02*
X125452438Y-40814285D01*
X125452438Y-40814285D02*
X125404819Y-40719047D01*
X125404819Y-40719047D02*
X125404819Y-40528571D01*
X125404819Y-40528571D02*
X125452438Y-40433333D01*
X125452438Y-40433333D02*
X125500057Y-40385714D01*
X125500057Y-40385714D02*
X125595295Y-40338095D01*
X125595295Y-40338095D02*
X125642914Y-40338095D01*
X125642914Y-40338095D02*
X125738152Y-40385714D01*
X125738152Y-40385714D02*
X125785771Y-40433333D01*
X125785771Y-40433333D02*
X125833390Y-40528571D01*
X125833390Y-40528571D02*
X125833390Y-40719047D01*
X125833390Y-40719047D02*
X125881009Y-40814285D01*
X125881009Y-40814285D02*
X125928628Y-40861904D01*
X125928628Y-40861904D02*
X126023866Y-40909523D01*
X126023866Y-40909523D02*
X126214342Y-40909523D01*
X126214342Y-40909523D02*
X126309580Y-40861904D01*
X126309580Y-40861904D02*
X126357200Y-40814285D01*
X126357200Y-40814285D02*
X126404819Y-40719047D01*
X126404819Y-40719047D02*
X126404819Y-40528571D01*
X126404819Y-40528571D02*
X126357200Y-40433333D01*
X126357200Y-40433333D02*
X126309580Y-40385714D01*
X126309580Y-40385714D02*
X126214342Y-40338095D01*
X126214342Y-40338095D02*
X126023866Y-40338095D01*
X126023866Y-40338095D02*
X125928628Y-40385714D01*
X125928628Y-40385714D02*
X125881009Y-40433333D01*
X125881009Y-40433333D02*
X125833390Y-40528571D01*
X142357142Y-60654819D02*
X142023809Y-60178628D01*
X141785714Y-60654819D02*
X141785714Y-59654819D01*
X141785714Y-59654819D02*
X142166666Y-59654819D01*
X142166666Y-59654819D02*
X142261904Y-59702438D01*
X142261904Y-59702438D02*
X142309523Y-59750057D01*
X142309523Y-59750057D02*
X142357142Y-59845295D01*
X142357142Y-59845295D02*
X142357142Y-59988152D01*
X142357142Y-59988152D02*
X142309523Y-60083390D01*
X142309523Y-60083390D02*
X142261904Y-60131009D01*
X142261904Y-60131009D02*
X142166666Y-60178628D01*
X142166666Y-60178628D02*
X141785714Y-60178628D01*
X143309523Y-60654819D02*
X142738095Y-60654819D01*
X143023809Y-60654819D02*
X143023809Y-59654819D01*
X143023809Y-59654819D02*
X142928571Y-59797676D01*
X142928571Y-59797676D02*
X142833333Y-59892914D01*
X142833333Y-59892914D02*
X142738095Y-59940533D01*
X143642857Y-59654819D02*
X144261904Y-59654819D01*
X144261904Y-59654819D02*
X143928571Y-60035771D01*
X143928571Y-60035771D02*
X144071428Y-60035771D01*
X144071428Y-60035771D02*
X144166666Y-60083390D01*
X144166666Y-60083390D02*
X144214285Y-60131009D01*
X144214285Y-60131009D02*
X144261904Y-60226247D01*
X144261904Y-60226247D02*
X144261904Y-60464342D01*
X144261904Y-60464342D02*
X144214285Y-60559580D01*
X144214285Y-60559580D02*
X144166666Y-60607200D01*
X144166666Y-60607200D02*
X144071428Y-60654819D01*
X144071428Y-60654819D02*
X143785714Y-60654819D01*
X143785714Y-60654819D02*
X143690476Y-60607200D01*
X143690476Y-60607200D02*
X143642857Y-60559580D01*
X111816667Y-92157200D02*
X111959524Y-92204819D01*
X111959524Y-92204819D02*
X112197619Y-92204819D01*
X112197619Y-92204819D02*
X112292857Y-92157200D01*
X112292857Y-92157200D02*
X112340476Y-92109580D01*
X112340476Y-92109580D02*
X112388095Y-92014342D01*
X112388095Y-92014342D02*
X112388095Y-91919104D01*
X112388095Y-91919104D02*
X112340476Y-91823866D01*
X112340476Y-91823866D02*
X112292857Y-91776247D01*
X112292857Y-91776247D02*
X112197619Y-91728628D01*
X112197619Y-91728628D02*
X112007143Y-91681009D01*
X112007143Y-91681009D02*
X111911905Y-91633390D01*
X111911905Y-91633390D02*
X111864286Y-91585771D01*
X111864286Y-91585771D02*
X111816667Y-91490533D01*
X111816667Y-91490533D02*
X111816667Y-91395295D01*
X111816667Y-91395295D02*
X111864286Y-91300057D01*
X111864286Y-91300057D02*
X111911905Y-91252438D01*
X111911905Y-91252438D02*
X112007143Y-91204819D01*
X112007143Y-91204819D02*
X112245238Y-91204819D01*
X112245238Y-91204819D02*
X112388095Y-91252438D01*
X112721429Y-91204819D02*
X112959524Y-92204819D01*
X112959524Y-92204819D02*
X113150000Y-91490533D01*
X113150000Y-91490533D02*
X113340476Y-92204819D01*
X113340476Y-92204819D02*
X113578572Y-91204819D01*
X114102381Y-91633390D02*
X114007143Y-91585771D01*
X114007143Y-91585771D02*
X113959524Y-91538152D01*
X113959524Y-91538152D02*
X113911905Y-91442914D01*
X113911905Y-91442914D02*
X113911905Y-91395295D01*
X113911905Y-91395295D02*
X113959524Y-91300057D01*
X113959524Y-91300057D02*
X114007143Y-91252438D01*
X114007143Y-91252438D02*
X114102381Y-91204819D01*
X114102381Y-91204819D02*
X114292857Y-91204819D01*
X114292857Y-91204819D02*
X114388095Y-91252438D01*
X114388095Y-91252438D02*
X114435714Y-91300057D01*
X114435714Y-91300057D02*
X114483333Y-91395295D01*
X114483333Y-91395295D02*
X114483333Y-91442914D01*
X114483333Y-91442914D02*
X114435714Y-91538152D01*
X114435714Y-91538152D02*
X114388095Y-91585771D01*
X114388095Y-91585771D02*
X114292857Y-91633390D01*
X114292857Y-91633390D02*
X114102381Y-91633390D01*
X114102381Y-91633390D02*
X114007143Y-91681009D01*
X114007143Y-91681009D02*
X113959524Y-91728628D01*
X113959524Y-91728628D02*
X113911905Y-91823866D01*
X113911905Y-91823866D02*
X113911905Y-92014342D01*
X113911905Y-92014342D02*
X113959524Y-92109580D01*
X113959524Y-92109580D02*
X114007143Y-92157200D01*
X114007143Y-92157200D02*
X114102381Y-92204819D01*
X114102381Y-92204819D02*
X114292857Y-92204819D01*
X114292857Y-92204819D02*
X114388095Y-92157200D01*
X114388095Y-92157200D02*
X114435714Y-92109580D01*
X114435714Y-92109580D02*
X114483333Y-92014342D01*
X114483333Y-92014342D02*
X114483333Y-91823866D01*
X114483333Y-91823866D02*
X114435714Y-91728628D01*
X114435714Y-91728628D02*
X114388095Y-91681009D01*
X114388095Y-91681009D02*
X114292857Y-91633390D01*
D13*
%TO.C,SW1*%
X98550000Y-51100000D02*
X98550000Y-52600000D01*
X99800000Y-55100000D02*
X104300000Y-55100000D01*
X104300000Y-48600000D02*
X99800000Y-48600000D01*
X105550000Y-52600000D02*
X105550000Y-51100000D01*
%TO.C,SW11*%
X127950000Y-80900000D02*
X127950000Y-82400000D01*
X129200000Y-84900000D02*
X133700000Y-84900000D01*
X133700000Y-78400000D02*
X129200000Y-78400000D01*
X134950000Y-82400000D02*
X134950000Y-80900000D01*
%TO.C,R2*%
X101960436Y-59365000D02*
X102414564Y-59365000D01*
X101960436Y-60835000D02*
X102414564Y-60835000D01*
%TO.C,R3*%
X102160436Y-74265000D02*
X102614564Y-74265000D01*
X102160436Y-75735000D02*
X102614564Y-75735000D01*
%TO.C,J1*%
X107730000Y-40530000D02*
X107730000Y-39200000D01*
X109060000Y-40530000D02*
X107730000Y-40530000D01*
X110330000Y-37870000D02*
X118010000Y-37870000D01*
X110330000Y-40530000D02*
X110330000Y-37870000D01*
X110330000Y-40530000D02*
X118010000Y-40530000D01*
X118010000Y-40530000D02*
X118010000Y-37870000D01*
%TO.C,R8*%
X116672936Y-45565000D02*
X117127064Y-45565000D01*
X116672936Y-47035000D02*
X117127064Y-47035000D01*
%TO.C,SW4*%
X98600000Y-95450000D02*
X98600000Y-96950000D01*
X99850000Y-99450000D02*
X104350000Y-99450000D01*
X104350000Y-92950000D02*
X99850000Y-92950000D01*
X105600000Y-96950000D02*
X105600000Y-95450000D01*
%TO.C,SW15*%
X142700000Y-80850000D02*
X142700000Y-82350000D01*
X143950000Y-84850000D02*
X148450000Y-84850000D01*
X148450000Y-78350000D02*
X143950000Y-78350000D01*
X149700000Y-82350000D02*
X149700000Y-80850000D01*
%TO.C,R15*%
X146472936Y-89265000D02*
X146927064Y-89265000D01*
X146472936Y-90735000D02*
X146927064Y-90735000D01*
%TO.C,D2*%
X139110000Y-38555000D02*
X139110000Y-41645000D01*
X139110000Y-38555170D02*
G75*
G02*
X144660000Y-40100462I2560000J-1544830D01*
G01*
X144660000Y-40099538D02*
G75*
G02*
X139110000Y-41644830I-2990000J-462D01*
G01*
X144170000Y-40100000D02*
G75*
G02*
X139170000Y-40100000I-2500000J0D01*
G01*
X139170000Y-40100000D02*
G75*
G02*
X144170000Y-40100000I2500000J0D01*
G01*
%TO.C,SW7*%
X113100000Y-80850000D02*
X113100000Y-82350000D01*
X114350000Y-84850000D02*
X118850000Y-84850000D01*
X118850000Y-78350000D02*
X114350000Y-78350000D01*
X120100000Y-82350000D02*
X120100000Y-80850000D01*
%TO.C,R14*%
X146372936Y-74165000D02*
X146827064Y-74165000D01*
X146372936Y-75635000D02*
X146827064Y-75635000D01*
%TO.C,R5*%
X117214564Y-59365000D02*
X116760436Y-59365000D01*
X117214564Y-60835000D02*
X116760436Y-60835000D01*
%TO.C,SW13*%
X142750000Y-51100000D02*
X142750000Y-52600000D01*
X144000000Y-55100000D02*
X148500000Y-55100000D01*
X148500000Y-48600000D02*
X144000000Y-48600000D01*
X149750000Y-52600000D02*
X149750000Y-51100000D01*
%TO.C,R7*%
X116272936Y-89165000D02*
X116727064Y-89165000D01*
X116272936Y-90635000D02*
X116727064Y-90635000D01*
%TO.C,SW12*%
X127900000Y-95650000D02*
X127900000Y-97150000D01*
X129150000Y-99650000D02*
X133650000Y-99650000D01*
X133650000Y-93150000D02*
X129150000Y-93150000D01*
X134900000Y-97150000D02*
X134900000Y-95650000D01*
%TO.C,R19*%
X145665000Y-41460436D02*
X145665000Y-41914564D01*
X147135000Y-41460436D02*
X147135000Y-41914564D01*
%TO.C,R12*%
X131672936Y-45365000D02*
X132127064Y-45365000D01*
X131672936Y-46835000D02*
X132127064Y-46835000D01*
%TO.C,SW3*%
X98600000Y-80850000D02*
X98600000Y-82350000D01*
X99850000Y-84850000D02*
X104350000Y-84850000D01*
X104350000Y-78350000D02*
X99850000Y-78350000D01*
X105600000Y-82350000D02*
X105600000Y-80850000D01*
%TO.C,SW10*%
X127850000Y-66100000D02*
X127850000Y-67600000D01*
X129100000Y-70100000D02*
X133600000Y-70100000D01*
X133600000Y-63600000D02*
X129100000Y-63600000D01*
X134850000Y-67600000D02*
X134850000Y-66100000D01*
%TO.C,R17*%
X112872936Y-41965000D02*
X113327064Y-41965000D01*
X112872936Y-43435000D02*
X113327064Y-43435000D01*
%TO.C,SW6*%
X112950000Y-66100000D02*
X112950000Y-67600000D01*
X114200000Y-70100000D02*
X118700000Y-70100000D01*
X118700000Y-63600000D02*
X114200000Y-63600000D01*
X119950000Y-67600000D02*
X119950000Y-66100000D01*
%TO.C,SW2*%
X98500000Y-66150000D02*
X98500000Y-67650000D01*
X99750000Y-70150000D02*
X104250000Y-70150000D01*
X104250000Y-63650000D02*
X99750000Y-63650000D01*
X105500000Y-67650000D02*
X105500000Y-66150000D01*
%TO.C,SW9*%
X127800000Y-51050000D02*
X127800000Y-52550000D01*
X129050000Y-55050000D02*
X133550000Y-55050000D01*
X133550000Y-48550000D02*
X129050000Y-48550000D01*
X134800000Y-52550000D02*
X134800000Y-51050000D01*
%TO.C,SW16*%
X142750000Y-95600000D02*
X142750000Y-97100000D01*
X144000000Y-99600000D02*
X148500000Y-99600000D01*
X148500000Y-93100000D02*
X144000000Y-93100000D01*
X149750000Y-97100000D02*
X149750000Y-95600000D01*
%TO.C,R10*%
X131860436Y-74165000D02*
X132314564Y-74165000D01*
X131860436Y-75635000D02*
X132314564Y-75635000D01*
%TO.C,R6*%
X116972936Y-74265000D02*
X117427064Y-74265000D01*
X116972936Y-75735000D02*
X117427064Y-75735000D01*
%TO.C,R4*%
X102160436Y-89165000D02*
X102614564Y-89165000D01*
X102160436Y-90635000D02*
X102614564Y-90635000D01*
%TO.C,SW14*%
X142750000Y-66100000D02*
X142750000Y-67600000D01*
X144000000Y-70100000D02*
X148500000Y-70100000D01*
X148500000Y-63600000D02*
X144000000Y-63600000D01*
X149750000Y-67600000D02*
X149750000Y-66100000D01*
%TO.C,R9*%
X131560436Y-59365000D02*
X132014564Y-59365000D01*
X131560436Y-60835000D02*
X132014564Y-60835000D01*
%TO.C,SW5*%
X113050000Y-51100000D02*
X113050000Y-52600000D01*
X114300000Y-55100000D02*
X118800000Y-55100000D01*
X118800000Y-48600000D02*
X114300000Y-48600000D01*
X120050000Y-52600000D02*
X120050000Y-51100000D01*
%TO.C,D1*%
X129770000Y-38555000D02*
X129770000Y-41645000D01*
X129770000Y-38555170D02*
G75*
G02*
X135320000Y-40100462I2560000J-1544830D01*
G01*
X135320000Y-40099538D02*
G75*
G02*
X129770000Y-41644830I-2990000J-462D01*
G01*
X134830000Y-40100000D02*
G75*
G02*
X129830000Y-40100000I-2500000J0D01*
G01*
X129830000Y-40100000D02*
G75*
G02*
X134830000Y-40100000I2500000J0D01*
G01*
%TO.C,R16*%
X146672936Y-45265000D02*
X147127064Y-45265000D01*
X146672936Y-46735000D02*
X147127064Y-46735000D01*
%TO.C,R11*%
X131372936Y-89165000D02*
X131827064Y-89165000D01*
X131372936Y-90635000D02*
X131827064Y-90635000D01*
%TO.C,R1*%
X102072936Y-45465000D02*
X102527064Y-45465000D01*
X102072936Y-46935000D02*
X102527064Y-46935000D01*
%TO.C,R18*%
X126865000Y-41827064D02*
X126865000Y-41372936D01*
X128335000Y-41827064D02*
X128335000Y-41372936D01*
%TO.C,R13*%
X146072936Y-59465000D02*
X146527064Y-59465000D01*
X146072936Y-60935000D02*
X146527064Y-60935000D01*
%TO.C,SW8*%
X113050000Y-95550000D02*
X113050000Y-97050000D01*
X114300000Y-99550000D02*
X118800000Y-99550000D01*
X118800000Y-93050000D02*
X114300000Y-93050000D01*
X120050000Y-97050000D02*
X120050000Y-95550000D01*
%TD*%
M02*
