M48
; DRILL file {KiCad 8.0.6} date 2024-10-18T13:29:53-0300
; FORMAT={-:-/ absolute / inch / decimal}
; #@! TF.CreationDate,2024-10-18T13:29:53-03:00
; #@! TF.GenerationSoftware,Kicad,Pcbnew,8.0.6
; #@! TF.FileFunction,Plated,1,2,PTH
FMAT,2
INCH
; #@! TA.AperFunction,Plated,PTH,ViaDrill
T1C0.0118
; #@! TA.AperFunction,Plated,PTH,ComponentDrill
T2C0.0354
; #@! TA.AperFunction,Plated,PTH,ComponentDrill
T3C0.0394
; #@! TA.AperFunction,Plated,PTH,ComponentDrill
T4C0.0433
%
G90
G05
T1
X4.5394Y-1.6811
X4.6417Y-1.75
T2
X5.1598Y-1.5787
X5.2598Y-1.5787
X5.5276Y-1.5787
X5.6276Y-1.5787
T3
X4.2937Y-1.5433
X4.3937Y-1.5433
X4.4937Y-1.5433
X4.5937Y-1.5433
T4
X3.8878Y-2.5453
X3.8878Y-2.7224
X3.8898Y-1.9528
X3.8898Y-2.1299
X3.8917Y-3.124
X3.8917Y-3.3012
X3.8917Y-3.6988
X3.8917Y-3.876
X4.1437Y-2.5453
X4.1437Y-2.7224
X4.1457Y-1.9528
X4.1457Y-2.1299
X4.1476Y-3.124
X4.1476Y-3.3012
X4.1476Y-3.6988
X4.1476Y-3.876
X4.4567Y-2.5433
X4.4567Y-2.7205
X4.4606Y-1.9528
X4.4606Y-2.1299
X4.4606Y-3.7028
X4.4606Y-3.8799
X4.4626Y-3.124
X4.4626Y-3.3012
X4.7126Y-2.5433
X4.7126Y-2.7205
X4.7165Y-1.9528
X4.7165Y-2.1299
X4.7165Y-3.7028
X4.7165Y-3.8799
X4.7185Y-3.124
X4.7185Y-3.3012
X5.0413Y-1.9508
X5.0413Y-2.128
X5.0433Y-2.5433
X5.0433Y-2.7205
X5.0453Y-3.7067
X5.0453Y-3.8839
X5.0472Y-3.126
X5.0472Y-3.3031
X5.2972Y-1.9508
X5.2972Y-2.128
X5.2992Y-2.5433
X5.2992Y-2.7205
X5.3012Y-3.7067
X5.3012Y-3.8839
X5.3031Y-3.126
X5.3031Y-3.3031
X5.628Y-3.124
X5.628Y-3.3012
X5.6299Y-1.9528
X5.6299Y-2.1299
X5.6299Y-2.5433
X5.6299Y-2.7205
X5.6299Y-3.7047
X5.6299Y-3.8819
X5.8839Y-3.124
X5.8839Y-3.3012
X5.8858Y-1.9528
X5.8858Y-2.1299
X5.8858Y-2.5433
X5.8858Y-2.7205
X5.8858Y-3.7047
X5.8858Y-3.8819
M30
